M48
; DRILL file {KiCad (6.0.6)} date Sat Nov 12 22:00:44 2022
; FORMAT={-:-/ absolute / inch / decimal}
; #@! TF.CreationDate,2022-11-12T22:00:44+08:00
; #@! TF.GenerationSoftware,Kicad,Pcbnew,(6.0.6)
; #@! TF.FileFunction,Plated,1,2,PTH
FMAT,2
INCH
; #@! TA.AperFunction,Plated,PTH,ViaDrill
T1C0.0118
; #@! TA.AperFunction,Plated,PTH,ViaDrill
T2C0.0157
; #@! TA.AperFunction,Plated,PTH,ComponentDrill
T3C0.0236
%
G90
G05
T1
X5.295Y-4.62
X5.4675Y-4.6535
X5.766Y-4.014
X5.85Y-4.22
X5.9085Y-4.5394
X6.004Y-3.57
X6.0167Y-3.8248
X6.02Y-3.92
X6.02Y-4.045
X6.02Y-4.595
X6.07Y-4.345
X6.124Y-3.742
X6.126Y-3.872
X6.1775Y-3.5175
X6.18Y-3.67
X6.195Y-4.635
X6.2Y-4.225
X6.205Y-4.525
X6.22Y-4.94
X6.225Y-4.9
X6.23Y-3.865
X6.24Y-4.975
X6.245Y-4.265
X6.2551Y-3.6189
X6.27Y-3.82
X6.278Y-3.764
X6.295Y-4.705
X6.31Y-4.185
X6.31Y-4.33
X6.325Y-4.07
X6.325Y-4.22
X6.345Y-4.355
X6.35Y-4.99
X6.36Y-4.705
X6.36Y-4.89
X6.38Y-3.905
X6.38Y-3.945
X6.415Y-4.09
X6.4341Y-4.3514
X6.435Y-4.815
X6.445Y-4.705
X6.472Y-4.536
X6.4764Y-4.3563
X6.4875Y-4.0875
X6.49Y-4.7
X6.5118Y-4.3346
X6.52Y-3.78
X6.52Y-4.105
X6.525Y-3.73
X6.525Y-4.555
X6.54Y-4.635
X6.545Y-4.045
X6.555Y-4.585
X6.562Y-4.908
X6.565Y-4.0
X6.585Y-3.88
X6.588Y-4.79
X6.595Y-3.975
X6.618Y-3.694
X6.662Y-4.914
X6.662Y-4.944
X6.664Y-4.84
X6.678Y-4.24
X6.7819Y-4.1605
X6.782Y-4.79
X6.792Y-5.048
X6.8Y-3.83
X6.81Y-3.88
X6.844Y-4.796
X6.844Y-5.05
X6.855Y-4.695
X6.8838Y-4.7438
X6.905Y-4.64
X6.925Y-4.9
X6.965Y-3.83
X6.97Y-3.78
X6.98Y-5.1
X7.0758Y-5.1032
T2
X6.825Y-3.99
X6.9037Y-3.9069
T3
G00X6.8539Y-4.0649
M15
G01X6.8972Y-4.0649
M16
G05
G00X6.8539Y-4.4051
M15
G01X6.8972Y-4.4051
M16
G05
G00X7.0283Y-4.0649
M15
G01X7.0519Y-4.0649
M16
G05
G00X7.0283Y-4.4051
M15
G01X7.0519Y-4.4051
M16
G05
T0
M30
