%TF.GenerationSoftware,KiCad,Pcbnew,(6.0.6)*%
%TF.CreationDate,2022-11-12T22:00:41+08:00*%
%TF.ProjectId,Debugger-PCB,44656275-6767-4657-922d-5043422e6b69,rev?*%
%TF.SameCoordinates,Original*%
%TF.FileFunction,Paste,Top*%
%TF.FilePolarity,Positive*%
%FSLAX46Y46*%
G04 Gerber Fmt 4.6, Leading zero omitted, Abs format (unit mm)*
G04 Created by KiCad (PCBNEW (6.0.6)) date 2022-11-12 22:00:41*
%MOMM*%
%LPD*%
G01*
G04 APERTURE LIST*
G04 Aperture macros list*
%AMRoundRect*
0 Rectangle with rounded corners*
0 $1 Rounding radius*
0 $2 $3 $4 $5 $6 $7 $8 $9 X,Y pos of 4 corners*
0 Add a 4 corners polygon primitive as box body*
4,1,4,$2,$3,$4,$5,$6,$7,$8,$9,$2,$3,0*
0 Add four circle primitives for the rounded corners*
1,1,$1+$1,$2,$3*
1,1,$1+$1,$4,$5*
1,1,$1+$1,$6,$7*
1,1,$1+$1,$8,$9*
0 Add four rect primitives between the rounded corners*
20,1,$1+$1,$2,$3,$4,$5,0*
20,1,$1+$1,$4,$5,$6,$7,0*
20,1,$1+$1,$6,$7,$8,$9,0*
20,1,$1+$1,$8,$9,$2,$3,0*%
G04 Aperture macros list end*
%ADD10R,0.650000X1.560000*%
%ADD11RoundRect,0.218750X0.256250X-0.218750X0.256250X0.218750X-0.256250X0.218750X-0.256250X-0.218750X0*%
%ADD12RoundRect,0.150000X-0.825000X-0.150000X0.825000X-0.150000X0.825000X0.150000X-0.825000X0.150000X0*%
%ADD13R,0.400000X2.000000*%
%ADD14RoundRect,0.225000X0.250000X-0.225000X0.250000X0.225000X-0.250000X0.225000X-0.250000X-0.225000X0*%
%ADD15RoundRect,0.200000X-0.200000X-0.275000X0.200000X-0.275000X0.200000X0.275000X-0.200000X0.275000X0*%
%ADD16RoundRect,0.225000X0.225000X0.225000X-0.225000X0.225000X-0.225000X-0.225000X0.225000X-0.225000X0*%
%ADD17RoundRect,0.125000X0.125000X0.325000X-0.125000X0.325000X-0.125000X-0.325000X0.125000X-0.325000X0*%
%ADD18RoundRect,0.150000X0.700000X-0.150000X0.700000X0.150000X-0.700000X0.150000X-0.700000X-0.150000X0*%
%ADD19RoundRect,0.250000X1.100000X-0.250000X1.100000X0.250000X-1.100000X0.250000X-1.100000X-0.250000X0*%
%ADD20RoundRect,0.225000X0.225000X0.250000X-0.225000X0.250000X-0.225000X-0.250000X0.225000X-0.250000X0*%
%ADD21RoundRect,0.225000X-0.225000X-0.250000X0.225000X-0.250000X0.225000X0.250000X-0.225000X0.250000X0*%
%ADD22RoundRect,0.218750X0.218750X0.256250X-0.218750X0.256250X-0.218750X-0.256250X0.218750X-0.256250X0*%
%ADD23RoundRect,0.225000X-0.250000X0.225000X-0.250000X-0.225000X0.250000X-0.225000X0.250000X0.225000X0*%
%ADD24R,1.400000X0.300000*%
%ADD25RoundRect,0.200000X-0.275000X0.200000X-0.275000X-0.200000X0.275000X-0.200000X0.275000X0.200000X0*%
%ADD26RoundRect,0.150000X0.650000X0.150000X-0.650000X0.150000X-0.650000X-0.150000X0.650000X-0.150000X0*%
%ADD27R,1.450000X0.600000*%
%ADD28R,1.450000X0.300000*%
%ADD29RoundRect,0.200000X0.275000X-0.200000X0.275000X0.200000X-0.275000X0.200000X-0.275000X-0.200000X0*%
%ADD30RoundRect,0.100000X-0.637500X-0.100000X0.637500X-0.100000X0.637500X0.100000X-0.637500X0.100000X0*%
%ADD31RoundRect,0.075000X0.075000X-0.700000X0.075000X0.700000X-0.075000X0.700000X-0.075000X-0.700000X0*%
%ADD32RoundRect,0.075000X0.700000X-0.075000X0.700000X0.075000X-0.700000X0.075000X-0.700000X-0.075000X0*%
%ADD33R,1.400000X1.200000*%
G04 APERTURE END LIST*
D10*
%TO.C,U1*%
X168280000Y-123016000D03*
X169230000Y-123016000D03*
X170180000Y-123016000D03*
X170180000Y-120316000D03*
X168280000Y-120316000D03*
%TD*%
D11*
%TO.C,D3*%
X179578000Y-129565500D03*
X179578000Y-127990500D03*
%TD*%
D12*
%TO.C,U4*%
X156910000Y-89408000D03*
X156910000Y-90678000D03*
X156910000Y-91948000D03*
X156910000Y-93218000D03*
X161860000Y-93218000D03*
X161860000Y-91948000D03*
X161860000Y-90678000D03*
X161860000Y-89408000D03*
%TD*%
D13*
%TO.C,LCD1*%
X139312000Y-119769000D03*
X138512000Y-119769000D03*
X137712000Y-119769000D03*
X136912000Y-119769000D03*
X136112000Y-119769000D03*
X135312000Y-119769000D03*
X134512000Y-119769000D03*
X133712000Y-119769000D03*
X132912000Y-119769000D03*
X132112000Y-119769000D03*
X131312000Y-119769000D03*
X130512000Y-119769000D03*
X129712000Y-119769000D03*
X128912000Y-119769000D03*
X140912000Y-119769000D03*
X141712000Y-119769000D03*
X142512000Y-119769000D03*
X143312000Y-119769000D03*
%TD*%
D14*
%TO.C,C9*%
X154432000Y-97676000D03*
X154432000Y-96126000D03*
%TD*%
D15*
%TO.C,R1*%
X168186500Y-130302000D03*
X169836500Y-130302000D03*
%TD*%
D16*
%TO.C,SW1*%
X161325000Y-86225000D03*
X157125000Y-86225000D03*
D17*
X155425000Y-84125000D03*
X163025000Y-84125000D03*
%TD*%
D18*
%TO.C,J3*%
X176869000Y-88382000D03*
X176869000Y-87132000D03*
D19*
X180069000Y-90232000D03*
X180069000Y-85282000D03*
%TD*%
D14*
%TO.C,C25*%
X163449000Y-96787000D03*
X163449000Y-95237000D03*
%TD*%
D15*
%TO.C,R3*%
X160846000Y-122301000D03*
X162496000Y-122301000D03*
%TD*%
D20*
%TO.C,C15*%
X154445000Y-113157000D03*
X152895000Y-113157000D03*
%TD*%
D21*
%TO.C,C10*%
X165346000Y-92571000D03*
X166896000Y-92571000D03*
%TD*%
D20*
%TO.C,C16*%
X154445000Y-114935000D03*
X152895000Y-114935000D03*
%TD*%
%TO.C,C18*%
X166129000Y-122301000D03*
X164579000Y-122301000D03*
%TD*%
D21*
%TO.C,C23*%
X152895000Y-120396000D03*
X154445000Y-120396000D03*
%TD*%
D22*
%TO.C,D1*%
X173101000Y-130302000D03*
X171526000Y-130302000D03*
%TD*%
D23*
%TO.C,C26*%
X152527000Y-89141000D03*
X152527000Y-90691000D03*
%TD*%
D18*
%TO.C,J1*%
X176869000Y-98522000D03*
X176869000Y-97272000D03*
X176869000Y-96022000D03*
X176869000Y-94772000D03*
D19*
X180069000Y-100372000D03*
X180069000Y-92922000D03*
%TD*%
D24*
%TO.C,U3*%
X161077000Y-97520000D03*
X161077000Y-97020000D03*
X161077000Y-96520000D03*
X161077000Y-96020000D03*
X161077000Y-95520000D03*
X156677000Y-95520000D03*
X156677000Y-96020000D03*
X156677000Y-96520000D03*
X156677000Y-97020000D03*
X156677000Y-97520000D03*
%TD*%
D25*
%TO.C,R2*%
X169418000Y-89091000D03*
X169418000Y-90741000D03*
%TD*%
D18*
%TO.C,J2*%
X176869000Y-120493000D03*
X176869000Y-119243000D03*
X176869000Y-117993000D03*
X176869000Y-116743000D03*
D19*
X180069000Y-114893000D03*
X180069000Y-122343000D03*
%TD*%
D14*
%TO.C,C21*%
X162560000Y-128537000D03*
X162560000Y-126987000D03*
%TD*%
D21*
%TO.C,C22*%
X152895000Y-118491000D03*
X154445000Y-118491000D03*
%TD*%
D25*
%TO.C,R6*%
X179578000Y-124651000D03*
X179578000Y-126301000D03*
%TD*%
D14*
%TO.C,C8*%
X166370000Y-128584000D03*
X166370000Y-127034000D03*
%TD*%
D23*
%TO.C,C14*%
X169418000Y-110604000D03*
X169418000Y-112154000D03*
%TD*%
D26*
%TO.C,U7*%
X172891000Y-98552000D03*
X172891000Y-97282000D03*
X172891000Y-96012000D03*
X172891000Y-94742000D03*
X165691000Y-94742000D03*
X165691000Y-96012000D03*
X165691000Y-97282000D03*
X165691000Y-98552000D03*
%TD*%
D16*
%TO.C,SW2*%
X171425000Y-86225000D03*
X167225000Y-86225000D03*
D17*
X165525000Y-84125000D03*
X173125000Y-84125000D03*
%TD*%
D21*
%TO.C,C2*%
X168069000Y-116332000D03*
X169619000Y-116332000D03*
%TD*%
D27*
%TO.C,J4*%
X173724000Y-110819000D03*
X173724000Y-110019000D03*
D28*
X173724000Y-108819000D03*
X173724000Y-107819000D03*
X173724000Y-107319000D03*
X173724000Y-106319000D03*
D27*
X173724000Y-105119000D03*
X173724000Y-104319000D03*
X173724000Y-104319000D03*
X173724000Y-105119000D03*
D28*
X173724000Y-105819000D03*
X173724000Y-106819000D03*
X173724000Y-108319000D03*
X173724000Y-109319000D03*
D27*
X173724000Y-110019000D03*
X173724000Y-110819000D03*
%TD*%
D14*
%TO.C,C5*%
X172151000Y-123330000D03*
X172151000Y-121780000D03*
%TD*%
D15*
%TO.C,R10*%
X164850000Y-89075000D03*
X166500000Y-89075000D03*
%TD*%
D21*
%TO.C,C24*%
X156832000Y-122301000D03*
X158382000Y-122301000D03*
%TD*%
D23*
%TO.C,C13*%
X169291000Y-104127000D03*
X169291000Y-105677000D03*
%TD*%
D29*
%TO.C,R8*%
X152908000Y-104457000D03*
X152908000Y-102807000D03*
%TD*%
D23*
%TO.C,C7*%
X172151000Y-125243000D03*
X172151000Y-126793000D03*
%TD*%
D14*
%TO.C,C1*%
X173929000Y-123330000D03*
X173929000Y-121780000D03*
%TD*%
D15*
%TO.C,R11*%
X171550000Y-90750000D03*
X173200000Y-90750000D03*
%TD*%
D30*
%TO.C,U6*%
X154180500Y-124217000D03*
X154180500Y-124867000D03*
X154180500Y-125517000D03*
X154180500Y-126167000D03*
X154180500Y-126817000D03*
X154180500Y-127467000D03*
X154180500Y-128117000D03*
X154180500Y-128767000D03*
X159905500Y-128767000D03*
X159905500Y-128117000D03*
X159905500Y-127467000D03*
X159905500Y-126817000D03*
X159905500Y-126167000D03*
X159905500Y-125517000D03*
X159905500Y-124867000D03*
X159905500Y-124217000D03*
%TD*%
D10*
%TO.C,U2*%
X170180000Y-125570000D03*
X169230000Y-125570000D03*
X168280000Y-125570000D03*
X168280000Y-128270000D03*
X170180000Y-128270000D03*
%TD*%
D29*
%TO.C,R7*%
X152908000Y-101155000D03*
X152908000Y-99505000D03*
%TD*%
D15*
%TO.C,R4*%
X152845000Y-116713000D03*
X154495000Y-116713000D03*
%TD*%
D31*
%TO.C,U5*%
X157794000Y-113244000D03*
X158294000Y-113244000D03*
X158794000Y-113244000D03*
X159294000Y-113244000D03*
X159794000Y-113244000D03*
X160294000Y-113244000D03*
X160794000Y-113244000D03*
X161294000Y-113244000D03*
X161794000Y-113244000D03*
X162294000Y-113244000D03*
X162794000Y-113244000D03*
X163294000Y-113244000D03*
X163794000Y-113244000D03*
X164294000Y-113244000D03*
X164794000Y-113244000D03*
X165294000Y-113244000D03*
D32*
X167219000Y-111319000D03*
X167219000Y-110819000D03*
X167219000Y-110319000D03*
X167219000Y-109819000D03*
X167219000Y-109319000D03*
X167219000Y-108819000D03*
X167219000Y-108319000D03*
X167219000Y-107819000D03*
X167219000Y-107319000D03*
X167219000Y-106819000D03*
X167219000Y-106319000D03*
X167219000Y-105819000D03*
X167219000Y-105319000D03*
X167219000Y-104819000D03*
X167219000Y-104319000D03*
X167219000Y-103819000D03*
D31*
X165294000Y-101894000D03*
X164794000Y-101894000D03*
X164294000Y-101894000D03*
X163794000Y-101894000D03*
X163294000Y-101894000D03*
X162794000Y-101894000D03*
X162294000Y-101894000D03*
X161794000Y-101894000D03*
X161294000Y-101894000D03*
X160794000Y-101894000D03*
X160294000Y-101894000D03*
X159794000Y-101894000D03*
X159294000Y-101894000D03*
X158794000Y-101894000D03*
X158294000Y-101894000D03*
X157794000Y-101894000D03*
D32*
X155869000Y-103819000D03*
X155869000Y-104319000D03*
X155869000Y-104819000D03*
X155869000Y-105319000D03*
X155869000Y-105819000D03*
X155869000Y-106319000D03*
X155869000Y-106819000D03*
X155869000Y-107319000D03*
X155869000Y-107819000D03*
X155869000Y-108319000D03*
X155869000Y-108819000D03*
X155869000Y-109319000D03*
X155869000Y-109819000D03*
X155869000Y-110319000D03*
X155869000Y-110819000D03*
X155869000Y-111319000D03*
%TD*%
D23*
%TO.C,C3*%
X173929000Y-125243000D03*
X173929000Y-126793000D03*
%TD*%
%TO.C,C19*%
X165354000Y-116827000D03*
X165354000Y-118377000D03*
%TD*%
D14*
%TO.C,C17*%
X159131000Y-118377000D03*
X159131000Y-116827000D03*
%TD*%
D20*
%TO.C,C12*%
X157366000Y-99822000D03*
X155816000Y-99822000D03*
%TD*%
D11*
%TO.C,D2*%
X177292000Y-129565500D03*
X177292000Y-127990500D03*
%TD*%
D33*
%TO.C,Y1*%
X163406000Y-116625000D03*
X161206000Y-116625000D03*
X161206000Y-118325000D03*
X163406000Y-118325000D03*
%TD*%
D21*
%TO.C,C6*%
X168069000Y-118110000D03*
X169619000Y-118110000D03*
%TD*%
D23*
%TO.C,C11*%
X154432000Y-92570000D03*
X154432000Y-94120000D03*
%TD*%
D14*
%TO.C,C4*%
X164465000Y-128584000D03*
X164465000Y-127034000D03*
%TD*%
D21*
%TO.C,C20*%
X152895000Y-122301000D03*
X154445000Y-122301000D03*
%TD*%
D25*
%TO.C,R5*%
X177292000Y-124651000D03*
X177292000Y-126301000D03*
%TD*%
D23*
%TO.C,C27*%
X152475000Y-92500000D03*
X152475000Y-94050000D03*
%TD*%
M02*
