%TF.GenerationSoftware,KiCad,Pcbnew,(6.0.6)*%
%TF.CreationDate,2022-11-12T22:00:41+08:00*%
%TF.ProjectId,Debugger-PCB,44656275-6767-4657-922d-5043422e6b69,rev?*%
%TF.SameCoordinates,Original*%
%TF.FileFunction,Legend,Top*%
%TF.FilePolarity,Positive*%
%FSLAX46Y46*%
G04 Gerber Fmt 4.6, Leading zero omitted, Abs format (unit mm)*
G04 Created by KiCad (PCBNEW (6.0.6)) date 2022-11-12 22:00:41*
%MOMM*%
%LPD*%
G01*
G04 APERTURE LIST*
%ADD10C,0.150000*%
%ADD11C,0.100000*%
%ADD12C,0.120000*%
G04 APERTURE END LIST*
D10*
X173524990Y-119696913D02*
X173524990Y-118696913D01*
X173763085Y-118696913D01*
X173905942Y-118744533D01*
X174001180Y-118839771D01*
X174048800Y-118935009D01*
X174096419Y-119125485D01*
X174096419Y-119268342D01*
X174048800Y-119458818D01*
X174001180Y-119554056D01*
X173905942Y-119649294D01*
X173763085Y-119696913D01*
X173524990Y-119696913D01*
X174524990Y-119696913D02*
X174524990Y-118696913D01*
X175191657Y-118696913D02*
X175382133Y-118696913D01*
X175477371Y-118744533D01*
X175572609Y-118839771D01*
X175620228Y-119030247D01*
X175620228Y-119363580D01*
X175572609Y-119554056D01*
X175477371Y-119649294D01*
X175382133Y-119696913D01*
X175191657Y-119696913D01*
X175096419Y-119649294D01*
X175001180Y-119554056D01*
X174953561Y-119363580D01*
X174953561Y-119030247D01*
X175001180Y-118839771D01*
X175096419Y-118744533D01*
X175191657Y-118696913D01*
X173215466Y-119958446D02*
X173548800Y-120958446D01*
X173882133Y-119958446D01*
X174786895Y-120863208D02*
X174739276Y-120910827D01*
X174596419Y-120958446D01*
X174501180Y-120958446D01*
X174358323Y-120910827D01*
X174263085Y-120815589D01*
X174215466Y-120720351D01*
X174167847Y-120529875D01*
X174167847Y-120387018D01*
X174215466Y-120196542D01*
X174263085Y-120101304D01*
X174358323Y-120006066D01*
X174501180Y-119958446D01*
X174596419Y-119958446D01*
X174739276Y-120006066D01*
X174786895Y-120053685D01*
X175786895Y-120863208D02*
X175739276Y-120910827D01*
X175596419Y-120958446D01*
X175501180Y-120958446D01*
X175358323Y-120910827D01*
X175263085Y-120815589D01*
X175215466Y-120720351D01*
X175167847Y-120529875D01*
X175167847Y-120387018D01*
X175215466Y-120196542D01*
X175263085Y-120101304D01*
X175358323Y-120006066D01*
X175501180Y-119958446D01*
X175596419Y-119958446D01*
X175739276Y-120006066D01*
X175786895Y-120053685D01*
X175344104Y-94242000D02*
X175248866Y-94194380D01*
X175106009Y-94194380D01*
X174963152Y-94242000D01*
X174867914Y-94337238D01*
X174820295Y-94432476D01*
X174772676Y-94622952D01*
X174772676Y-94765809D01*
X174820295Y-94956285D01*
X174867914Y-95051523D01*
X174963152Y-95146761D01*
X175106009Y-95194380D01*
X175201247Y-95194380D01*
X175344104Y-95146761D01*
X175391723Y-95099142D01*
X175391723Y-94765809D01*
X175201247Y-94765809D01*
X174748866Y-97978979D02*
X175082200Y-98978979D01*
X175415533Y-97978979D01*
X174828247Y-88895228D02*
X175590152Y-88895228D01*
X173953561Y-118340142D02*
X173905942Y-118387761D01*
X173763085Y-118435380D01*
X173667847Y-118435380D01*
X173524990Y-118387761D01*
X173429752Y-118292523D01*
X173382133Y-118197285D01*
X173334514Y-118006809D01*
X173334514Y-117863952D01*
X173382133Y-117673476D01*
X173429752Y-117578238D01*
X173524990Y-117483000D01*
X173667847Y-117435380D01*
X173763085Y-117435380D01*
X173905942Y-117483000D01*
X173953561Y-117530619D01*
X174858323Y-118435380D02*
X174382133Y-118435380D01*
X174382133Y-117435380D01*
X175191657Y-118435380D02*
X175191657Y-117435380D01*
X175763085Y-118435380D02*
X175334514Y-117863952D01*
X175763085Y-117435380D02*
X175191657Y-118006809D01*
X174828247Y-86558428D02*
X175590152Y-86558428D01*
X175209200Y-86939380D02*
X175209200Y-86177476D01*
X173786895Y-116221467D02*
X173691657Y-116173847D01*
X173548800Y-116173847D01*
X173405942Y-116221467D01*
X173310704Y-116316705D01*
X173263085Y-116411943D01*
X173215466Y-116602419D01*
X173215466Y-116745276D01*
X173263085Y-116935752D01*
X173310704Y-117030990D01*
X173405942Y-117126228D01*
X173548800Y-117173847D01*
X173644038Y-117173847D01*
X173786895Y-117126228D01*
X173834514Y-117078609D01*
X173834514Y-116745276D01*
X173644038Y-116745276D01*
X174263085Y-117173847D02*
X174263085Y-116173847D01*
X174834514Y-117173847D01*
X174834514Y-116173847D01*
X175310704Y-117173847D02*
X175310704Y-116173847D01*
X175548800Y-116173847D01*
X175691657Y-116221467D01*
X175786895Y-116316705D01*
X175834514Y-116411943D01*
X175882133Y-116602419D01*
X175882133Y-116745276D01*
X175834514Y-116935752D01*
X175786895Y-117030990D01*
X175691657Y-117126228D01*
X175548800Y-117173847D01*
X175310704Y-117173847D01*
X169733333Y-135382142D02*
X169685714Y-135429761D01*
X169542857Y-135477380D01*
X169447619Y-135477380D01*
X169304761Y-135429761D01*
X169209523Y-135334523D01*
X169161904Y-135239285D01*
X169114285Y-135048809D01*
X169114285Y-134905952D01*
X169161904Y-134715476D01*
X169209523Y-134620238D01*
X169304761Y-134525000D01*
X169447619Y-134477380D01*
X169542857Y-134477380D01*
X169685714Y-134525000D01*
X169733333Y-134572619D01*
X170685714Y-135477380D02*
X170114285Y-135477380D01*
X170400000Y-135477380D02*
X170400000Y-134477380D01*
X170304761Y-134620238D01*
X170209523Y-134715476D01*
X170114285Y-134763095D01*
X174915533Y-96455913D02*
X174582200Y-95979723D01*
X174344104Y-96455913D02*
X174344104Y-95455913D01*
X174725057Y-95455913D01*
X174820295Y-95503533D01*
X174867914Y-95551152D01*
X174915533Y-95646390D01*
X174915533Y-95789247D01*
X174867914Y-95884485D01*
X174820295Y-95932104D01*
X174725057Y-95979723D01*
X174344104Y-95979723D01*
X175248866Y-95455913D02*
X175915533Y-96455913D01*
X175915533Y-95455913D02*
X175248866Y-96455913D01*
X174320295Y-96717446D02*
X174891723Y-96717446D01*
X174606009Y-97717446D02*
X174606009Y-96717446D01*
X175129819Y-96717446D02*
X175796485Y-97717446D01*
X175796485Y-96717446D02*
X175129819Y-97717446D01*
%TO.C,D3*%
X178738304Y-131490980D02*
X178738304Y-130490980D01*
X178976400Y-130490980D01*
X179119257Y-130538600D01*
X179214495Y-130633838D01*
X179262114Y-130729076D01*
X179309733Y-130919552D01*
X179309733Y-131062409D01*
X179262114Y-131252885D01*
X179214495Y-131348123D01*
X179119257Y-131443361D01*
X178976400Y-131490980D01*
X178738304Y-131490980D01*
X179643066Y-130490980D02*
X180262114Y-130490980D01*
X179928780Y-130871933D01*
X180071638Y-130871933D01*
X180166876Y-130919552D01*
X180214495Y-130967171D01*
X180262114Y-131062409D01*
X180262114Y-131300504D01*
X180214495Y-131395742D01*
X180166876Y-131443361D01*
X180071638Y-131490980D01*
X179785923Y-131490980D01*
X179690685Y-131443361D01*
X179643066Y-131395742D01*
%TO.C,LCD1*%
X118137133Y-85491580D02*
X117660942Y-85491580D01*
X117660942Y-84491580D01*
X119041895Y-85396342D02*
X118994276Y-85443961D01*
X118851419Y-85491580D01*
X118756180Y-85491580D01*
X118613323Y-85443961D01*
X118518085Y-85348723D01*
X118470466Y-85253485D01*
X118422847Y-85063009D01*
X118422847Y-84920152D01*
X118470466Y-84729676D01*
X118518085Y-84634438D01*
X118613323Y-84539200D01*
X118756180Y-84491580D01*
X118851419Y-84491580D01*
X118994276Y-84539200D01*
X119041895Y-84586819D01*
X119470466Y-85491580D02*
X119470466Y-84491580D01*
X119708561Y-84491580D01*
X119851419Y-84539200D01*
X119946657Y-84634438D01*
X119994276Y-84729676D01*
X120041895Y-84920152D01*
X120041895Y-85063009D01*
X119994276Y-85253485D01*
X119946657Y-85348723D01*
X119851419Y-85443961D01*
X119708561Y-85491580D01*
X119470466Y-85491580D01*
X120994276Y-85491580D02*
X120422847Y-85491580D01*
X120708561Y-85491580D02*
X120708561Y-84491580D01*
X120613323Y-84634438D01*
X120518085Y-84729676D01*
X120422847Y-84777295D01*
%TO.C,C9*%
X152944533Y-98350342D02*
X152896914Y-98397961D01*
X152754057Y-98445580D01*
X152658819Y-98445580D01*
X152515961Y-98397961D01*
X152420723Y-98302723D01*
X152373104Y-98207485D01*
X152325485Y-98017009D01*
X152325485Y-97874152D01*
X152373104Y-97683676D01*
X152420723Y-97588438D01*
X152515961Y-97493200D01*
X152658819Y-97445580D01*
X152754057Y-97445580D01*
X152896914Y-97493200D01*
X152944533Y-97540819D01*
X153420723Y-98445580D02*
X153611200Y-98445580D01*
X153706438Y-98397961D01*
X153754057Y-98350342D01*
X153849295Y-98207485D01*
X153896914Y-98017009D01*
X153896914Y-97636057D01*
X153849295Y-97540819D01*
X153801676Y-97493200D01*
X153706438Y-97445580D01*
X153515961Y-97445580D01*
X153420723Y-97493200D01*
X153373104Y-97540819D01*
X153325485Y-97636057D01*
X153325485Y-97874152D01*
X153373104Y-97969390D01*
X153420723Y-98017009D01*
X153515961Y-98064628D01*
X153706438Y-98064628D01*
X153801676Y-98017009D01*
X153849295Y-97969390D01*
X153896914Y-97874152D01*
%TO.C,SW1*%
X157891666Y-88079761D02*
X158034523Y-88127380D01*
X158272619Y-88127380D01*
X158367857Y-88079761D01*
X158415476Y-88032142D01*
X158463095Y-87936904D01*
X158463095Y-87841666D01*
X158415476Y-87746428D01*
X158367857Y-87698809D01*
X158272619Y-87651190D01*
X158082142Y-87603571D01*
X157986904Y-87555952D01*
X157939285Y-87508333D01*
X157891666Y-87413095D01*
X157891666Y-87317857D01*
X157939285Y-87222619D01*
X157986904Y-87175000D01*
X158082142Y-87127380D01*
X158320238Y-87127380D01*
X158463095Y-87175000D01*
X158796428Y-87127380D02*
X159034523Y-88127380D01*
X159225000Y-87413095D01*
X159415476Y-88127380D01*
X159653571Y-87127380D01*
X160558333Y-88127380D02*
X159986904Y-88127380D01*
X160272619Y-88127380D02*
X160272619Y-87127380D01*
X160177380Y-87270238D01*
X160082142Y-87365476D01*
X159986904Y-87413095D01*
%TO.C,C25*%
X163856942Y-99652057D02*
X163904561Y-99699676D01*
X163952180Y-99842533D01*
X163952180Y-99937771D01*
X163904561Y-100080628D01*
X163809323Y-100175866D01*
X163714085Y-100223485D01*
X163523609Y-100271104D01*
X163380752Y-100271104D01*
X163190276Y-100223485D01*
X163095038Y-100175866D01*
X162999800Y-100080628D01*
X162952180Y-99937771D01*
X162952180Y-99842533D01*
X162999800Y-99699676D01*
X163047419Y-99652057D01*
X163047419Y-99271104D02*
X162999800Y-99223485D01*
X162952180Y-99128247D01*
X162952180Y-98890152D01*
X162999800Y-98794914D01*
X163047419Y-98747295D01*
X163142657Y-98699676D01*
X163237895Y-98699676D01*
X163380752Y-98747295D01*
X163952180Y-99318723D01*
X163952180Y-98699676D01*
X162952180Y-97794914D02*
X162952180Y-98271104D01*
X163428371Y-98318723D01*
X163380752Y-98271104D01*
X163333133Y-98175866D01*
X163333133Y-97937771D01*
X163380752Y-97842533D01*
X163428371Y-97794914D01*
X163523609Y-97747295D01*
X163761704Y-97747295D01*
X163856942Y-97794914D01*
X163904561Y-97842533D01*
X163952180Y-97937771D01*
X163952180Y-98175866D01*
X163904561Y-98271104D01*
X163856942Y-98318723D01*
%TO.C,R3*%
X161504333Y-121323380D02*
X161171000Y-120847190D01*
X160932904Y-121323380D02*
X160932904Y-120323380D01*
X161313857Y-120323380D01*
X161409095Y-120371000D01*
X161456714Y-120418619D01*
X161504333Y-120513857D01*
X161504333Y-120656714D01*
X161456714Y-120751952D01*
X161409095Y-120799571D01*
X161313857Y-120847190D01*
X160932904Y-120847190D01*
X161837666Y-120323380D02*
X162456714Y-120323380D01*
X162123380Y-120704333D01*
X162266238Y-120704333D01*
X162361476Y-120751952D01*
X162409095Y-120799571D01*
X162456714Y-120894809D01*
X162456714Y-121132904D01*
X162409095Y-121228142D01*
X162361476Y-121275761D01*
X162266238Y-121323380D01*
X161980523Y-121323380D01*
X161885285Y-121275761D01*
X161837666Y-121228142D01*
%TO.C,C15*%
X148556742Y-113514142D02*
X148509123Y-113561761D01*
X148366266Y-113609380D01*
X148271028Y-113609380D01*
X148128171Y-113561761D01*
X148032933Y-113466523D01*
X147985314Y-113371285D01*
X147937695Y-113180809D01*
X147937695Y-113037952D01*
X147985314Y-112847476D01*
X148032933Y-112752238D01*
X148128171Y-112657000D01*
X148271028Y-112609380D01*
X148366266Y-112609380D01*
X148509123Y-112657000D01*
X148556742Y-112704619D01*
X149509123Y-113609380D02*
X148937695Y-113609380D01*
X149223409Y-113609380D02*
X149223409Y-112609380D01*
X149128171Y-112752238D01*
X149032933Y-112847476D01*
X148937695Y-112895095D01*
X150413885Y-112609380D02*
X149937695Y-112609380D01*
X149890076Y-113085571D01*
X149937695Y-113037952D01*
X150032933Y-112990333D01*
X150271028Y-112990333D01*
X150366266Y-113037952D01*
X150413885Y-113085571D01*
X150461504Y-113180809D01*
X150461504Y-113418904D01*
X150413885Y-113514142D01*
X150366266Y-113561761D01*
X150271028Y-113609380D01*
X150032933Y-113609380D01*
X149937695Y-113561761D01*
X149890076Y-113514142D01*
%TO.C,C10*%
X165478142Y-91498142D02*
X165430523Y-91545761D01*
X165287666Y-91593380D01*
X165192428Y-91593380D01*
X165049571Y-91545761D01*
X164954333Y-91450523D01*
X164906714Y-91355285D01*
X164859095Y-91164809D01*
X164859095Y-91021952D01*
X164906714Y-90831476D01*
X164954333Y-90736238D01*
X165049571Y-90641000D01*
X165192428Y-90593380D01*
X165287666Y-90593380D01*
X165430523Y-90641000D01*
X165478142Y-90688619D01*
X166430523Y-91593380D02*
X165859095Y-91593380D01*
X166144809Y-91593380D02*
X166144809Y-90593380D01*
X166049571Y-90736238D01*
X165954333Y-90831476D01*
X165859095Y-90879095D01*
X167049571Y-90593380D02*
X167144809Y-90593380D01*
X167240047Y-90641000D01*
X167287666Y-90688619D01*
X167335285Y-90783857D01*
X167382904Y-90974333D01*
X167382904Y-91212428D01*
X167335285Y-91402904D01*
X167287666Y-91498142D01*
X167240047Y-91545761D01*
X167144809Y-91593380D01*
X167049571Y-91593380D01*
X166954333Y-91545761D01*
X166906714Y-91498142D01*
X166859095Y-91402904D01*
X166811476Y-91212428D01*
X166811476Y-90974333D01*
X166859095Y-90783857D01*
X166906714Y-90688619D01*
X166954333Y-90641000D01*
X167049571Y-90593380D01*
%TO.C,C16*%
X148556742Y-115342942D02*
X148509123Y-115390561D01*
X148366266Y-115438180D01*
X148271028Y-115438180D01*
X148128171Y-115390561D01*
X148032933Y-115295323D01*
X147985314Y-115200085D01*
X147937695Y-115009609D01*
X147937695Y-114866752D01*
X147985314Y-114676276D01*
X148032933Y-114581038D01*
X148128171Y-114485800D01*
X148271028Y-114438180D01*
X148366266Y-114438180D01*
X148509123Y-114485800D01*
X148556742Y-114533419D01*
X149509123Y-115438180D02*
X148937695Y-115438180D01*
X149223409Y-115438180D02*
X149223409Y-114438180D01*
X149128171Y-114581038D01*
X149032933Y-114676276D01*
X148937695Y-114723895D01*
X150366266Y-114438180D02*
X150175790Y-114438180D01*
X150080552Y-114485800D01*
X150032933Y-114533419D01*
X149937695Y-114676276D01*
X149890076Y-114866752D01*
X149890076Y-115247704D01*
X149937695Y-115342942D01*
X149985314Y-115390561D01*
X150080552Y-115438180D01*
X150271028Y-115438180D01*
X150366266Y-115390561D01*
X150413885Y-115342942D01*
X150461504Y-115247704D01*
X150461504Y-115009609D01*
X150413885Y-114914371D01*
X150366266Y-114866752D01*
X150271028Y-114819133D01*
X150080552Y-114819133D01*
X149985314Y-114866752D01*
X149937695Y-114914371D01*
X149890076Y-115009609D01*
%TO.C,C18*%
X164660342Y-121007142D02*
X164612723Y-121054761D01*
X164469866Y-121102380D01*
X164374628Y-121102380D01*
X164231771Y-121054761D01*
X164136533Y-120959523D01*
X164088914Y-120864285D01*
X164041295Y-120673809D01*
X164041295Y-120530952D01*
X164088914Y-120340476D01*
X164136533Y-120245238D01*
X164231771Y-120150000D01*
X164374628Y-120102380D01*
X164469866Y-120102380D01*
X164612723Y-120150000D01*
X164660342Y-120197619D01*
X165612723Y-121102380D02*
X165041295Y-121102380D01*
X165327009Y-121102380D02*
X165327009Y-120102380D01*
X165231771Y-120245238D01*
X165136533Y-120340476D01*
X165041295Y-120388095D01*
X166184152Y-120530952D02*
X166088914Y-120483333D01*
X166041295Y-120435714D01*
X165993676Y-120340476D01*
X165993676Y-120292857D01*
X166041295Y-120197619D01*
X166088914Y-120150000D01*
X166184152Y-120102380D01*
X166374628Y-120102380D01*
X166469866Y-120150000D01*
X166517485Y-120197619D01*
X166565104Y-120292857D01*
X166565104Y-120340476D01*
X166517485Y-120435714D01*
X166469866Y-120483333D01*
X166374628Y-120530952D01*
X166184152Y-120530952D01*
X166088914Y-120578571D01*
X166041295Y-120626190D01*
X165993676Y-120721428D01*
X165993676Y-120911904D01*
X166041295Y-121007142D01*
X166088914Y-121054761D01*
X166184152Y-121102380D01*
X166374628Y-121102380D01*
X166469866Y-121054761D01*
X166517485Y-121007142D01*
X166565104Y-120911904D01*
X166565104Y-120721428D01*
X166517485Y-120626190D01*
X166469866Y-120578571D01*
X166374628Y-120530952D01*
%TO.C,C23*%
X148556742Y-120829342D02*
X148509123Y-120876961D01*
X148366266Y-120924580D01*
X148271028Y-120924580D01*
X148128171Y-120876961D01*
X148032933Y-120781723D01*
X147985314Y-120686485D01*
X147937695Y-120496009D01*
X147937695Y-120353152D01*
X147985314Y-120162676D01*
X148032933Y-120067438D01*
X148128171Y-119972200D01*
X148271028Y-119924580D01*
X148366266Y-119924580D01*
X148509123Y-119972200D01*
X148556742Y-120019819D01*
X148937695Y-120019819D02*
X148985314Y-119972200D01*
X149080552Y-119924580D01*
X149318647Y-119924580D01*
X149413885Y-119972200D01*
X149461504Y-120019819D01*
X149509123Y-120115057D01*
X149509123Y-120210295D01*
X149461504Y-120353152D01*
X148890076Y-120924580D01*
X149509123Y-120924580D01*
X149842457Y-119924580D02*
X150461504Y-119924580D01*
X150128171Y-120305533D01*
X150271028Y-120305533D01*
X150366266Y-120353152D01*
X150413885Y-120400771D01*
X150461504Y-120496009D01*
X150461504Y-120734104D01*
X150413885Y-120829342D01*
X150366266Y-120876961D01*
X150271028Y-120924580D01*
X149985314Y-120924580D01*
X149890076Y-120876961D01*
X149842457Y-120829342D01*
D11*
%TO.C,D1*%
X175712380Y-131559133D02*
X174712380Y-131559133D01*
X174712380Y-131178180D01*
X174760000Y-131082942D01*
X174807619Y-131035323D01*
X174902857Y-130987704D01*
X175045714Y-130987704D01*
X175140952Y-131035323D01*
X175188571Y-131082942D01*
X175236190Y-131178180D01*
X175236190Y-131559133D01*
X174712380Y-130654371D02*
X175712380Y-130416276D01*
X174998095Y-130225800D01*
X175712380Y-130035323D01*
X174712380Y-129797228D01*
X175712380Y-128844847D02*
X175236190Y-129178180D01*
X175712380Y-129416276D02*
X174712380Y-129416276D01*
X174712380Y-129035323D01*
X174760000Y-128940085D01*
X174807619Y-128892466D01*
X174902857Y-128844847D01*
X175045714Y-128844847D01*
X175140952Y-128892466D01*
X175188571Y-128940085D01*
X175236190Y-129035323D01*
X175236190Y-129416276D01*
D10*
%TO.C,C26*%
X152882142Y-87442857D02*
X152929761Y-87490476D01*
X152977380Y-87633333D01*
X152977380Y-87728571D01*
X152929761Y-87871428D01*
X152834523Y-87966666D01*
X152739285Y-88014285D01*
X152548809Y-88061904D01*
X152405952Y-88061904D01*
X152215476Y-88014285D01*
X152120238Y-87966666D01*
X152025000Y-87871428D01*
X151977380Y-87728571D01*
X151977380Y-87633333D01*
X152025000Y-87490476D01*
X152072619Y-87442857D01*
X152072619Y-87061904D02*
X152025000Y-87014285D01*
X151977380Y-86919047D01*
X151977380Y-86680952D01*
X152025000Y-86585714D01*
X152072619Y-86538095D01*
X152167857Y-86490476D01*
X152263095Y-86490476D01*
X152405952Y-86538095D01*
X152977380Y-87109523D01*
X152977380Y-86490476D01*
X151977380Y-85633333D02*
X151977380Y-85823809D01*
X152025000Y-85919047D01*
X152072619Y-85966666D01*
X152215476Y-86061904D01*
X152405952Y-86109523D01*
X152786904Y-86109523D01*
X152882142Y-86061904D01*
X152929761Y-86014285D01*
X152977380Y-85919047D01*
X152977380Y-85728571D01*
X152929761Y-85633333D01*
X152882142Y-85585714D01*
X152786904Y-85538095D01*
X152548809Y-85538095D01*
X152453571Y-85585714D01*
X152405952Y-85633333D01*
X152358333Y-85728571D01*
X152358333Y-85919047D01*
X152405952Y-86014285D01*
X152453571Y-86061904D01*
X152548809Y-86109523D01*
%TO.C,R2*%
X169108333Y-92752380D02*
X168775000Y-92276190D01*
X168536904Y-92752380D02*
X168536904Y-91752380D01*
X168917857Y-91752380D01*
X169013095Y-91800000D01*
X169060714Y-91847619D01*
X169108333Y-91942857D01*
X169108333Y-92085714D01*
X169060714Y-92180952D01*
X169013095Y-92228571D01*
X168917857Y-92276190D01*
X168536904Y-92276190D01*
X169489285Y-91847619D02*
X169536904Y-91800000D01*
X169632142Y-91752380D01*
X169870238Y-91752380D01*
X169965476Y-91800000D01*
X170013095Y-91847619D01*
X170060714Y-91942857D01*
X170060714Y-92038095D01*
X170013095Y-92180952D01*
X169441666Y-92752380D01*
X170060714Y-92752380D01*
%TO.C,C21*%
X162980642Y-125541066D02*
X163028261Y-125588685D01*
X163075880Y-125731542D01*
X163075880Y-125826780D01*
X163028261Y-125969637D01*
X162933023Y-126064875D01*
X162837785Y-126112494D01*
X162647309Y-126160113D01*
X162504452Y-126160113D01*
X162313976Y-126112494D01*
X162218738Y-126064875D01*
X162123500Y-125969637D01*
X162075880Y-125826780D01*
X162075880Y-125731542D01*
X162123500Y-125588685D01*
X162171119Y-125541066D01*
X162171119Y-125160113D02*
X162123500Y-125112494D01*
X162075880Y-125017256D01*
X162075880Y-124779161D01*
X162123500Y-124683923D01*
X162171119Y-124636304D01*
X162266357Y-124588685D01*
X162361595Y-124588685D01*
X162504452Y-124636304D01*
X163075880Y-125207732D01*
X163075880Y-124588685D01*
X163075880Y-123636304D02*
X163075880Y-124207732D01*
X163075880Y-123922018D02*
X162075880Y-123922018D01*
X162218738Y-124017256D01*
X162313976Y-124112494D01*
X162361595Y-124207732D01*
%TO.C,C22*%
X148556742Y-119000542D02*
X148509123Y-119048161D01*
X148366266Y-119095780D01*
X148271028Y-119095780D01*
X148128171Y-119048161D01*
X148032933Y-118952923D01*
X147985314Y-118857685D01*
X147937695Y-118667209D01*
X147937695Y-118524352D01*
X147985314Y-118333876D01*
X148032933Y-118238638D01*
X148128171Y-118143400D01*
X148271028Y-118095780D01*
X148366266Y-118095780D01*
X148509123Y-118143400D01*
X148556742Y-118191019D01*
X148937695Y-118191019D02*
X148985314Y-118143400D01*
X149080552Y-118095780D01*
X149318647Y-118095780D01*
X149413885Y-118143400D01*
X149461504Y-118191019D01*
X149509123Y-118286257D01*
X149509123Y-118381495D01*
X149461504Y-118524352D01*
X148890076Y-119095780D01*
X149509123Y-119095780D01*
X149890076Y-118191019D02*
X149937695Y-118143400D01*
X150032933Y-118095780D01*
X150271028Y-118095780D01*
X150366266Y-118143400D01*
X150413885Y-118191019D01*
X150461504Y-118286257D01*
X150461504Y-118381495D01*
X150413885Y-118524352D01*
X149842457Y-119095780D01*
X150461504Y-119095780D01*
%TO.C,R6*%
X181460380Y-125642666D02*
X180984190Y-125976000D01*
X181460380Y-126214095D02*
X180460380Y-126214095D01*
X180460380Y-125833142D01*
X180508000Y-125737904D01*
X180555619Y-125690285D01*
X180650857Y-125642666D01*
X180793714Y-125642666D01*
X180888952Y-125690285D01*
X180936571Y-125737904D01*
X180984190Y-125833142D01*
X180984190Y-126214095D01*
X180460380Y-124785523D02*
X180460380Y-124976000D01*
X180508000Y-125071238D01*
X180555619Y-125118857D01*
X180698476Y-125214095D01*
X180888952Y-125261714D01*
X181269904Y-125261714D01*
X181365142Y-125214095D01*
X181412761Y-125166476D01*
X181460380Y-125071238D01*
X181460380Y-124880761D01*
X181412761Y-124785523D01*
X181365142Y-124737904D01*
X181269904Y-124690285D01*
X181031809Y-124690285D01*
X180936571Y-124737904D01*
X180888952Y-124785523D01*
X180841333Y-124880761D01*
X180841333Y-125071238D01*
X180888952Y-125166476D01*
X180936571Y-125214095D01*
X181031809Y-125261714D01*
%TO.C,C8*%
X166765242Y-125541066D02*
X166812861Y-125588685D01*
X166860480Y-125731542D01*
X166860480Y-125826780D01*
X166812861Y-125969638D01*
X166717623Y-126064876D01*
X166622385Y-126112495D01*
X166431909Y-126160114D01*
X166289052Y-126160114D01*
X166098576Y-126112495D01*
X166003338Y-126064876D01*
X165908100Y-125969638D01*
X165860480Y-125826780D01*
X165860480Y-125731542D01*
X165908100Y-125588685D01*
X165955719Y-125541066D01*
X166289052Y-124969638D02*
X166241433Y-125064876D01*
X166193814Y-125112495D01*
X166098576Y-125160114D01*
X166050957Y-125160114D01*
X165955719Y-125112495D01*
X165908100Y-125064876D01*
X165860480Y-124969638D01*
X165860480Y-124779161D01*
X165908100Y-124683923D01*
X165955719Y-124636304D01*
X166050957Y-124588685D01*
X166098576Y-124588685D01*
X166193814Y-124636304D01*
X166241433Y-124683923D01*
X166289052Y-124779161D01*
X166289052Y-124969638D01*
X166336671Y-125064876D01*
X166384290Y-125112495D01*
X166479528Y-125160114D01*
X166670004Y-125160114D01*
X166765242Y-125112495D01*
X166812861Y-125064876D01*
X166860480Y-124969638D01*
X166860480Y-124779161D01*
X166812861Y-124683923D01*
X166765242Y-124636304D01*
X166670004Y-124588685D01*
X166479528Y-124588685D01*
X166384290Y-124636304D01*
X166336671Y-124683923D01*
X166289052Y-124779161D01*
%TO.C,C14*%
X171205142Y-112021857D02*
X171252761Y-112069476D01*
X171300380Y-112212333D01*
X171300380Y-112307571D01*
X171252761Y-112450428D01*
X171157523Y-112545666D01*
X171062285Y-112593285D01*
X170871809Y-112640904D01*
X170728952Y-112640904D01*
X170538476Y-112593285D01*
X170443238Y-112545666D01*
X170348000Y-112450428D01*
X170300380Y-112307571D01*
X170300380Y-112212333D01*
X170348000Y-112069476D01*
X170395619Y-112021857D01*
X171300380Y-111069476D02*
X171300380Y-111640904D01*
X171300380Y-111355190D02*
X170300380Y-111355190D01*
X170443238Y-111450428D01*
X170538476Y-111545666D01*
X170586095Y-111640904D01*
X170633714Y-110212333D02*
X171300380Y-110212333D01*
X170252761Y-110450428D02*
X170967047Y-110688523D01*
X170967047Y-110069476D01*
%TO.C,SW2*%
X167991666Y-88104761D02*
X168134523Y-88152380D01*
X168372619Y-88152380D01*
X168467857Y-88104761D01*
X168515476Y-88057142D01*
X168563095Y-87961904D01*
X168563095Y-87866666D01*
X168515476Y-87771428D01*
X168467857Y-87723809D01*
X168372619Y-87676190D01*
X168182142Y-87628571D01*
X168086904Y-87580952D01*
X168039285Y-87533333D01*
X167991666Y-87438095D01*
X167991666Y-87342857D01*
X168039285Y-87247619D01*
X168086904Y-87200000D01*
X168182142Y-87152380D01*
X168420238Y-87152380D01*
X168563095Y-87200000D01*
X168896428Y-87152380D02*
X169134523Y-88152380D01*
X169325000Y-87438095D01*
X169515476Y-88152380D01*
X169753571Y-87152380D01*
X170086904Y-87247619D02*
X170134523Y-87200000D01*
X170229761Y-87152380D01*
X170467857Y-87152380D01*
X170563095Y-87200000D01*
X170610714Y-87247619D01*
X170658333Y-87342857D01*
X170658333Y-87438095D01*
X170610714Y-87580952D01*
X170039285Y-88152380D01*
X170658333Y-88152380D01*
%TO.C,C2*%
X171384933Y-116689142D02*
X171337314Y-116736761D01*
X171194457Y-116784380D01*
X171099219Y-116784380D01*
X170956361Y-116736761D01*
X170861123Y-116641523D01*
X170813504Y-116546285D01*
X170765885Y-116355809D01*
X170765885Y-116212952D01*
X170813504Y-116022476D01*
X170861123Y-115927238D01*
X170956361Y-115832000D01*
X171099219Y-115784380D01*
X171194457Y-115784380D01*
X171337314Y-115832000D01*
X171384933Y-115879619D01*
X171765885Y-115879619D02*
X171813504Y-115832000D01*
X171908742Y-115784380D01*
X172146838Y-115784380D01*
X172242076Y-115832000D01*
X172289695Y-115879619D01*
X172337314Y-115974857D01*
X172337314Y-116070095D01*
X172289695Y-116212952D01*
X171718266Y-116784380D01*
X172337314Y-116784380D01*
%TO.C,C5*%
X172543742Y-120283266D02*
X172591361Y-120330885D01*
X172638980Y-120473742D01*
X172638980Y-120568980D01*
X172591361Y-120711838D01*
X172496123Y-120807076D01*
X172400885Y-120854695D01*
X172210409Y-120902314D01*
X172067552Y-120902314D01*
X171877076Y-120854695D01*
X171781838Y-120807076D01*
X171686600Y-120711838D01*
X171638980Y-120568980D01*
X171638980Y-120473742D01*
X171686600Y-120330885D01*
X171734219Y-120283266D01*
X171638980Y-119378504D02*
X171638980Y-119854695D01*
X172115171Y-119902314D01*
X172067552Y-119854695D01*
X172019933Y-119759457D01*
X172019933Y-119521361D01*
X172067552Y-119426123D01*
X172115171Y-119378504D01*
X172210409Y-119330885D01*
X172448504Y-119330885D01*
X172543742Y-119378504D01*
X172591361Y-119426123D01*
X172638980Y-119521361D01*
X172638980Y-119759457D01*
X172591361Y-119854695D01*
X172543742Y-119902314D01*
%TO.C,R10*%
X164202380Y-90317857D02*
X163726190Y-90651190D01*
X164202380Y-90889285D02*
X163202380Y-90889285D01*
X163202380Y-90508333D01*
X163250000Y-90413095D01*
X163297619Y-90365476D01*
X163392857Y-90317857D01*
X163535714Y-90317857D01*
X163630952Y-90365476D01*
X163678571Y-90413095D01*
X163726190Y-90508333D01*
X163726190Y-90889285D01*
X164202380Y-89365476D02*
X164202380Y-89936904D01*
X164202380Y-89651190D02*
X163202380Y-89651190D01*
X163345238Y-89746428D01*
X163440476Y-89841666D01*
X163488095Y-89936904D01*
X163202380Y-88746428D02*
X163202380Y-88651190D01*
X163250000Y-88555952D01*
X163297619Y-88508333D01*
X163392857Y-88460714D01*
X163583333Y-88413095D01*
X163821428Y-88413095D01*
X164011904Y-88460714D01*
X164107142Y-88508333D01*
X164154761Y-88555952D01*
X164202380Y-88651190D01*
X164202380Y-88746428D01*
X164154761Y-88841666D01*
X164107142Y-88889285D01*
X164011904Y-88936904D01*
X163821428Y-88984523D01*
X163583333Y-88984523D01*
X163392857Y-88936904D01*
X163297619Y-88889285D01*
X163250000Y-88841666D01*
X163202380Y-88746428D01*
%TO.C,C24*%
X156964142Y-121228142D02*
X156916523Y-121275761D01*
X156773666Y-121323380D01*
X156678428Y-121323380D01*
X156535571Y-121275761D01*
X156440333Y-121180523D01*
X156392714Y-121085285D01*
X156345095Y-120894809D01*
X156345095Y-120751952D01*
X156392714Y-120561476D01*
X156440333Y-120466238D01*
X156535571Y-120371000D01*
X156678428Y-120323380D01*
X156773666Y-120323380D01*
X156916523Y-120371000D01*
X156964142Y-120418619D01*
X157345095Y-120418619D02*
X157392714Y-120371000D01*
X157487952Y-120323380D01*
X157726047Y-120323380D01*
X157821285Y-120371000D01*
X157868904Y-120418619D01*
X157916523Y-120513857D01*
X157916523Y-120609095D01*
X157868904Y-120751952D01*
X157297476Y-121323380D01*
X157916523Y-121323380D01*
X158773666Y-120656714D02*
X158773666Y-121323380D01*
X158535571Y-120275761D02*
X158297476Y-120990047D01*
X158916523Y-120990047D01*
%TO.C,C13*%
X171078142Y-105544857D02*
X171125761Y-105592476D01*
X171173380Y-105735333D01*
X171173380Y-105830571D01*
X171125761Y-105973428D01*
X171030523Y-106068666D01*
X170935285Y-106116285D01*
X170744809Y-106163904D01*
X170601952Y-106163904D01*
X170411476Y-106116285D01*
X170316238Y-106068666D01*
X170221000Y-105973428D01*
X170173380Y-105830571D01*
X170173380Y-105735333D01*
X170221000Y-105592476D01*
X170268619Y-105544857D01*
X171173380Y-104592476D02*
X171173380Y-105163904D01*
X171173380Y-104878190D02*
X170173380Y-104878190D01*
X170316238Y-104973428D01*
X170411476Y-105068666D01*
X170459095Y-105163904D01*
X170173380Y-104259142D02*
X170173380Y-103640095D01*
X170554333Y-103973428D01*
X170554333Y-103830571D01*
X170601952Y-103735333D01*
X170649571Y-103687714D01*
X170744809Y-103640095D01*
X170982904Y-103640095D01*
X171078142Y-103687714D01*
X171125761Y-103735333D01*
X171173380Y-103830571D01*
X171173380Y-104116285D01*
X171125761Y-104211523D01*
X171078142Y-104259142D01*
%TO.C,R8*%
X154681180Y-103824066D02*
X154204990Y-104157400D01*
X154681180Y-104395495D02*
X153681180Y-104395495D01*
X153681180Y-104014542D01*
X153728800Y-103919304D01*
X153776419Y-103871685D01*
X153871657Y-103824066D01*
X154014514Y-103824066D01*
X154109752Y-103871685D01*
X154157371Y-103919304D01*
X154204990Y-104014542D01*
X154204990Y-104395495D01*
X154109752Y-103252638D02*
X154062133Y-103347876D01*
X154014514Y-103395495D01*
X153919276Y-103443114D01*
X153871657Y-103443114D01*
X153776419Y-103395495D01*
X153728800Y-103347876D01*
X153681180Y-103252638D01*
X153681180Y-103062161D01*
X153728800Y-102966923D01*
X153776419Y-102919304D01*
X153871657Y-102871685D01*
X153919276Y-102871685D01*
X154014514Y-102919304D01*
X154062133Y-102966923D01*
X154109752Y-103062161D01*
X154109752Y-103252638D01*
X154157371Y-103347876D01*
X154204990Y-103395495D01*
X154300228Y-103443114D01*
X154490704Y-103443114D01*
X154585942Y-103395495D01*
X154633561Y-103347876D01*
X154681180Y-103252638D01*
X154681180Y-103062161D01*
X154633561Y-102966923D01*
X154585942Y-102919304D01*
X154490704Y-102871685D01*
X154300228Y-102871685D01*
X154204990Y-102919304D01*
X154157371Y-102966923D01*
X154109752Y-103062161D01*
%TO.C,C7*%
X172670742Y-128716066D02*
X172718361Y-128763685D01*
X172765980Y-128906542D01*
X172765980Y-129001780D01*
X172718361Y-129144638D01*
X172623123Y-129239876D01*
X172527885Y-129287495D01*
X172337409Y-129335114D01*
X172194552Y-129335114D01*
X172004076Y-129287495D01*
X171908838Y-129239876D01*
X171813600Y-129144638D01*
X171765980Y-129001780D01*
X171765980Y-128906542D01*
X171813600Y-128763685D01*
X171861219Y-128716066D01*
X171765980Y-128382733D02*
X171765980Y-127716066D01*
X172765980Y-128144638D01*
%TO.C,C1*%
X175693342Y-122721666D02*
X175740961Y-122769285D01*
X175788580Y-122912142D01*
X175788580Y-123007380D01*
X175740961Y-123150238D01*
X175645723Y-123245476D01*
X175550485Y-123293095D01*
X175360009Y-123340714D01*
X175217152Y-123340714D01*
X175026676Y-123293095D01*
X174931438Y-123245476D01*
X174836200Y-123150238D01*
X174788580Y-123007380D01*
X174788580Y-122912142D01*
X174836200Y-122769285D01*
X174883819Y-122721666D01*
X175788580Y-121769285D02*
X175788580Y-122340714D01*
X175788580Y-122055000D02*
X174788580Y-122055000D01*
X174931438Y-122150238D01*
X175026676Y-122245476D01*
X175074295Y-122340714D01*
%TO.C,R11*%
X172582142Y-89727380D02*
X172248809Y-89251190D01*
X172010714Y-89727380D02*
X172010714Y-88727380D01*
X172391666Y-88727380D01*
X172486904Y-88775000D01*
X172534523Y-88822619D01*
X172582142Y-88917857D01*
X172582142Y-89060714D01*
X172534523Y-89155952D01*
X172486904Y-89203571D01*
X172391666Y-89251190D01*
X172010714Y-89251190D01*
X173534523Y-89727380D02*
X172963095Y-89727380D01*
X173248809Y-89727380D02*
X173248809Y-88727380D01*
X173153571Y-88870238D01*
X173058333Y-88965476D01*
X172963095Y-89013095D01*
X174486904Y-89727380D02*
X173915476Y-89727380D01*
X174201190Y-89727380D02*
X174201190Y-88727380D01*
X174105952Y-88870238D01*
X174010714Y-88965476D01*
X173915476Y-89013095D01*
%TO.C,R7*%
X154833580Y-100598266D02*
X154357390Y-100931600D01*
X154833580Y-101169695D02*
X153833580Y-101169695D01*
X153833580Y-100788742D01*
X153881200Y-100693504D01*
X153928819Y-100645885D01*
X154024057Y-100598266D01*
X154166914Y-100598266D01*
X154262152Y-100645885D01*
X154309771Y-100693504D01*
X154357390Y-100788742D01*
X154357390Y-101169695D01*
X153833580Y-100264933D02*
X153833580Y-99598266D01*
X154833580Y-100026838D01*
%TO.C,R4*%
X148556742Y-117266980D02*
X148223409Y-116790790D01*
X147985313Y-117266980D02*
X147985313Y-116266980D01*
X148366266Y-116266980D01*
X148461504Y-116314600D01*
X148509123Y-116362219D01*
X148556742Y-116457457D01*
X148556742Y-116600314D01*
X148509123Y-116695552D01*
X148461504Y-116743171D01*
X148366266Y-116790790D01*
X147985313Y-116790790D01*
X149413885Y-116600314D02*
X149413885Y-117266980D01*
X149175789Y-116219361D02*
X148937694Y-116933647D01*
X149556742Y-116933647D01*
%TO.C,C3*%
X174321742Y-128817666D02*
X174369361Y-128865285D01*
X174416980Y-129008142D01*
X174416980Y-129103380D01*
X174369361Y-129246238D01*
X174274123Y-129341476D01*
X174178885Y-129389095D01*
X173988409Y-129436714D01*
X173845552Y-129436714D01*
X173655076Y-129389095D01*
X173559838Y-129341476D01*
X173464600Y-129246238D01*
X173416980Y-129103380D01*
X173416980Y-129008142D01*
X173464600Y-128865285D01*
X173512219Y-128817666D01*
X173416980Y-128484333D02*
X173416980Y-127865285D01*
X173797933Y-128198619D01*
X173797933Y-128055761D01*
X173845552Y-127960523D01*
X173893171Y-127912904D01*
X173988409Y-127865285D01*
X174226504Y-127865285D01*
X174321742Y-127912904D01*
X174369361Y-127960523D01*
X174416980Y-128055761D01*
X174416980Y-128341476D01*
X174369361Y-128436714D01*
X174321742Y-128484333D01*
%TO.C,C19*%
X167184342Y-118219457D02*
X167231961Y-118267076D01*
X167279580Y-118409933D01*
X167279580Y-118505171D01*
X167231961Y-118648028D01*
X167136723Y-118743266D01*
X167041485Y-118790885D01*
X166851009Y-118838504D01*
X166708152Y-118838504D01*
X166517676Y-118790885D01*
X166422438Y-118743266D01*
X166327200Y-118648028D01*
X166279580Y-118505171D01*
X166279580Y-118409933D01*
X166327200Y-118267076D01*
X166374819Y-118219457D01*
X167279580Y-117267076D02*
X167279580Y-117838504D01*
X167279580Y-117552790D02*
X166279580Y-117552790D01*
X166422438Y-117648028D01*
X166517676Y-117743266D01*
X166565295Y-117838504D01*
X167279580Y-116790885D02*
X167279580Y-116600409D01*
X167231961Y-116505171D01*
X167184342Y-116457552D01*
X167041485Y-116362314D01*
X166851009Y-116314695D01*
X166470057Y-116314695D01*
X166374819Y-116362314D01*
X166327200Y-116409933D01*
X166279580Y-116505171D01*
X166279580Y-116695647D01*
X166327200Y-116790885D01*
X166374819Y-116838504D01*
X166470057Y-116886123D01*
X166708152Y-116886123D01*
X166803390Y-116838504D01*
X166851009Y-116790885D01*
X166898628Y-116695647D01*
X166898628Y-116505171D01*
X166851009Y-116409933D01*
X166803390Y-116362314D01*
X166708152Y-116314695D01*
%TO.C,C17*%
X158058142Y-118244857D02*
X158105761Y-118292476D01*
X158153380Y-118435333D01*
X158153380Y-118530571D01*
X158105761Y-118673428D01*
X158010523Y-118768666D01*
X157915285Y-118816285D01*
X157724809Y-118863904D01*
X157581952Y-118863904D01*
X157391476Y-118816285D01*
X157296238Y-118768666D01*
X157201000Y-118673428D01*
X157153380Y-118530571D01*
X157153380Y-118435333D01*
X157201000Y-118292476D01*
X157248619Y-118244857D01*
X158153380Y-117292476D02*
X158153380Y-117863904D01*
X158153380Y-117578190D02*
X157153380Y-117578190D01*
X157296238Y-117673428D01*
X157391476Y-117768666D01*
X157439095Y-117863904D01*
X157153380Y-116959142D02*
X157153380Y-116292476D01*
X158153380Y-116721047D01*
%TO.C,C12*%
X159021542Y-100204542D02*
X158973923Y-100252161D01*
X158831066Y-100299780D01*
X158735828Y-100299780D01*
X158592971Y-100252161D01*
X158497733Y-100156923D01*
X158450114Y-100061685D01*
X158402495Y-99871209D01*
X158402495Y-99728352D01*
X158450114Y-99537876D01*
X158497733Y-99442638D01*
X158592971Y-99347400D01*
X158735828Y-99299780D01*
X158831066Y-99299780D01*
X158973923Y-99347400D01*
X159021542Y-99395019D01*
X159973923Y-100299780D02*
X159402495Y-100299780D01*
X159688209Y-100299780D02*
X159688209Y-99299780D01*
X159592971Y-99442638D01*
X159497733Y-99537876D01*
X159402495Y-99585495D01*
X160354876Y-99395019D02*
X160402495Y-99347400D01*
X160497733Y-99299780D01*
X160735828Y-99299780D01*
X160831066Y-99347400D01*
X160878685Y-99395019D01*
X160926304Y-99490257D01*
X160926304Y-99585495D01*
X160878685Y-99728352D01*
X160307257Y-100299780D01*
X160926304Y-100299780D01*
%TO.C,D2*%
X176503104Y-131440180D02*
X176503104Y-130440180D01*
X176741200Y-130440180D01*
X176884057Y-130487800D01*
X176979295Y-130583038D01*
X177026914Y-130678276D01*
X177074533Y-130868752D01*
X177074533Y-131011609D01*
X177026914Y-131202085D01*
X176979295Y-131297323D01*
X176884057Y-131392561D01*
X176741200Y-131440180D01*
X176503104Y-131440180D01*
X177455485Y-130535419D02*
X177503104Y-130487800D01*
X177598342Y-130440180D01*
X177836438Y-130440180D01*
X177931676Y-130487800D01*
X177979295Y-130535419D01*
X178026914Y-130630657D01*
X178026914Y-130725895D01*
X177979295Y-130868752D01*
X177407866Y-131440180D01*
X178026914Y-131440180D01*
%TO.C,C6*%
X171384933Y-118416342D02*
X171337314Y-118463961D01*
X171194457Y-118511580D01*
X171099219Y-118511580D01*
X170956361Y-118463961D01*
X170861123Y-118368723D01*
X170813504Y-118273485D01*
X170765885Y-118083009D01*
X170765885Y-117940152D01*
X170813504Y-117749676D01*
X170861123Y-117654438D01*
X170956361Y-117559200D01*
X171099219Y-117511580D01*
X171194457Y-117511580D01*
X171337314Y-117559200D01*
X171384933Y-117606819D01*
X172242076Y-117511580D02*
X172051600Y-117511580D01*
X171956361Y-117559200D01*
X171908742Y-117606819D01*
X171813504Y-117749676D01*
X171765885Y-117940152D01*
X171765885Y-118321104D01*
X171813504Y-118416342D01*
X171861123Y-118463961D01*
X171956361Y-118511580D01*
X172146838Y-118511580D01*
X172242076Y-118463961D01*
X172289695Y-118416342D01*
X172337314Y-118321104D01*
X172337314Y-118083009D01*
X172289695Y-117987771D01*
X172242076Y-117940152D01*
X172146838Y-117892533D01*
X171956361Y-117892533D01*
X171861123Y-117940152D01*
X171813504Y-117987771D01*
X171765885Y-118083009D01*
%TO.C,C11*%
X154782142Y-90667857D02*
X154829761Y-90715476D01*
X154877380Y-90858333D01*
X154877380Y-90953571D01*
X154829761Y-91096428D01*
X154734523Y-91191666D01*
X154639285Y-91239285D01*
X154448809Y-91286904D01*
X154305952Y-91286904D01*
X154115476Y-91239285D01*
X154020238Y-91191666D01*
X153925000Y-91096428D01*
X153877380Y-90953571D01*
X153877380Y-90858333D01*
X153925000Y-90715476D01*
X153972619Y-90667857D01*
X154877380Y-89715476D02*
X154877380Y-90286904D01*
X154877380Y-90001190D02*
X153877380Y-90001190D01*
X154020238Y-90096428D01*
X154115476Y-90191666D01*
X154163095Y-90286904D01*
X154877380Y-88763095D02*
X154877380Y-89334523D01*
X154877380Y-89048809D02*
X153877380Y-89048809D01*
X154020238Y-89144047D01*
X154115476Y-89239285D01*
X154163095Y-89334523D01*
%TO.C,C4*%
X164872942Y-125541066D02*
X164920561Y-125588685D01*
X164968180Y-125731542D01*
X164968180Y-125826780D01*
X164920561Y-125969638D01*
X164825323Y-126064876D01*
X164730085Y-126112495D01*
X164539609Y-126160114D01*
X164396752Y-126160114D01*
X164206276Y-126112495D01*
X164111038Y-126064876D01*
X164015800Y-125969638D01*
X163968180Y-125826780D01*
X163968180Y-125731542D01*
X164015800Y-125588685D01*
X164063419Y-125541066D01*
X164301514Y-124683923D02*
X164968180Y-124683923D01*
X163920561Y-124922019D02*
X164634847Y-125160114D01*
X164634847Y-124541066D01*
%TO.C,C20*%
X148556742Y-122658142D02*
X148509123Y-122705761D01*
X148366266Y-122753380D01*
X148271028Y-122753380D01*
X148128171Y-122705761D01*
X148032933Y-122610523D01*
X147985314Y-122515285D01*
X147937695Y-122324809D01*
X147937695Y-122181952D01*
X147985314Y-121991476D01*
X148032933Y-121896238D01*
X148128171Y-121801000D01*
X148271028Y-121753380D01*
X148366266Y-121753380D01*
X148509123Y-121801000D01*
X148556742Y-121848619D01*
X148937695Y-121848619D02*
X148985314Y-121801000D01*
X149080552Y-121753380D01*
X149318647Y-121753380D01*
X149413885Y-121801000D01*
X149461504Y-121848619D01*
X149509123Y-121943857D01*
X149509123Y-122039095D01*
X149461504Y-122181952D01*
X148890076Y-122753380D01*
X149509123Y-122753380D01*
X150128171Y-121753380D02*
X150223409Y-121753380D01*
X150318647Y-121801000D01*
X150366266Y-121848619D01*
X150413885Y-121943857D01*
X150461504Y-122134333D01*
X150461504Y-122372428D01*
X150413885Y-122562904D01*
X150366266Y-122658142D01*
X150318647Y-122705761D01*
X150223409Y-122753380D01*
X150128171Y-122753380D01*
X150032933Y-122705761D01*
X149985314Y-122658142D01*
X149937695Y-122562904D01*
X149890076Y-122372428D01*
X149890076Y-122134333D01*
X149937695Y-121943857D01*
X149985314Y-121848619D01*
X150032933Y-121801000D01*
X150128171Y-121753380D01*
%TO.C,R5*%
X179115980Y-125642666D02*
X178639790Y-125976000D01*
X179115980Y-126214095D02*
X178115980Y-126214095D01*
X178115980Y-125833142D01*
X178163600Y-125737904D01*
X178211219Y-125690285D01*
X178306457Y-125642666D01*
X178449314Y-125642666D01*
X178544552Y-125690285D01*
X178592171Y-125737904D01*
X178639790Y-125833142D01*
X178639790Y-126214095D01*
X178115980Y-124737904D02*
X178115980Y-125214095D01*
X178592171Y-125261714D01*
X178544552Y-125214095D01*
X178496933Y-125118857D01*
X178496933Y-124880761D01*
X178544552Y-124785523D01*
X178592171Y-124737904D01*
X178687409Y-124690285D01*
X178925504Y-124690285D01*
X179020742Y-124737904D01*
X179068361Y-124785523D01*
X179115980Y-124880761D01*
X179115980Y-125118857D01*
X179068361Y-125214095D01*
X179020742Y-125261714D01*
%TO.C,C27*%
X152857142Y-96817857D02*
X152904761Y-96865476D01*
X152952380Y-97008333D01*
X152952380Y-97103571D01*
X152904761Y-97246428D01*
X152809523Y-97341666D01*
X152714285Y-97389285D01*
X152523809Y-97436904D01*
X152380952Y-97436904D01*
X152190476Y-97389285D01*
X152095238Y-97341666D01*
X152000000Y-97246428D01*
X151952380Y-97103571D01*
X151952380Y-97008333D01*
X152000000Y-96865476D01*
X152047619Y-96817857D01*
X152047619Y-96436904D02*
X152000000Y-96389285D01*
X151952380Y-96294047D01*
X151952380Y-96055952D01*
X152000000Y-95960714D01*
X152047619Y-95913095D01*
X152142857Y-95865476D01*
X152238095Y-95865476D01*
X152380952Y-95913095D01*
X152952380Y-96484523D01*
X152952380Y-95865476D01*
X151952380Y-95532142D02*
X151952380Y-94865476D01*
X152952380Y-95294047D01*
D12*
%TO.C,U1*%
X170840000Y-122566000D02*
X170840000Y-120766000D01*
X167620000Y-120766000D02*
X167620000Y-123216000D01*
%TO.C,D3*%
X178843000Y-127978000D02*
X178843000Y-130263000D01*
X180313000Y-130263000D02*
X180313000Y-127978000D01*
X178843000Y-130263000D02*
X180313000Y-130263000D01*
%TO.C,U4*%
X159385000Y-88753000D02*
X161335000Y-88753000D01*
X159385000Y-93873000D02*
X157435000Y-93873000D01*
X159385000Y-88753000D02*
X155935000Y-88753000D01*
X159385000Y-93873000D02*
X161335000Y-93873000D01*
%TO.C,LCD1*%
X151112000Y-129969000D02*
X117112000Y-129969000D01*
X119912000Y-123969000D02*
X126712000Y-123969000D01*
X146312000Y-118969000D02*
X146312000Y-129969000D01*
X119912000Y-129969000D02*
X119912000Y-123969000D01*
X126712000Y-123969000D02*
X126712000Y-118969000D01*
X117112000Y-130969000D02*
X117112000Y-83969000D01*
X151112000Y-83969000D02*
X151112000Y-130969000D01*
X117112000Y-83969000D02*
X151112000Y-83969000D01*
X117112000Y-130969000D02*
X151112000Y-130969000D01*
X126712000Y-118969000D02*
X146312000Y-118969000D01*
%TO.C,C9*%
X154942000Y-97041580D02*
X154942000Y-96760420D01*
X153922000Y-97041580D02*
X153922000Y-96760420D01*
%TO.C,R1*%
X168774242Y-129779500D02*
X169248758Y-129779500D01*
X168774242Y-130824500D02*
X169248758Y-130824500D01*
%TO.C,SW1*%
X160625000Y-86625000D02*
X157825000Y-86625000D01*
%TO.C,J3*%
X177009000Y-88942000D02*
X176019000Y-88942000D01*
X178459000Y-90742000D02*
X177009000Y-90742000D01*
X177009000Y-90742000D02*
X177009000Y-88942000D01*
X181279000Y-89472000D02*
X181279000Y-86042000D01*
X177009000Y-84772000D02*
X177009000Y-86572000D01*
X178459000Y-84772000D02*
X177009000Y-84772000D01*
%TO.C,C25*%
X162939000Y-96152580D02*
X162939000Y-95871420D01*
X163959000Y-96152580D02*
X163959000Y-95871420D01*
%TO.C,R3*%
X161433742Y-122823500D02*
X161908258Y-122823500D01*
X161433742Y-121778500D02*
X161908258Y-121778500D01*
%TO.C,C15*%
X153810580Y-113667000D02*
X153529420Y-113667000D01*
X153810580Y-112647000D02*
X153529420Y-112647000D01*
%TO.C,C10*%
X165980420Y-92061000D02*
X166261580Y-92061000D01*
X165980420Y-93081000D02*
X166261580Y-93081000D01*
%TO.C,C16*%
X153810580Y-114425000D02*
X153529420Y-114425000D01*
X153810580Y-115445000D02*
X153529420Y-115445000D01*
%TO.C,C18*%
X165494580Y-121791000D02*
X165213420Y-121791000D01*
X165494580Y-122811000D02*
X165213420Y-122811000D01*
%TO.C,C23*%
X153529420Y-119886000D02*
X153810580Y-119886000D01*
X153529420Y-120906000D02*
X153810580Y-120906000D01*
%TO.C,D1*%
X171513500Y-131037000D02*
X173798500Y-131037000D01*
X173798500Y-129567000D02*
X171513500Y-129567000D01*
X173798500Y-131037000D02*
X173798500Y-129567000D01*
%TO.C,C26*%
X152017000Y-89775420D02*
X152017000Y-90056580D01*
X153037000Y-89775420D02*
X153037000Y-90056580D01*
%TO.C,J1*%
X177009000Y-99082000D02*
X176019000Y-99082000D01*
X181279000Y-99612000D02*
X181279000Y-93682000D01*
X178459000Y-100882000D02*
X177009000Y-100882000D01*
X177009000Y-92412000D02*
X177009000Y-94212000D01*
X177009000Y-100882000D02*
X177009000Y-99082000D01*
X178459000Y-92412000D02*
X177009000Y-92412000D01*
D10*
%TO.C,U3*%
X160552000Y-94845000D02*
X160552000Y-95145000D01*
X157202000Y-98195000D02*
X157202000Y-97895000D01*
X160552000Y-97970000D02*
X161777000Y-97970000D01*
X160552000Y-98195000D02*
X160552000Y-97970000D01*
X160552000Y-94845000D02*
X157202000Y-94845000D01*
X160552000Y-98195000D02*
X157202000Y-98195000D01*
X157202000Y-94845000D02*
X157202000Y-95145000D01*
D12*
%TO.C,R2*%
X168895500Y-89678742D02*
X168895500Y-90153258D01*
X169940500Y-89678742D02*
X169940500Y-90153258D01*
%TO.C,J2*%
X177009000Y-122853000D02*
X177009000Y-121053000D01*
X181279000Y-121583000D02*
X181279000Y-115653000D01*
X178459000Y-122853000D02*
X177009000Y-122853000D01*
X177009000Y-114383000D02*
X177009000Y-116183000D01*
X177009000Y-121053000D02*
X176019000Y-121053000D01*
X178459000Y-114383000D02*
X177009000Y-114383000D01*
%TO.C,C21*%
X163070000Y-127902580D02*
X163070000Y-127621420D01*
X162050000Y-127902580D02*
X162050000Y-127621420D01*
%TO.C,C22*%
X153529420Y-119001000D02*
X153810580Y-119001000D01*
X153529420Y-117981000D02*
X153810580Y-117981000D01*
%TO.C,R6*%
X179055500Y-125238742D02*
X179055500Y-125713258D01*
X180100500Y-125238742D02*
X180100500Y-125713258D01*
%TO.C,C8*%
X166880000Y-127949580D02*
X166880000Y-127668420D01*
X165860000Y-127949580D02*
X165860000Y-127668420D01*
%TO.C,C14*%
X168908000Y-111238420D02*
X168908000Y-111519580D01*
X169928000Y-111238420D02*
X169928000Y-111519580D01*
%TO.C,U7*%
X166566000Y-99372000D02*
X166566000Y-99112000D01*
X172016000Y-99112000D02*
X173691000Y-99112000D01*
X169291000Y-99372000D02*
X172016000Y-99372000D01*
X169291000Y-93922000D02*
X166566000Y-93922000D01*
X169291000Y-93922000D02*
X172016000Y-93922000D01*
X166566000Y-93922000D02*
X166566000Y-94182000D01*
X172016000Y-99372000D02*
X172016000Y-99112000D01*
X172016000Y-93922000D02*
X172016000Y-94182000D01*
X169291000Y-99372000D02*
X166566000Y-99372000D01*
%TO.C,SW2*%
X170725000Y-86625000D02*
X167925000Y-86625000D01*
%TO.C,C2*%
X168703420Y-116842000D02*
X168984580Y-116842000D01*
X168703420Y-115822000D02*
X168984580Y-115822000D01*
%TO.C,J4*%
X175869000Y-102869000D02*
X177869000Y-102869000D01*
X179769000Y-112269000D02*
X181669000Y-112269000D01*
X181669000Y-112269000D02*
X181669000Y-102869000D01*
X175869000Y-112269000D02*
X177869000Y-112269000D01*
X179769000Y-102869000D02*
X181669000Y-102869000D01*
%TO.C,C5*%
X171641000Y-122695580D02*
X171641000Y-122414420D01*
X172661000Y-122695580D02*
X172661000Y-122414420D01*
%TO.C,R10*%
X165437742Y-89597500D02*
X165912258Y-89597500D01*
X165437742Y-88552500D02*
X165912258Y-88552500D01*
%TO.C,C24*%
X157466420Y-122811000D02*
X157747580Y-122811000D01*
X157466420Y-121791000D02*
X157747580Y-121791000D01*
%TO.C,C13*%
X168781000Y-104761420D02*
X168781000Y-105042580D01*
X169801000Y-104761420D02*
X169801000Y-105042580D01*
%TO.C,R8*%
X152385500Y-103869258D02*
X152385500Y-103394742D01*
X153430500Y-103869258D02*
X153430500Y-103394742D01*
%TO.C,C7*%
X171641000Y-125877420D02*
X171641000Y-126158580D01*
X172661000Y-125877420D02*
X172661000Y-126158580D01*
%TO.C,C1*%
X174439000Y-122695580D02*
X174439000Y-122414420D01*
X173419000Y-122695580D02*
X173419000Y-122414420D01*
%TO.C,R11*%
X172137742Y-90227500D02*
X172612258Y-90227500D01*
X172137742Y-91272500D02*
X172612258Y-91272500D01*
%TO.C,U6*%
X157043000Y-129227000D02*
X154843000Y-129227000D01*
X157043000Y-129227000D02*
X159243000Y-129227000D01*
X157043000Y-123757000D02*
X153443000Y-123757000D01*
X157043000Y-123757000D02*
X159243000Y-123757000D01*
%TO.C,U2*%
X170840000Y-127820000D02*
X170840000Y-125370000D01*
X167620000Y-126020000D02*
X167620000Y-127820000D01*
%TO.C,R7*%
X152385500Y-100567258D02*
X152385500Y-100092742D01*
X153430500Y-100567258D02*
X153430500Y-100092742D01*
%TO.C,R4*%
X153432742Y-117235500D02*
X153907258Y-117235500D01*
X153432742Y-116190500D02*
X153907258Y-116190500D01*
%TO.C,U5*%
X157384000Y-112679000D02*
X157384000Y-114019000D01*
X166654000Y-112679000D02*
X165704000Y-112679000D01*
X166654000Y-103409000D02*
X166654000Y-102459000D01*
X156434000Y-102459000D02*
X157384000Y-102459000D01*
X156434000Y-103409000D02*
X156434000Y-102459000D01*
X166654000Y-111729000D02*
X166654000Y-112679000D01*
X156434000Y-112679000D02*
X157384000Y-112679000D01*
X166654000Y-102459000D02*
X165704000Y-102459000D01*
X156434000Y-111729000D02*
X156434000Y-112679000D01*
%TO.C,C3*%
X173419000Y-125877420D02*
X173419000Y-126158580D01*
X174439000Y-125877420D02*
X174439000Y-126158580D01*
%TO.C,C19*%
X165864000Y-117461420D02*
X165864000Y-117742580D01*
X164844000Y-117461420D02*
X164844000Y-117742580D01*
%TO.C,C17*%
X158621000Y-117742580D02*
X158621000Y-117461420D01*
X159641000Y-117742580D02*
X159641000Y-117461420D01*
%TO.C,C12*%
X156731580Y-99312000D02*
X156450420Y-99312000D01*
X156731580Y-100332000D02*
X156450420Y-100332000D01*
%TO.C,D2*%
X176557000Y-127978000D02*
X176557000Y-130263000D01*
X178027000Y-130263000D02*
X178027000Y-127978000D01*
X176557000Y-130263000D02*
X178027000Y-130263000D01*
%TO.C,Y1*%
X164306000Y-119125000D02*
X164306000Y-115825000D01*
X164306000Y-115825000D02*
X160306000Y-115825000D01*
%TO.C,C6*%
X168703420Y-118620000D02*
X168984580Y-118620000D01*
X168703420Y-117600000D02*
X168984580Y-117600000D01*
%TO.C,C11*%
X154942000Y-93204420D02*
X154942000Y-93485580D01*
X153922000Y-93204420D02*
X153922000Y-93485580D01*
%TO.C,C4*%
X164975000Y-127949580D02*
X164975000Y-127668420D01*
X163955000Y-127949580D02*
X163955000Y-127668420D01*
%TO.C,C20*%
X153529420Y-121791000D02*
X153810580Y-121791000D01*
X153529420Y-122811000D02*
X153810580Y-122811000D01*
%TO.C,R5*%
X177814500Y-125238742D02*
X177814500Y-125713258D01*
X176769500Y-125238742D02*
X176769500Y-125713258D01*
%TO.C,C27*%
X151965000Y-93134420D02*
X151965000Y-93415580D01*
X152985000Y-93134420D02*
X152985000Y-93415580D01*
%TD*%
M02*
