M48
; DRILL file {KiCad 7.0.1} date Sun Apr 30 17:39:36 2023
; FORMAT={-:-/ absolute / inch / decimal}
; #@! TF.CreationDate,2023-04-30T17:39:36+08:00
; #@! TF.GenerationSoftware,Kicad,Pcbnew,7.0.1
; #@! TF.FileFunction,Plated,1,2,PTH
FMAT,2
INCH
; #@! TA.AperFunction,Plated,PTH,ViaDrill
T1C0.0118
; #@! TA.AperFunction,Plated,PTH,ComponentDrill
T2C0.0236
%
G90
G05
T1
X4.8543Y-4.928
X4.8547Y-4.9626
X4.8547Y-4.9996
X4.8547Y-5.0362
X4.8835Y-4.928
X4.8839Y-4.9626
X4.8839Y-4.9996
X4.8839Y-5.0362
X4.9126Y-4.928
X4.913Y-4.9626
X4.913Y-4.9996
X4.913Y-5.0362
X4.9417Y-4.928
X4.9421Y-4.9626
X4.9421Y-4.9996
X4.9421Y-5.0362
X4.9709Y-4.928
X4.9713Y-4.9626
X4.9713Y-4.9996
X4.9713Y-5.0362
X5.2961Y-4.6469
X5.361Y-4.4945
X5.4217Y-4.7819
X5.5445Y-5.0622
X5.5476Y-4.6496
X5.5484Y-3.9685
X5.5764Y-3.8941
X5.5787Y-4.8803
X5.5791Y-4.6315
X5.6079Y-4.8803
X5.6106Y-3.8181
X5.6106Y-4.65
X5.637Y-4.8803
X5.6386Y-3.7358
X5.6421Y-4.6315
X5.6661Y-4.8803
X5.6953Y-4.8803
X5.7402Y-3.9724
X5.7406Y-4.0071
X5.7406Y-4.0441
X5.7406Y-4.0807
X5.7575Y-4.5232
X5.7579Y-4.5579
X5.7579Y-4.5949
X5.7579Y-4.6315
X5.7693Y-3.9724
X5.7697Y-4.0071
X5.7697Y-4.0441
X5.7697Y-4.0807
X5.7866Y-4.5232
X5.787Y-4.5579
X5.787Y-4.5949
X5.787Y-4.6315
X5.7878Y-4.8803
X5.7984Y-3.9724
X5.7988Y-4.0071
X5.7988Y-4.0441
X5.7988Y-4.0807
X5.8157Y-4.5232
X5.8161Y-4.5579
X5.8161Y-4.5949
X5.8161Y-4.6315
X5.8169Y-4.8803
X5.8276Y-3.9724
X5.828Y-4.0071
X5.828Y-4.0441
X5.828Y-4.0807
X5.8449Y-4.5232
X5.8453Y-4.5579
X5.8453Y-4.5949
X5.8453Y-4.6315
X5.8461Y-4.8803
X5.8567Y-3.9724
X5.8571Y-4.0071
X5.8571Y-4.0441
X5.8571Y-4.0807
X5.874Y-4.5232
X5.8744Y-4.5579
X5.8744Y-4.5949
X5.8744Y-4.6315
X5.8752Y-4.8803
X5.9043Y-4.8803
X5.9693Y-4.8
X5.9961Y-3.6067
X6.0512Y-3.5575
X6.0512Y-3.9476
X6.1236Y-4.1441
X6.1413Y-4.7693
X6.1433Y-3.6563
X6.1563Y-3.8642
X6.1965Y-4.2268
X6.1969Y-4.2614
X6.1969Y-4.2984
X6.1969Y-4.335
X6.2043Y-3.4024
X6.211Y-4.4965
X6.2256Y-4.2268
X6.226Y-4.2614
X6.226Y-4.2984
X6.226Y-4.335
X6.228Y-5.0598
X6.252Y-3.9488
X6.2547Y-4.2268
X6.2551Y-4.2614
X6.2551Y-4.2984
X6.2551Y-4.335
X6.2575Y-3.4846
X6.2575Y-3.5213
X6.272Y-4.9646
X6.2839Y-4.2268
X6.2843Y-4.2614
X6.2843Y-4.2984
X6.2843Y-4.335
X6.2866Y-3.4846
X6.2866Y-3.5213
X6.2898Y-5.1413
X6.2898Y-5.178
X6.2909Y-4.5685
X6.2909Y-4.6051
X6.313Y-4.2268
X6.3134Y-4.2614
X6.3134Y-4.2984
X6.3134Y-4.335
X6.3157Y-3.4846
X6.3157Y-3.5213
X6.3189Y-5.1413
X6.3189Y-5.178
X6.3201Y-4.5685
X6.3201Y-4.6051
X6.3213Y-4.9217
X6.322Y-4.8567
X6.3224Y-4.9795
X6.3449Y-3.4846
X6.3449Y-3.5213
X6.348Y-5.1413
X6.348Y-5.178
X6.3492Y-4.5685
X6.3492Y-4.6051
X6.3697Y-3.7018
X6.374Y-3.4846
X6.374Y-3.5213
X6.3772Y-5.1413
X6.3772Y-5.178
X6.3783Y-4.5685
X6.3783Y-4.6051
X6.3819Y-5.0961
X6.3824Y-4.7687
X6.4011Y-3.7037
X6.4063Y-5.1413
X6.4063Y-5.178
X6.4075Y-4.5685
X6.4075Y-4.6051
X6.4248Y-3.7274
X6.4248Y-3.7785
X6.4413Y-4.5154
X6.4547Y-4.7687
X6.4722Y-3.8051
X6.4839Y-4.5079
X6.5028Y-3.9913
X6.5039Y-3.6571
X6.5094Y-4.9224
X6.5098Y-4.9776
X6.5102Y-4.8567
X6.5161Y-4.1772
X6.5161Y-4.2063
X6.5161Y-4.2354
X6.5161Y-4.2646
X6.5161Y-4.2937
X6.5264Y-4.0244
X6.5303Y-4.5047
X6.5368Y-3.7793
X6.5528Y-4.1772
X6.5528Y-4.2063
X6.5528Y-4.2354
X6.5528Y-4.2646
X6.5528Y-4.2937
X6.5689Y-4.5035
X6.589Y-3.4028
X6.5906Y-4.3823
X6.6071Y-4.4768
X6.6114Y-4.4146
X6.6398Y-4.4378
X6.6839Y-4.7004
X6.728Y-4.6547
X6.7571Y-5.0795
X6.7669Y-4.8055
X6.7799Y-3.4016
X6.7839Y-4.8886
X6.7839Y-4.9252
X6.7858Y-4.2087
X6.7872Y-4.2435
X6.7886Y-4.5949
X6.7909Y-4.137
X6.8067Y-3.9016
X6.813Y-4.8886
X6.813Y-4.9252
X6.8143Y-4.4192
X6.816Y-4.3878
X6.8421Y-4.8886
X6.8421Y-4.9252
X6.8713Y-3.585
X6.8713Y-4.8886
X6.8713Y-4.9252
X6.8866Y-3.752
X6.8874Y-4.0335
X6.9004Y-4.8886
X6.9004Y-4.9252
X6.9217Y-4.2244
X6.937Y-4.8161
X6.9852Y-3.8673
X6.9996Y-3.4461
X6.9996Y-3.4827
X7.0228Y-3.9933
X7.0287Y-3.4461
X7.0287Y-3.4827
X7.0352Y-3.8673
X7.045Y-4.7693
X7.0579Y-3.4461
X7.0579Y-3.4827
X7.0665Y-4.7453
X7.087Y-3.4461
X7.087Y-3.4827
X7.0925Y-3.931
X7.1004Y-4.3783
X7.1012Y-4.665
X7.1012Y-5.0854
X7.1161Y-3.4461
X7.1161Y-3.4827
X7.2673Y-4.3972
X7.2677Y-4.4319
X7.2677Y-4.4689
X7.2677Y-4.5055
X7.2965Y-4.3972
X7.2969Y-4.4319
X7.2969Y-4.4689
X7.2969Y-4.5055
X7.3256Y-4.3972
X7.326Y-4.4319
X7.326Y-4.4689
X7.326Y-4.5055
X7.35Y-4.8547
X7.35Y-4.8839
X7.35Y-4.913
X7.35Y-4.9421
X7.35Y-4.9713
X7.3547Y-4.3972
X7.3551Y-4.4319
X7.3551Y-4.4689
X7.3551Y-4.5055
X7.3839Y-4.3972
X7.3843Y-4.4319
X7.3843Y-4.4689
X7.3843Y-4.5055
X7.3866Y-4.8547
X7.3866Y-4.8839
X7.3866Y-4.913
X7.3866Y-4.9421
X7.3866Y-4.9713
T2
G00X7.165Y-4.2913
M15
G01X7.2083Y-4.2913
M16
G05
G00X7.165Y-4.6315
M15
G01X7.2083Y-4.6315
M16
G05
G00X7.3394Y-4.2913
M15
G01X7.363Y-4.2913
M16
G05
G00X7.3394Y-4.6315
M15
G01X7.363Y-4.6315
M16
G05
T0
M30
