%TF.GenerationSoftware,KiCad,Pcbnew,7.0.1*%
%TF.CreationDate,2023-05-20T02:05:48+08:00*%
%TF.ProjectId,Debugger-PCB,44656275-6767-4657-922d-5043422e6b69,rev?*%
%TF.SameCoordinates,Original*%
%TF.FileFunction,Copper,L2,Bot*%
%TF.FilePolarity,Positive*%
%FSLAX46Y46*%
G04 Gerber Fmt 4.6, Leading zero omitted, Abs format (unit mm)*
G04 Created by KiCad (PCBNEW 7.0.1) date 2023-05-20 02:05:48*
%MOMM*%
%LPD*%
G01*
G04 APERTURE LIST*
%TA.AperFunction,ComponentPad*%
%ADD10O,2.100000X1.000000*%
%TD*%
%TA.AperFunction,ComponentPad*%
%ADD11O,1.600000X1.000000*%
%TD*%
%TA.AperFunction,ViaPad*%
%ADD12C,0.600000*%
%TD*%
%TA.AperFunction,Conductor*%
%ADD13C,0.300000*%
%TD*%
%TA.AperFunction,Conductor*%
%ADD14C,0.500000*%
%TD*%
%TA.AperFunction,Conductor*%
%ADD15C,0.203200*%
%TD*%
G04 APERTURE END LIST*
D10*
%TO.P,J2,S1,SHIELD*%
%TO.N,GND*%
X182540000Y-117640000D03*
D11*
X186720000Y-117640000D03*
D10*
X182540000Y-109000000D03*
D11*
X186720000Y-109000000D03*
%TD*%
D12*
%TO.N,+5V*%
X180350000Y-111210000D03*
X180370000Y-129170000D03*
X180150000Y-99848400D03*
X180370000Y-118490000D03*
%TO.N,GND*%
X149200000Y-114890000D03*
X166440000Y-106840000D03*
X162113900Y-121125500D03*
X148770000Y-102720000D03*
X186070000Y-111690000D03*
X166440000Y-106100000D03*
X187620000Y-124050000D03*
X180010000Y-88460000D03*
X161270000Y-116040000D03*
X149210000Y-115770000D03*
X172310000Y-125100000D03*
X178530000Y-87530000D03*
X162010000Y-116040000D03*
X149970000Y-123960000D03*
X160360000Y-108240000D03*
X187620000Y-124790000D03*
X160420000Y-89440000D03*
X147730000Y-117640000D03*
X159680000Y-88510000D03*
X186690000Y-126270000D03*
X158130000Y-107360000D03*
X147730000Y-116710000D03*
X143180000Y-123960000D03*
X147750000Y-123960000D03*
X158880000Y-110110000D03*
X143920000Y-123960000D03*
X148470000Y-115770000D03*
X165510000Y-106840000D03*
X159790000Y-116040000D03*
X159790000Y-116970000D03*
X160530000Y-116970000D03*
X160500000Y-131520000D03*
X148760000Y-100900000D03*
X146550000Y-103650000D03*
X159680000Y-89440000D03*
X124780000Y-125170000D03*
X161240000Y-130590000D03*
X149210000Y-117640000D03*
X146990000Y-115770000D03*
X148030000Y-103650000D03*
X185340000Y-113510000D03*
X146550000Y-101780000D03*
X157390000Y-107360000D03*
X123300000Y-125170000D03*
X186690000Y-124050000D03*
X187560000Y-112570000D03*
X161980000Y-131520000D03*
X173050000Y-124170000D03*
X124790000Y-126050000D03*
X178530000Y-88460000D03*
X125530000Y-126050000D03*
X148030000Y-101780000D03*
X180010000Y-87530000D03*
X162010000Y-116970000D03*
X123310000Y-127920000D03*
X159620000Y-108240000D03*
X124050000Y-126990000D03*
X161900000Y-88510000D03*
X174530000Y-124170000D03*
X148770000Y-101780000D03*
X187620000Y-123310000D03*
X173050000Y-125100000D03*
X186690000Y-123310000D03*
X159610000Y-107360000D03*
X159760000Y-131520000D03*
X124790000Y-126990000D03*
X125530000Y-127920000D03*
X180750000Y-88460000D03*
X161900000Y-89440000D03*
X184590000Y-111690000D03*
X146250000Y-116710000D03*
X145810000Y-101780000D03*
X158140000Y-109180000D03*
X142440000Y-123960000D03*
X148020000Y-100900000D03*
X162720000Y-131520000D03*
X184600000Y-112570000D03*
X186690000Y-124790000D03*
X125520000Y-125170000D03*
X160580000Y-123360000D03*
X158140000Y-110110000D03*
X166440000Y-108320000D03*
X165510000Y-106100000D03*
X159760000Y-130590000D03*
X126270000Y-127920000D03*
X147290000Y-101780000D03*
X160590000Y-126480000D03*
X165510000Y-108320000D03*
X187620000Y-125530000D03*
X187620000Y-126270000D03*
X145800000Y-100900000D03*
X148770000Y-103650000D03*
X160500000Y-130590000D03*
X179270000Y-87530000D03*
X125530000Y-126990000D03*
X145810000Y-102720000D03*
X144660000Y-123960000D03*
X124790000Y-127920000D03*
X162720000Y-130590000D03*
X149210000Y-116710000D03*
X147280000Y-100900000D03*
X145810000Y-103650000D03*
X177790000Y-87530000D03*
X162750000Y-116970000D03*
X147720000Y-114890000D03*
X161240000Y-131520000D03*
X161160000Y-89440000D03*
X160560000Y-125010000D03*
X166440000Y-109060000D03*
X158880000Y-108240000D03*
X186080000Y-114440000D03*
X187560000Y-113510000D03*
X165510000Y-107580000D03*
X158140000Y-108240000D03*
X161270000Y-116970000D03*
X166440000Y-107580000D03*
X186820000Y-114440000D03*
X147290000Y-102720000D03*
X165360000Y-123360000D03*
X160360000Y-109180000D03*
X123310000Y-126050000D03*
X160420000Y-88510000D03*
X157400000Y-110110000D03*
X146250000Y-117640000D03*
X148470000Y-117640000D03*
X161160000Y-88510000D03*
X165340000Y-125030000D03*
X146990000Y-117640000D03*
X179270000Y-88460000D03*
X158880000Y-109180000D03*
X147010000Y-123960000D03*
X158940000Y-88510000D03*
X148460000Y-114890000D03*
X157400000Y-108240000D03*
X173790000Y-124170000D03*
X177790000Y-88460000D03*
X165510000Y-109060000D03*
X185340000Y-112570000D03*
X149230000Y-123960000D03*
X124050000Y-127920000D03*
X165350000Y-126430000D03*
X157400000Y-109180000D03*
X175270000Y-125100000D03*
X185340000Y-114440000D03*
X158870000Y-107360000D03*
X148490000Y-123960000D03*
X174530000Y-125100000D03*
X160350000Y-107360000D03*
X187560000Y-114440000D03*
X147290000Y-103650000D03*
X159620000Y-110110000D03*
X126260000Y-125170000D03*
X186820000Y-113510000D03*
X186690000Y-125530000D03*
X148470000Y-116710000D03*
X158940000Y-89440000D03*
X173790000Y-125100000D03*
X146240000Y-114890000D03*
X184600000Y-114440000D03*
X124040000Y-125170000D03*
X126270000Y-126050000D03*
X160530000Y-116040000D03*
X163950000Y-121125500D03*
X172310000Y-124170000D03*
X161980000Y-130590000D03*
X146990000Y-116710000D03*
X180750000Y-87530000D03*
X160360000Y-110110000D03*
X186080000Y-113510000D03*
X146550000Y-102720000D03*
X123310000Y-126990000D03*
X146250000Y-115770000D03*
X146980000Y-114890000D03*
X185330000Y-111690000D03*
X147730000Y-115770000D03*
X159620000Y-109180000D03*
X148030000Y-102720000D03*
X186080000Y-112570000D03*
X162750000Y-116040000D03*
X186820000Y-112570000D03*
X175270000Y-124170000D03*
X146540000Y-100900000D03*
X126270000Y-126990000D03*
X141700000Y-123960000D03*
X187550000Y-111690000D03*
X124050000Y-126050000D03*
X184600000Y-113510000D03*
X186810000Y-111690000D03*
%TO.N,VCC*%
X171630000Y-129020000D03*
X172890000Y-99100000D03*
X153700000Y-100270000D03*
X174530000Y-91060000D03*
X172430000Y-116710000D03*
X153700000Y-90360000D03*
X174920000Y-95300000D03*
X176200000Y-122330000D03*
X172490000Y-105080000D03*
X175810000Y-107300000D03*
X171880000Y-122060000D03*
X155990000Y-121140000D03*
%TO.N,LCD_3V3*%
X162100000Y-129440000D03*
X151620000Y-121920000D03*
X156370000Y-98150000D03*
X156040000Y-92870000D03*
X152300000Y-91610000D03*
X159310000Y-126100000D03*
%TO.N,/MCU/TXD*%
X178942792Y-121141100D03*
X169770000Y-119390000D03*
%TO.N,/MCU/RXD*%
X179490000Y-120530000D03*
X170890000Y-118230000D03*
%TO.N,/MCU/SWCLK*%
X158800000Y-100300000D03*
X155540000Y-105260000D03*
%TO.N,/MCU/LCD_A0*%
X136170000Y-114160000D03*
X134520000Y-118030000D03*
%TO.N,/TFT/T_YM*%
X140910000Y-118100000D03*
X140930000Y-100800000D03*
%TO.N,/TFT/T_XM*%
X141640000Y-98910000D03*
X141710000Y-117640000D03*
%TO.N,/TFT/T_YP*%
X142510000Y-118110000D03*
X142510000Y-96980000D03*
%TO.N,/TFT/T_XP*%
X143310000Y-117640000D03*
X143220000Y-94890000D03*
%TO.N,/MCU/MCU_RXD*%
X172360000Y-106900000D03*
X173126929Y-111448900D03*
%TO.N,/MCU/MCU_TXD*%
X172394408Y-107784492D03*
X173084422Y-112247272D03*
%TO.N,/MCU/CAN_TX*%
X165170000Y-101380000D03*
X165200000Y-92890000D03*
%TO.N,/MCU/CAN_RX*%
X165770000Y-102220000D03*
X166035000Y-95995000D03*
%TO.N,/TFT/LED-*%
X137710000Y-121460000D03*
X140830000Y-128580000D03*
%TO.N,/MCU/TOUCH_CLK*%
X162588006Y-94073900D03*
X164690000Y-114500000D03*
%TO.N,/MCU/TOUCH_MISO*%
X163191100Y-95975000D03*
X165870000Y-114420000D03*
%TO.N,/MCU/TOUCH_MOSI*%
X163191100Y-94675560D03*
X166850000Y-114390000D03*
%TO.N,/MCU/TOUCH_CS*%
X163610000Y-114690000D03*
X161790000Y-94025000D03*
%TO.N,/MCU/TOUCH_INT*%
X164393800Y-96650000D03*
X167820000Y-113710000D03*
%TO.N,/Flash/SPI2_SCK*%
X177425000Y-98230000D03*
X174940000Y-102450000D03*
%TO.N,/Flash/SPI2_MOSI*%
X178380000Y-101430000D03*
X178695000Y-98230000D03*
%TO.N,/MCU/LCD_LED*%
X157760000Y-114210000D03*
X158190000Y-128520000D03*
%TO.N,/Key&LED/KEY1*%
X167400000Y-111310000D03*
X157590000Y-86420000D03*
%TO.N,/Key&LED/KEY2*%
X167360000Y-86430000D03*
X167930000Y-112130000D03*
%TO.N,/Key&LED/KEY3*%
X172210000Y-86400000D03*
X168650000Y-112720000D03*
%TD*%
D13*
%TO.N,+5V*%
X180150000Y-99848400D02*
X180350000Y-100048400D01*
D14*
X180370000Y-129170000D02*
X180370000Y-118490000D01*
D13*
X180350000Y-100048400D02*
X180350000Y-111210000D01*
D14*
X180350000Y-111210000D02*
X180350000Y-118470000D01*
X180350000Y-118470000D02*
X180370000Y-118490000D01*
D13*
%TO.N,VCC*%
X173590000Y-105080000D02*
X172490000Y-105080000D01*
X173776929Y-115363071D02*
X173776929Y-109333071D01*
X153700000Y-118850000D02*
X155990000Y-121140000D01*
X173776929Y-109333071D02*
X175810000Y-107300000D01*
X174920000Y-95300000D02*
X174920000Y-91450000D01*
X153700000Y-100270000D02*
X153700000Y-118850000D01*
X153700000Y-90360000D02*
X153700000Y-100270000D01*
X171630000Y-129020000D02*
X171630000Y-122310000D01*
X172890000Y-99100000D02*
X172490000Y-99500000D01*
X175810000Y-107300000D02*
X173590000Y-105080000D01*
X171630000Y-122310000D02*
X171880000Y-122060000D01*
X175930000Y-122060000D02*
X176200000Y-122330000D01*
X172430000Y-116710000D02*
X173776929Y-115363071D01*
X171880000Y-122060000D02*
X175930000Y-122060000D01*
X172490000Y-99500000D02*
X172490000Y-105080000D01*
X174920000Y-91450000D02*
X174530000Y-91060000D01*
%TO.N,LCD_3V3*%
X151620000Y-92290000D02*
X151620000Y-121920000D01*
X156370000Y-98150000D02*
X156370000Y-93200000D01*
X159310000Y-126100000D02*
X159310000Y-126650000D01*
X156370000Y-93200000D02*
X156040000Y-92870000D01*
X159310000Y-126650000D02*
X162100000Y-129440000D01*
X152300000Y-91610000D02*
X151620000Y-92290000D01*
D15*
%TO.N,/MCU/TXD*%
X170269790Y-119390000D02*
X169770000Y-119390000D01*
X178942792Y-121141100D02*
X178761692Y-120960000D01*
X178761692Y-120960000D02*
X171839790Y-120960000D01*
X171839790Y-120960000D02*
X170269790Y-119390000D01*
%TO.N,/MCU/RXD*%
X171990000Y-120540000D02*
X170890000Y-119440000D01*
X170890000Y-119440000D02*
X170890000Y-118230000D01*
X179480000Y-120540000D02*
X171990000Y-120540000D01*
X179490000Y-120530000D02*
X179480000Y-120540000D01*
%TO.N,/MCU/SWCLK*%
X155540000Y-103560000D02*
X158800000Y-100300000D01*
X155540000Y-105260000D02*
X155540000Y-103560000D01*
%TO.N,/MCU/LCD_A0*%
X134520000Y-118030000D02*
X134520000Y-115810000D01*
X134520000Y-115810000D02*
X136170000Y-114160000D01*
%TO.N,/TFT/T_YM*%
X140910000Y-100820000D02*
X140930000Y-100800000D01*
X140910000Y-118100000D02*
X140910000Y-100820000D01*
%TO.N,/TFT/T_XM*%
X141640000Y-117570000D02*
X141710000Y-117640000D01*
X141640000Y-98910000D02*
X141640000Y-117570000D01*
%TO.N,/TFT/T_YP*%
X142510000Y-96980000D02*
X142510000Y-118110000D01*
%TO.N,/TFT/T_XP*%
X143220000Y-117550000D02*
X143310000Y-117640000D01*
X143220000Y-94890000D02*
X143220000Y-117550000D01*
%TO.N,/MCU/MCU_RXD*%
X173020000Y-111341971D02*
X173020000Y-107560000D01*
X173020000Y-107560000D02*
X172360000Y-106900000D01*
X173126929Y-111448900D02*
X173020000Y-111341971D01*
%TO.N,/MCU/MCU_TXD*%
X172887650Y-112050500D02*
X172877738Y-112050500D01*
X172394408Y-111567170D02*
X172394408Y-107784492D01*
X173084422Y-112247272D02*
X172887650Y-112050500D01*
X172877738Y-112050500D02*
X172394408Y-111567170D01*
%TO.N,/MCU/CAN_TX*%
X165200000Y-92890000D02*
X165198400Y-92891600D01*
X165198400Y-92891600D02*
X165198400Y-101351600D01*
X165198400Y-101351600D02*
X165170000Y-101380000D01*
%TO.N,/MCU/CAN_RX*%
X166035000Y-95995000D02*
X165981600Y-96048400D01*
X165981600Y-102008400D02*
X165770000Y-102220000D01*
X165981600Y-96048400D02*
X165981600Y-102008400D01*
%TO.N,/TFT/LED-*%
X140830000Y-128580000D02*
X137710000Y-125460000D01*
X137710000Y-125460000D02*
X137710000Y-121460000D01*
%TO.N,/MCU/TOUCH_CLK*%
X162590000Y-94075894D02*
X162590000Y-112400000D01*
X162588006Y-94073900D02*
X162590000Y-94075894D01*
X162590000Y-112400000D02*
X164690000Y-114500000D01*
%TO.N,/MCU/TOUCH_MISO*%
X163200000Y-95983900D02*
X163200000Y-111750000D01*
X163191100Y-95975000D02*
X163200000Y-95983900D01*
X163200000Y-111750000D02*
X165870000Y-114420000D01*
%TO.N,/MCU/TOUCH_MOSI*%
X163191100Y-94675560D02*
X163792700Y-95277160D01*
X163792700Y-95277160D02*
X163792700Y-111332700D01*
X163792700Y-111332700D02*
X166850000Y-114390000D01*
%TO.N,/MCU/TOUCH_CS*%
X161790000Y-112870000D02*
X163610000Y-114690000D01*
X161790000Y-94025000D02*
X161790000Y-112870000D01*
%TO.N,/MCU/TOUCH_INT*%
X164400000Y-111210000D02*
X166900000Y-113710000D01*
X164400000Y-96656200D02*
X164400000Y-111210000D01*
X164393800Y-96650000D02*
X164400000Y-96656200D01*
X166900000Y-113710000D02*
X167820000Y-113710000D01*
%TO.N,/Flash/SPI2_SCK*%
X177425000Y-99965000D02*
X174940000Y-102450000D01*
X177425000Y-98230000D02*
X177425000Y-99965000D01*
%TO.N,/Flash/SPI2_MOSI*%
X178695000Y-101115000D02*
X178380000Y-101430000D01*
X178695000Y-98230000D02*
X178695000Y-101115000D01*
%TO.N,/MCU/LCD_LED*%
X158200000Y-114650000D02*
X157760000Y-114210000D01*
X158190000Y-128520000D02*
X158200000Y-128510000D01*
X158200000Y-128510000D02*
X158200000Y-114650000D01*
%TO.N,/Key&LED/KEY1*%
X167598400Y-89640000D02*
X164378400Y-86420000D01*
X167598400Y-111111600D02*
X167598400Y-89640000D01*
X164378400Y-86420000D02*
X157590000Y-86420000D01*
X167400000Y-111310000D02*
X167598400Y-111111600D01*
%TO.N,/Key&LED/KEY2*%
X167930000Y-112130000D02*
X168001600Y-112058400D01*
X168001600Y-87071600D02*
X167360000Y-86430000D01*
X168001600Y-112058400D02*
X168001600Y-87071600D01*
%TO.N,/Key&LED/KEY3*%
X168650000Y-89960000D02*
X172210000Y-86400000D01*
X168650000Y-112720000D02*
X168650000Y-89960000D01*
%TD*%
%TA.AperFunction,Conductor*%
%TO.N,GND*%
G36*
X153461198Y-83585077D02*
G01*
X188972517Y-83589983D01*
X189034510Y-83606602D01*
X189079890Y-83651988D01*
X189096500Y-83713983D01*
X189096500Y-101016389D01*
X189090051Y-133124525D01*
X189073430Y-133186514D01*
X189028044Y-133231891D01*
X188966051Y-133248500D01*
X117091500Y-133248500D01*
X117029500Y-133231887D01*
X116984113Y-133186500D01*
X116967500Y-133124500D01*
X116967500Y-121459999D01*
X137204353Y-121459999D01*
X137224834Y-121602457D01*
X137233418Y-121621252D01*
X137243100Y-121653380D01*
X137243389Y-121655210D01*
X137400501Y-122089407D01*
X137407900Y-122131598D01*
X137407900Y-125390491D01*
X137405144Y-125407381D01*
X137407768Y-125464132D01*
X137407900Y-125469858D01*
X137407900Y-125488951D01*
X137409587Y-125503488D01*
X137410830Y-125530365D01*
X137413675Y-125536809D01*
X137422126Y-125564098D01*
X137423420Y-125571019D01*
X137423420Y-125571020D01*
X137423421Y-125571021D01*
X137437579Y-125593889D01*
X137445583Y-125609072D01*
X137456451Y-125633685D01*
X137461423Y-125638657D01*
X137479170Y-125661061D01*
X137482877Y-125667048D01*
X137504344Y-125683259D01*
X137517299Y-125694533D01*
X140141489Y-128318723D01*
X140166091Y-128353788D01*
X140362023Y-128771910D01*
X140369226Y-128781820D01*
X140381714Y-128803210D01*
X140404623Y-128853374D01*
X140425566Y-128877543D01*
X140498872Y-128962143D01*
X140619947Y-129039953D01*
X140758039Y-129080500D01*
X140901961Y-129080500D01*
X141040053Y-129039953D01*
X141161128Y-128962143D01*
X141255377Y-128853373D01*
X141315165Y-128722457D01*
X141335647Y-128580000D01*
X141315165Y-128437543D01*
X141293406Y-128389899D01*
X141255376Y-128306625D01*
X141161129Y-128197857D01*
X141038004Y-128118730D01*
X141028733Y-128115220D01*
X140603786Y-127916090D01*
X140568721Y-127891488D01*
X138048419Y-125371185D01*
X138021539Y-125330957D01*
X138012100Y-125283504D01*
X138012100Y-122131598D01*
X138019499Y-122089407D01*
X138080797Y-121920000D01*
X151114353Y-121920000D01*
X151134834Y-122062457D01*
X151194623Y-122193374D01*
X151245000Y-122251512D01*
X151288872Y-122302143D01*
X151409947Y-122379953D01*
X151548039Y-122420500D01*
X151691961Y-122420500D01*
X151830053Y-122379953D01*
X151951128Y-122302143D01*
X152045377Y-122193373D01*
X152105165Y-122062457D01*
X152125647Y-121920000D01*
X152105165Y-121777543D01*
X152103015Y-121772835D01*
X152095861Y-121752761D01*
X152093370Y-121743255D01*
X151974550Y-121289895D01*
X151970500Y-121258463D01*
X151970500Y-100270000D01*
X153194353Y-100270000D01*
X153214835Y-100412460D01*
X153216982Y-100417161D01*
X153224135Y-100437231D01*
X153259817Y-100573373D01*
X153345449Y-100900105D01*
X153349500Y-100931538D01*
X153349500Y-118800788D01*
X153346861Y-118826234D01*
X153344957Y-118835314D01*
X153348548Y-118864123D01*
X153349458Y-118878795D01*
X153352665Y-118898013D01*
X153353403Y-118903078D01*
X153360351Y-118958809D01*
X153387081Y-119008202D01*
X153389421Y-119012747D01*
X153410802Y-119056484D01*
X153410803Y-119056485D01*
X153414084Y-119063196D01*
X153419581Y-119068256D01*
X153419582Y-119068258D01*
X153437341Y-119084606D01*
X153455399Y-119101230D01*
X153459097Y-119104779D01*
X155274379Y-120920061D01*
X155293744Y-120945155D01*
X155530448Y-121350003D01*
X155548837Y-121378807D01*
X155564623Y-121413374D01*
X155658870Y-121522141D01*
X155658872Y-121522143D01*
X155779947Y-121599953D01*
X155918039Y-121640500D01*
X156061961Y-121640500D01*
X156200053Y-121599953D01*
X156321128Y-121522143D01*
X156415377Y-121413373D01*
X156475165Y-121282457D01*
X156495647Y-121140000D01*
X156475165Y-120997543D01*
X156471698Y-120989952D01*
X156415376Y-120866625D01*
X156321129Y-120757858D01*
X156321128Y-120757857D01*
X156200053Y-120680047D01*
X156200050Y-120680046D01*
X156191529Y-120674570D01*
X156185491Y-120671963D01*
X155795155Y-120443744D01*
X155770061Y-120424379D01*
X154086819Y-118741137D01*
X154059939Y-118700909D01*
X154050500Y-118653456D01*
X154050500Y-114210000D01*
X157254353Y-114210000D01*
X157274834Y-114352457D01*
X157334623Y-114483374D01*
X157428869Y-114592141D01*
X157428871Y-114592142D01*
X157428872Y-114592143D01*
X157549947Y-114669953D01*
X157549950Y-114669953D01*
X157551995Y-114671268D01*
X157561269Y-114674779D01*
X157568085Y-114677973D01*
X157568088Y-114677975D01*
X157826517Y-114799074D01*
X157878543Y-114844830D01*
X157897900Y-114911357D01*
X157897900Y-127847873D01*
X157889658Y-127892327D01*
X157725068Y-128320921D01*
X157724293Y-128325330D01*
X157714963Y-128355363D01*
X157704835Y-128377541D01*
X157684353Y-128520000D01*
X157704834Y-128662457D01*
X157764623Y-128793374D01*
X157837556Y-128877543D01*
X157858872Y-128902143D01*
X157979947Y-128979953D01*
X158118039Y-129020500D01*
X158261961Y-129020500D01*
X158400053Y-128979953D01*
X158521128Y-128902143D01*
X158615377Y-128793373D01*
X158675165Y-128662457D01*
X158695647Y-128520000D01*
X158675165Y-128377543D01*
X158667894Y-128361622D01*
X158658602Y-128329925D01*
X158508795Y-127892706D01*
X158502100Y-127852513D01*
X158502100Y-126100000D01*
X158804353Y-126100000D01*
X158824834Y-126242458D01*
X158833157Y-126260681D01*
X158842895Y-126293170D01*
X158843105Y-126294528D01*
X158946906Y-126584440D01*
X158949022Y-126615203D01*
X158952398Y-126614783D01*
X158958548Y-126664122D01*
X158959458Y-126678795D01*
X158962665Y-126698013D01*
X158963403Y-126703078D01*
X158970351Y-126758809D01*
X158997081Y-126808202D01*
X158999421Y-126812747D01*
X159020802Y-126856484D01*
X159020803Y-126856485D01*
X159024084Y-126863196D01*
X159029581Y-126868256D01*
X159029582Y-126868258D01*
X159065399Y-126901230D01*
X159069097Y-126904779D01*
X161384379Y-129220061D01*
X161403744Y-129245155D01*
X161640448Y-129650003D01*
X161658837Y-129678807D01*
X161674623Y-129713374D01*
X161768870Y-129822141D01*
X161768872Y-129822143D01*
X161889947Y-129899953D01*
X162028039Y-129940500D01*
X162171961Y-129940500D01*
X162310053Y-129899953D01*
X162431128Y-129822143D01*
X162525377Y-129713373D01*
X162585165Y-129582457D01*
X162605647Y-129440000D01*
X162585165Y-129297543D01*
X162525377Y-129166627D01*
X162525376Y-129166626D01*
X162525376Y-129166625D01*
X162431129Y-129057858D01*
X162431128Y-129057857D01*
X162372221Y-129020000D01*
X171124353Y-129020000D01*
X171144834Y-129162457D01*
X171204623Y-129293374D01*
X171298870Y-129402141D01*
X171298872Y-129402143D01*
X171419947Y-129479953D01*
X171558039Y-129520500D01*
X171701961Y-129520500D01*
X171840053Y-129479953D01*
X171961128Y-129402143D01*
X172055377Y-129293373D01*
X172115165Y-129162457D01*
X172135647Y-129020000D01*
X172115165Y-128877543D01*
X172113015Y-128872835D01*
X172105861Y-128852761D01*
X172103370Y-128843255D01*
X171984550Y-128389895D01*
X171980500Y-128358463D01*
X171980500Y-122706569D01*
X171991075Y-122656461D01*
X172020998Y-122614899D01*
X172105249Y-122538155D01*
X172109664Y-122534132D01*
X172161726Y-122505855D01*
X172510104Y-122414550D01*
X172541537Y-122410500D01*
X175553086Y-122410500D01*
X175605756Y-122422242D01*
X175648451Y-122455244D01*
X175821640Y-122663633D01*
X175821642Y-122663634D01*
X175821643Y-122663636D01*
X175840963Y-122681245D01*
X175851143Y-122691683D01*
X175868872Y-122712143D01*
X175989947Y-122789953D01*
X176128039Y-122830500D01*
X176271961Y-122830500D01*
X176410053Y-122789953D01*
X176531128Y-122712143D01*
X176625377Y-122603373D01*
X176685165Y-122472457D01*
X176705647Y-122330000D01*
X176685165Y-122187543D01*
X176659615Y-122131598D01*
X176634908Y-122077497D01*
X176625377Y-122056627D01*
X176625376Y-122056626D01*
X176625376Y-122056625D01*
X176531129Y-121947858D01*
X176531128Y-121947857D01*
X176470590Y-121908951D01*
X176410052Y-121870046D01*
X176377470Y-121860480D01*
X176366804Y-121856814D01*
X176348841Y-121849710D01*
X176310384Y-121840600D01*
X176304034Y-121838917D01*
X176267967Y-121828327D01*
X176249432Y-121826161D01*
X176207620Y-121816256D01*
X176164155Y-121796515D01*
X176157308Y-121791626D01*
X176157307Y-121791625D01*
X176141648Y-121780445D01*
X176137544Y-121777384D01*
X176093229Y-121742892D01*
X176039409Y-121726869D01*
X176034531Y-121725306D01*
X175981421Y-121707074D01*
X175925332Y-121709394D01*
X175920208Y-121709500D01*
X175730874Y-121709500D01*
X175720686Y-121709081D01*
X175712257Y-121708386D01*
X175705347Y-121708857D01*
X175705346Y-121708857D01*
X175700128Y-121709213D01*
X175691694Y-121709500D01*
X172541538Y-121709500D01*
X172510105Y-121705449D01*
X172056745Y-121586629D01*
X172056743Y-121586628D01*
X172056740Y-121586628D01*
X172052818Y-121586324D01*
X172027478Y-121581673D01*
X171951962Y-121559500D01*
X171951961Y-121559500D01*
X171808039Y-121559500D01*
X171669947Y-121600047D01*
X171548870Y-121677858D01*
X171454622Y-121786626D01*
X171429158Y-121842383D01*
X171425652Y-121849456D01*
X171418926Y-121862001D01*
X171415951Y-121870273D01*
X171412066Y-121879808D01*
X171394835Y-121917539D01*
X171385392Y-121983215D01*
X171384223Y-121989999D01*
X171372379Y-122048932D01*
X171351762Y-122096505D01*
X171350476Y-122098308D01*
X171347392Y-122102445D01*
X171341626Y-122109855D01*
X171312891Y-122146773D01*
X171296871Y-122200582D01*
X171295309Y-122205458D01*
X171277074Y-122258577D01*
X171279394Y-122314668D01*
X171279500Y-122319792D01*
X171279500Y-122534998D01*
X171279340Y-122541298D01*
X171278273Y-122562268D01*
X171278922Y-122568963D01*
X171279500Y-122580923D01*
X171279500Y-128358462D01*
X171275449Y-128389894D01*
X171239233Y-128528080D01*
X171154135Y-128852769D01*
X171146983Y-128872837D01*
X171144835Y-128877540D01*
X171124353Y-129020000D01*
X162372221Y-129020000D01*
X162310053Y-128980047D01*
X162310050Y-128980046D01*
X162301529Y-128974570D01*
X162295491Y-128971963D01*
X161905155Y-128743744D01*
X161880061Y-128724379D01*
X159744466Y-126588784D01*
X159710987Y-126527490D01*
X159715943Y-126457828D01*
X159722583Y-126440000D01*
X160600000Y-126440000D01*
X160870000Y-126710000D01*
X165060000Y-126710000D01*
X165350000Y-126420000D01*
X165320000Y-121470000D01*
X164970000Y-121120000D01*
X163980202Y-121120000D01*
X163923180Y-121106111D01*
X163456669Y-120864525D01*
X163407883Y-120819072D01*
X163389692Y-120754922D01*
X163389383Y-120679612D01*
X163384098Y-119390000D01*
X169264353Y-119390000D01*
X169284834Y-119532457D01*
X169344623Y-119663374D01*
X169434852Y-119767504D01*
X169438872Y-119772143D01*
X169559947Y-119849953D01*
X169698039Y-119890500D01*
X169841960Y-119890500D01*
X169841961Y-119890500D01*
X169937348Y-119862490D01*
X169954042Y-119858818D01*
X169963149Y-119857465D01*
X170146506Y-119793259D01*
X170215065Y-119789398D01*
X170275167Y-119822611D01*
X171577023Y-121124467D01*
X171587022Y-121138363D01*
X171628994Y-121176625D01*
X171633140Y-121180584D01*
X171646640Y-121194084D01*
X171658123Y-121203180D01*
X171677998Y-121221299D01*
X171677999Y-121221299D01*
X171678000Y-121221300D01*
X171684569Y-121223844D01*
X171709849Y-121237170D01*
X171715652Y-121241145D01*
X171741839Y-121247304D01*
X171758226Y-121252379D01*
X171783318Y-121262100D01*
X171790356Y-121262100D01*
X171818746Y-121265394D01*
X171819965Y-121265680D01*
X171825596Y-121267005D01*
X171850100Y-121263586D01*
X171852236Y-121263289D01*
X171869366Y-121262100D01*
X178277021Y-121262100D01*
X178321740Y-121270445D01*
X178360440Y-121294354D01*
X178421642Y-121350003D01*
X178592925Y-121505744D01*
X178592605Y-121506095D01*
X178608344Y-121519412D01*
X178611663Y-121523243D01*
X178732737Y-121601052D01*
X178732739Y-121601053D01*
X178870831Y-121641600D01*
X179014753Y-121641600D01*
X179152845Y-121601053D01*
X179273920Y-121523243D01*
X179368169Y-121414473D01*
X179427957Y-121283557D01*
X179448439Y-121141100D01*
X179448438Y-121141098D01*
X179449049Y-121136854D01*
X179470779Y-121082573D01*
X179514967Y-121044285D01*
X179545268Y-121036933D01*
X179544854Y-121035523D01*
X179561960Y-121030500D01*
X179561961Y-121030500D01*
X179700053Y-120989953D01*
X179728461Y-120971695D01*
X179791075Y-120952091D01*
X179854927Y-120967180D01*
X179902142Y-121012739D01*
X179919500Y-121076012D01*
X179919500Y-128528080D01*
X179915036Y-128561050D01*
X179914317Y-128563656D01*
X179914316Y-128563659D01*
X179914316Y-128563662D01*
X179890173Y-128853373D01*
X179866190Y-129141166D01*
X179865165Y-129164341D01*
X179864352Y-129169996D01*
X179884834Y-129312457D01*
X179944623Y-129443374D01*
X180011453Y-129520500D01*
X180038872Y-129552143D01*
X180159947Y-129629953D01*
X180298039Y-129670500D01*
X180441961Y-129670500D01*
X180580053Y-129629953D01*
X180701128Y-129552143D01*
X180795377Y-129443373D01*
X180855165Y-129312457D01*
X180875647Y-129170000D01*
X180875646Y-129169996D01*
X180874835Y-129164354D01*
X180873811Y-129141206D01*
X180873736Y-129140312D01*
X180873737Y-129140304D01*
X180825684Y-128563662D01*
X180824964Y-128561050D01*
X180820500Y-128528080D01*
X180820500Y-119131920D01*
X180824964Y-119098950D01*
X180825683Y-119096342D01*
X180825683Y-119096341D01*
X180825684Y-119096338D01*
X180873737Y-118519695D01*
X180873736Y-118519685D01*
X180873811Y-118518791D01*
X180874835Y-118495643D01*
X180875647Y-118490000D01*
X180873722Y-118476618D01*
X180872495Y-118456064D01*
X180872567Y-118453008D01*
X180805311Y-117880343D01*
X180805309Y-117880338D01*
X180804076Y-117869835D01*
X180800500Y-117846059D01*
X180800500Y-116210000D01*
X182489533Y-116210000D01*
X182509312Y-116360235D01*
X182540955Y-116436627D01*
X182567302Y-116500233D01*
X182659549Y-116620451D01*
X182779767Y-116712698D01*
X182919764Y-116770687D01*
X183032279Y-116785500D01*
X183032280Y-116785500D01*
X183107720Y-116785500D01*
X183107721Y-116785500D01*
X183163977Y-116778093D01*
X183220236Y-116770687D01*
X183360233Y-116712698D01*
X183480451Y-116620451D01*
X183572698Y-116500233D01*
X183630687Y-116360236D01*
X183650466Y-116210000D01*
X183630687Y-116059764D01*
X183572698Y-115919767D01*
X183480451Y-115799549D01*
X183360233Y-115707302D01*
X183308473Y-115685862D01*
X183220235Y-115649312D01*
X183107721Y-115634500D01*
X183107720Y-115634500D01*
X183032280Y-115634500D01*
X183032279Y-115634500D01*
X182919764Y-115649312D01*
X182779768Y-115707301D01*
X182659549Y-115799549D01*
X182567301Y-115919768D01*
X182509312Y-116059764D01*
X182489533Y-116210000D01*
X180800500Y-116210000D01*
X180800500Y-111851920D01*
X180804964Y-111818950D01*
X180805683Y-111816342D01*
X180805683Y-111816341D01*
X180805684Y-111816338D01*
X180853737Y-111239695D01*
X180853736Y-111239687D01*
X180853811Y-111238794D01*
X180854835Y-111215644D01*
X180855647Y-111210000D01*
X180835165Y-111067543D01*
X180833015Y-111062835D01*
X180825861Y-111042761D01*
X180823370Y-111033255D01*
X180704550Y-110579895D01*
X180700500Y-110548463D01*
X180700500Y-110430000D01*
X182489533Y-110430000D01*
X182509312Y-110580235D01*
X182537084Y-110647281D01*
X182567302Y-110720233D01*
X182659549Y-110840451D01*
X182779767Y-110932698D01*
X182868617Y-110969501D01*
X182919764Y-110990687D01*
X183032279Y-111005500D01*
X183032280Y-111005500D01*
X183107720Y-111005500D01*
X183107721Y-111005500D01*
X183163978Y-110998093D01*
X183220236Y-110990687D01*
X183360233Y-110932698D01*
X183480451Y-110840451D01*
X183572698Y-110720233D01*
X183630687Y-110580236D01*
X183650466Y-110430000D01*
X183630687Y-110279764D01*
X183572698Y-110139767D01*
X183480451Y-110019549D01*
X183360233Y-109927302D01*
X183360231Y-109927301D01*
X183220235Y-109869312D01*
X183107721Y-109854500D01*
X183107720Y-109854500D01*
X183032280Y-109854500D01*
X183032279Y-109854500D01*
X182919764Y-109869312D01*
X182779768Y-109927301D01*
X182659549Y-110019549D01*
X182567301Y-110139768D01*
X182509312Y-110279764D01*
X182489533Y-110430000D01*
X180700500Y-110430000D01*
X180700500Y-100404386D01*
X180700615Y-100399048D01*
X180701404Y-100380722D01*
X180703325Y-100336159D01*
X180701069Y-100312686D01*
X180700500Y-100300823D01*
X180700500Y-100097612D01*
X180703139Y-100072166D01*
X180703364Y-100071087D01*
X180705043Y-100063085D01*
X180701452Y-100034277D01*
X180700541Y-100019613D01*
X180700500Y-100019367D01*
X180700500Y-100019360D01*
X180697330Y-100000365D01*
X180696595Y-99995319D01*
X180689648Y-99939590D01*
X180677887Y-99917858D01*
X180671902Y-99906798D01*
X180657527Y-99859648D01*
X180655570Y-99839285D01*
X180655568Y-99839277D01*
X180655447Y-99838855D01*
X180651890Y-99822270D01*
X180635165Y-99705942D01*
X180575376Y-99575025D01*
X180481129Y-99466258D01*
X180481128Y-99466257D01*
X180360053Y-99388447D01*
X180221961Y-99347900D01*
X180078039Y-99347900D01*
X179939947Y-99388447D01*
X179818870Y-99466258D01*
X179724623Y-99575025D01*
X179664834Y-99705942D01*
X179644353Y-99848400D01*
X179664834Y-99990857D01*
X179718373Y-100108087D01*
X179724623Y-100121773D01*
X179767837Y-100171646D01*
X179769320Y-100173357D01*
X179783277Y-100193053D01*
X179788330Y-100201900D01*
X179874669Y-100303381D01*
X179967471Y-100412460D01*
X179969944Y-100415366D01*
X179991877Y-100452910D01*
X179999500Y-100495717D01*
X179999500Y-110548462D01*
X179995449Y-110579894D01*
X179927161Y-110840450D01*
X179874135Y-111042769D01*
X179866983Y-111062837D01*
X179864835Y-111067540D01*
X179844353Y-111209998D01*
X179845165Y-111215649D01*
X179846190Y-111238840D01*
X179867759Y-111497661D01*
X179894316Y-111816338D01*
X179894316Y-111816341D01*
X179894317Y-111816343D01*
X179895036Y-111818950D01*
X179899500Y-111851920D01*
X179899500Y-117858163D01*
X179895937Y-117887674D01*
X179894200Y-117894758D01*
X179864955Y-118475780D01*
X179864635Y-118475763D01*
X179864242Y-118489230D01*
X179865165Y-118495650D01*
X179866190Y-118518837D01*
X179873829Y-118610500D01*
X179914316Y-119096338D01*
X179914316Y-119096341D01*
X179914317Y-119096343D01*
X179915036Y-119098950D01*
X179919500Y-119131920D01*
X179919500Y-119983988D01*
X179902142Y-120047261D01*
X179854927Y-120092820D01*
X179791075Y-120107909D01*
X179728461Y-120088304D01*
X179700053Y-120070047D01*
X179561961Y-120029500D01*
X179418039Y-120029500D01*
X179418038Y-120029500D01*
X179312465Y-120060498D01*
X179299003Y-120063648D01*
X179290918Y-120065069D01*
X178862327Y-120229658D01*
X178817873Y-120237900D01*
X172166496Y-120237900D01*
X172119043Y-120228461D01*
X172078815Y-120201581D01*
X171228419Y-119351185D01*
X171201539Y-119310957D01*
X171192100Y-119263504D01*
X171192100Y-118901598D01*
X171199499Y-118859407D01*
X171274020Y-118653456D01*
X171356610Y-118425207D01*
X171356897Y-118423394D01*
X171366581Y-118391252D01*
X171370179Y-118383374D01*
X171375165Y-118372457D01*
X171395647Y-118230000D01*
X171375165Y-118087543D01*
X171345297Y-118022143D01*
X171315376Y-117956625D01*
X171221129Y-117847858D01*
X171221128Y-117847857D01*
X171100053Y-117770047D01*
X170961961Y-117729500D01*
X170818039Y-117729500D01*
X170679947Y-117770047D01*
X170558870Y-117847858D01*
X170464623Y-117956625D01*
X170404834Y-118087542D01*
X170384353Y-118229999D01*
X170404834Y-118372457D01*
X170413418Y-118391252D01*
X170423100Y-118423380D01*
X170423389Y-118425210D01*
X170580501Y-118859407D01*
X170587900Y-118901598D01*
X170587900Y-119006483D01*
X170570073Y-119070539D01*
X170521719Y-119116178D01*
X170456741Y-119130276D01*
X170394263Y-119108932D01*
X170367739Y-119102693D01*
X170351341Y-119097615D01*
X170326262Y-119087900D01*
X170319224Y-119087900D01*
X170290833Y-119084606D01*
X170275557Y-119081013D01*
X170246448Y-119070169D01*
X169990775Y-118936353D01*
X169981238Y-118930808D01*
X169980055Y-118930047D01*
X169962179Y-118924798D01*
X169943778Y-118919395D01*
X169936909Y-118917159D01*
X169936870Y-118917145D01*
X169931680Y-118915843D01*
X169841962Y-118889500D01*
X169841961Y-118889500D01*
X169698039Y-118889500D01*
X169559947Y-118930047D01*
X169438870Y-119007858D01*
X169344623Y-119116625D01*
X169284834Y-119247542D01*
X169264353Y-119390000D01*
X163384098Y-119390000D01*
X163380000Y-118390000D01*
X162550000Y-118390000D01*
X162559707Y-120690679D01*
X162544197Y-120751253D01*
X162501101Y-120796557D01*
X162010039Y-121101355D01*
X161944646Y-121120000D01*
X160839999Y-121120000D01*
X160600000Y-121359999D01*
X160600000Y-121360000D01*
X160600000Y-126440000D01*
X159722583Y-126440000D01*
X159775808Y-126297087D01*
X159776316Y-126294035D01*
X159785839Y-126262875D01*
X159795165Y-126242457D01*
X159815647Y-126100000D01*
X159795165Y-125957543D01*
X159735377Y-125826627D01*
X159735376Y-125826626D01*
X159735376Y-125826625D01*
X159641129Y-125717858D01*
X159641128Y-125717857D01*
X159520053Y-125640047D01*
X159381961Y-125599500D01*
X159238039Y-125599500D01*
X159099947Y-125640047D01*
X158978870Y-125717858D01*
X158884623Y-125826625D01*
X158824834Y-125957542D01*
X158804353Y-126100000D01*
X158502100Y-126100000D01*
X158502100Y-114719509D01*
X158504855Y-114702618D01*
X158504385Y-114692461D01*
X158504386Y-114692460D01*
X158502232Y-114645868D01*
X158502100Y-114640142D01*
X158502100Y-114621049D01*
X158500411Y-114606500D01*
X158499170Y-114579636D01*
X158496325Y-114573192D01*
X158487872Y-114545895D01*
X158487170Y-114542141D01*
X158486579Y-114538979D01*
X158472420Y-114516110D01*
X158464414Y-114500922D01*
X158464007Y-114500000D01*
X158453549Y-114476315D01*
X158448575Y-114471341D01*
X158430775Y-114448850D01*
X158430631Y-114448617D01*
X158423829Y-114436043D01*
X158361230Y-114302457D01*
X158227975Y-114018088D01*
X158220771Y-114008176D01*
X158208286Y-113986790D01*
X158185377Y-113936626D01*
X158091129Y-113827858D01*
X158091128Y-113827857D01*
X157970053Y-113750047D01*
X157831961Y-113709500D01*
X157688039Y-113709500D01*
X157549947Y-113750047D01*
X157428870Y-113827858D01*
X157334623Y-113936625D01*
X157274834Y-114067542D01*
X157254353Y-114210000D01*
X154050500Y-114210000D01*
X154050500Y-105260000D01*
X155034353Y-105260000D01*
X155054834Y-105402457D01*
X155114623Y-105533374D01*
X155155458Y-105580500D01*
X155208872Y-105642143D01*
X155329947Y-105719953D01*
X155468039Y-105760500D01*
X155611961Y-105760500D01*
X155750053Y-105719953D01*
X155871128Y-105642143D01*
X155965377Y-105533373D01*
X156025165Y-105402457D01*
X156045647Y-105260000D01*
X156025165Y-105117543D01*
X156016581Y-105098746D01*
X156006897Y-105066608D01*
X156006610Y-105064792D01*
X156006608Y-105064787D01*
X156006608Y-105064785D01*
X155849499Y-104630593D01*
X155842100Y-104588402D01*
X155842100Y-103736496D01*
X155851539Y-103689043D01*
X155878419Y-103648815D01*
X156229997Y-103297237D01*
X158538728Y-100988504D01*
X158573786Y-100963907D01*
X158991911Y-100767975D01*
X158991913Y-100767973D01*
X158998728Y-100764780D01*
X159008008Y-100761266D01*
X159010049Y-100759954D01*
X159010053Y-100759953D01*
X159131128Y-100682143D01*
X159225377Y-100573373D01*
X159285165Y-100442457D01*
X159305647Y-100300000D01*
X159285349Y-100158823D01*
X159285165Y-100157542D01*
X159225376Y-100026625D01*
X159131129Y-99917858D01*
X159131128Y-99917857D01*
X159010053Y-99840047D01*
X158871961Y-99799500D01*
X158728039Y-99799500D01*
X158589947Y-99840047D01*
X158468870Y-99917858D01*
X158374622Y-100026626D01*
X158351714Y-100076787D01*
X158339228Y-100098174D01*
X158332023Y-100108087D01*
X158136089Y-100526212D01*
X158111487Y-100561277D01*
X155375527Y-103297237D01*
X155361638Y-103307231D01*
X155323370Y-103349208D01*
X155319420Y-103353344D01*
X155305916Y-103366848D01*
X155296829Y-103378320D01*
X155278701Y-103398207D01*
X155276157Y-103404775D01*
X155262831Y-103430056D01*
X155258853Y-103435862D01*
X155252694Y-103462047D01*
X155247617Y-103478442D01*
X155237900Y-103503527D01*
X155237900Y-103510566D01*
X155234606Y-103538956D01*
X155232995Y-103545805D01*
X155236711Y-103572446D01*
X155237900Y-103589576D01*
X155237900Y-104588402D01*
X155230501Y-104630593D01*
X155073387Y-105064794D01*
X155073099Y-105066620D01*
X155063419Y-105098746D01*
X155054834Y-105117543D01*
X155034353Y-105260000D01*
X154050500Y-105260000D01*
X154050500Y-100931537D01*
X154054551Y-100900101D01*
X154173370Y-100446744D01*
X154173370Y-100446737D01*
X154175860Y-100437239D01*
X154183014Y-100417165D01*
X154185165Y-100412457D01*
X154205647Y-100270000D01*
X154185165Y-100127543D01*
X154183015Y-100122835D01*
X154175861Y-100102761D01*
X154173370Y-100093255D01*
X154054550Y-99639895D01*
X154050500Y-99608463D01*
X154050500Y-92869999D01*
X155534353Y-92869999D01*
X155554834Y-93012457D01*
X155614622Y-93143372D01*
X155708872Y-93252143D01*
X155814447Y-93319992D01*
X155816506Y-93321571D01*
X155823798Y-93326175D01*
X155823802Y-93326179D01*
X155961704Y-93413253D01*
X156004094Y-93458240D01*
X156019500Y-93518101D01*
X156019500Y-97488462D01*
X156015449Y-97519894D01*
X155980932Y-97651598D01*
X155894135Y-97982769D01*
X155886983Y-98002837D01*
X155884835Y-98007540D01*
X155864353Y-98150000D01*
X155884834Y-98292457D01*
X155944623Y-98423374D01*
X156033996Y-98526516D01*
X156038872Y-98532143D01*
X156159947Y-98609953D01*
X156298039Y-98650500D01*
X156441961Y-98650500D01*
X156580053Y-98609953D01*
X156701128Y-98532143D01*
X156795377Y-98423373D01*
X156855165Y-98292457D01*
X156875647Y-98150000D01*
X156855165Y-98007543D01*
X156853015Y-98002835D01*
X156845861Y-97982761D01*
X156843370Y-97973255D01*
X156724550Y-97519895D01*
X156720500Y-97488463D01*
X156720500Y-94024999D01*
X161284353Y-94024999D01*
X161304834Y-94167457D01*
X161313418Y-94186252D01*
X161323100Y-94218380D01*
X161323389Y-94220210D01*
X161480501Y-94654407D01*
X161487900Y-94696598D01*
X161487900Y-112800491D01*
X161485144Y-112817381D01*
X161487768Y-112874132D01*
X161487900Y-112879858D01*
X161487900Y-112898951D01*
X161489587Y-112913488D01*
X161490830Y-112940365D01*
X161493675Y-112946809D01*
X161502126Y-112974098D01*
X161503420Y-112981019D01*
X161503420Y-112981020D01*
X161503421Y-112981021D01*
X161517579Y-113003889D01*
X161525583Y-113019072D01*
X161536451Y-113043685D01*
X161541423Y-113048657D01*
X161559170Y-113071061D01*
X161562877Y-113077048D01*
X161584344Y-113093259D01*
X161597299Y-113104533D01*
X162921489Y-114428723D01*
X162946091Y-114463788D01*
X163142023Y-114881910D01*
X163149226Y-114891820D01*
X163161714Y-114913210D01*
X163184623Y-114963374D01*
X163216793Y-115000500D01*
X163278872Y-115072143D01*
X163399947Y-115149953D01*
X163538039Y-115190500D01*
X163681961Y-115190500D01*
X163820053Y-115149953D01*
X163941128Y-115072143D01*
X164035377Y-114963373D01*
X164091169Y-114841206D01*
X164129652Y-114793453D01*
X164186315Y-114769982D01*
X164247296Y-114776538D01*
X164297674Y-114811517D01*
X164358872Y-114882143D01*
X164479947Y-114959953D01*
X164618039Y-115000500D01*
X164761961Y-115000500D01*
X164900053Y-114959953D01*
X165021128Y-114882143D01*
X165115377Y-114773373D01*
X165162976Y-114669147D01*
X165182572Y-114626239D01*
X165185292Y-114627481D01*
X165194403Y-114604643D01*
X165238300Y-114566366D01*
X165294831Y-114552352D01*
X165351524Y-114565694D01*
X165395872Y-114603447D01*
X165409225Y-114621819D01*
X165421714Y-114643210D01*
X165444623Y-114693374D01*
X165538870Y-114802141D01*
X165538872Y-114802143D01*
X165659947Y-114879953D01*
X165798039Y-114920500D01*
X165941961Y-114920500D01*
X166080053Y-114879953D01*
X166201128Y-114802143D01*
X166279286Y-114711942D01*
X166321485Y-114680353D01*
X166372997Y-114669147D01*
X166424509Y-114680353D01*
X166466709Y-114711944D01*
X166518872Y-114772143D01*
X166639947Y-114849953D01*
X166778039Y-114890500D01*
X166921961Y-114890500D01*
X167060053Y-114849953D01*
X167181128Y-114772143D01*
X167275377Y-114663373D01*
X167335165Y-114532457D01*
X167355647Y-114390000D01*
X167337924Y-114266734D01*
X167345161Y-114203972D01*
X167382383Y-114152920D01*
X167439927Y-114126835D01*
X167502854Y-114132488D01*
X167606394Y-114169953D01*
X167624792Y-114176610D01*
X167632104Y-114177766D01*
X167633874Y-114178047D01*
X167649428Y-114181545D01*
X167748039Y-114210500D01*
X167891961Y-114210500D01*
X168030053Y-114169953D01*
X168151128Y-114092143D01*
X168245377Y-113983373D01*
X168305165Y-113852457D01*
X168325647Y-113710000D01*
X168305165Y-113567543D01*
X168245377Y-113436627D01*
X168245376Y-113436626D01*
X168245376Y-113436625D01*
X168151129Y-113327858D01*
X168151128Y-113327857D01*
X168030053Y-113250047D01*
X167891961Y-113209500D01*
X167748039Y-113209500D01*
X167748038Y-113209500D01*
X167649433Y-113238452D01*
X167633881Y-113241951D01*
X167624791Y-113243389D01*
X167190593Y-113400501D01*
X167148402Y-113407900D01*
X167076496Y-113407900D01*
X167029043Y-113398461D01*
X166988815Y-113371581D01*
X164738419Y-111121185D01*
X164711539Y-111080957D01*
X164702100Y-111033504D01*
X164702100Y-101901334D01*
X164719458Y-101838061D01*
X164766673Y-101792502D01*
X164830525Y-101777413D01*
X164893138Y-101797017D01*
X164959947Y-101839953D01*
X165098039Y-101880500D01*
X165181874Y-101880500D01*
X165241301Y-101895668D01*
X165286190Y-101937461D01*
X165305558Y-101995655D01*
X165294668Y-102056013D01*
X165284834Y-102077544D01*
X165264353Y-102220000D01*
X165284834Y-102362457D01*
X165344623Y-102493374D01*
X165430479Y-102592457D01*
X165438872Y-102602143D01*
X165559947Y-102679953D01*
X165698039Y-102720500D01*
X165841961Y-102720500D01*
X165980053Y-102679953D01*
X166101128Y-102602143D01*
X166195377Y-102493373D01*
X166255165Y-102362457D01*
X166275647Y-102220000D01*
X166275646Y-102219996D01*
X166276246Y-102215827D01*
X166275849Y-102209061D01*
X166278713Y-102097835D01*
X166283700Y-102072947D01*
X166283700Y-102057838D01*
X166286994Y-102029445D01*
X166288606Y-102022593D01*
X166284888Y-101995947D01*
X166283700Y-101978816D01*
X166283700Y-101905883D01*
X166283741Y-101902690D01*
X166288323Y-101724804D01*
X166284414Y-101688528D01*
X166283700Y-101675242D01*
X166283700Y-96670071D01*
X166296019Y-96616189D01*
X166304863Y-96597858D01*
X166491883Y-96210221D01*
X166501895Y-96179402D01*
X166507028Y-96166219D01*
X166520165Y-96137457D01*
X166540647Y-95995000D01*
X166520165Y-95852543D01*
X166496397Y-95800500D01*
X166460376Y-95721625D01*
X166366129Y-95612858D01*
X166366128Y-95612857D01*
X166245053Y-95535047D01*
X166106961Y-95494500D01*
X165963039Y-95494500D01*
X165824947Y-95535047D01*
X165691539Y-95620783D01*
X165628926Y-95640388D01*
X165565073Y-95625299D01*
X165517858Y-95579740D01*
X165500500Y-95516467D01*
X165500500Y-93561676D01*
X165508031Y-93519121D01*
X165508404Y-93518101D01*
X165666346Y-93085831D01*
X165666706Y-93083594D01*
X165676337Y-93051785D01*
X165685165Y-93032457D01*
X165705647Y-92890000D01*
X165685165Y-92747543D01*
X165676031Y-92727543D01*
X165625376Y-92616625D01*
X165531129Y-92507858D01*
X165531128Y-92507857D01*
X165410053Y-92430047D01*
X165271961Y-92389500D01*
X165128039Y-92389500D01*
X164989947Y-92430047D01*
X164868870Y-92507858D01*
X164774623Y-92616625D01*
X164714834Y-92747542D01*
X164694353Y-92889999D01*
X164714835Y-93032457D01*
X164723210Y-93050797D01*
X164732936Y-93083213D01*
X164733162Y-93084663D01*
X164889015Y-93519060D01*
X164896300Y-93560935D01*
X164896300Y-96150902D01*
X164878942Y-96214175D01*
X164831727Y-96259734D01*
X164767874Y-96274823D01*
X164705261Y-96255218D01*
X164603853Y-96190047D01*
X164465761Y-96149500D01*
X164321839Y-96149500D01*
X164253735Y-96169497D01*
X164196783Y-96172550D01*
X164144489Y-96149787D01*
X164107916Y-96106024D01*
X164094800Y-96050520D01*
X164094800Y-95346669D01*
X164097555Y-95329778D01*
X164097085Y-95319621D01*
X164097086Y-95319620D01*
X164094932Y-95273028D01*
X164094800Y-95267302D01*
X164094800Y-95248209D01*
X164093111Y-95233660D01*
X164092882Y-95228705D01*
X164091870Y-95206796D01*
X164089025Y-95200352D01*
X164080572Y-95173055D01*
X164080393Y-95172100D01*
X164079279Y-95166139D01*
X164065120Y-95143270D01*
X164057114Y-95128082D01*
X164054982Y-95123254D01*
X164046249Y-95103475D01*
X164041275Y-95098501D01*
X164023529Y-95076097D01*
X164019823Y-95070112D01*
X164015249Y-95066658D01*
X163998351Y-95053897D01*
X163985403Y-95042629D01*
X163879608Y-94936834D01*
X163855006Y-94901769D01*
X163782736Y-94747543D01*
X163659075Y-94483648D01*
X163651871Y-94473736D01*
X163639386Y-94452350D01*
X163616477Y-94402186D01*
X163522229Y-94293418D01*
X163522228Y-94293417D01*
X163401153Y-94215607D01*
X163263061Y-94175060D01*
X163215644Y-94175060D01*
X163158824Y-94161275D01*
X163114636Y-94122987D01*
X163092906Y-94068706D01*
X163073171Y-93931442D01*
X163013382Y-93800525D01*
X162919135Y-93691758D01*
X162919134Y-93691757D01*
X162798059Y-93613947D01*
X162659967Y-93573400D01*
X162516045Y-93573400D01*
X162377953Y-93613947D01*
X162287289Y-93672213D01*
X162232036Y-93691336D01*
X162174164Y-93683015D01*
X162126538Y-93649100D01*
X162121128Y-93642857D01*
X162121127Y-93642856D01*
X162121126Y-93642855D01*
X162000054Y-93565047D01*
X161861961Y-93524500D01*
X161718039Y-93524500D01*
X161579947Y-93565047D01*
X161458870Y-93642858D01*
X161364623Y-93751625D01*
X161304834Y-93882542D01*
X161284353Y-94024999D01*
X156720500Y-94024999D01*
X156720500Y-93249207D01*
X156723139Y-93223761D01*
X156723173Y-93223594D01*
X156725042Y-93214685D01*
X156721452Y-93185884D01*
X156720540Y-93171205D01*
X156720500Y-93170965D01*
X156720500Y-93170960D01*
X156717331Y-93151972D01*
X156716594Y-93146915D01*
X156710573Y-93098607D01*
X156710572Y-93098605D01*
X156709648Y-93091191D01*
X156706092Y-93084620D01*
X156706092Y-93084619D01*
X156682925Y-93041811D01*
X156680581Y-93037256D01*
X156655918Y-92986805D01*
X156650418Y-92981742D01*
X156620035Y-92953772D01*
X156587013Y-92903598D01*
X156515154Y-92698788D01*
X156487207Y-92644134D01*
X156484816Y-92639192D01*
X156465376Y-92596625D01*
X156371129Y-92487858D01*
X156371128Y-92487857D01*
X156250053Y-92410047D01*
X156111961Y-92369500D01*
X155968039Y-92369500D01*
X155829947Y-92410047D01*
X155708870Y-92487858D01*
X155614623Y-92596625D01*
X155554834Y-92727542D01*
X155534353Y-92869999D01*
X154050500Y-92869999D01*
X154050500Y-91021537D01*
X154054551Y-90990101D01*
X154173370Y-90536744D01*
X154173370Y-90536737D01*
X154175860Y-90527239D01*
X154183014Y-90507165D01*
X154185165Y-90502457D01*
X154205647Y-90360000D01*
X154185165Y-90217543D01*
X154125377Y-90086627D01*
X154125376Y-90086626D01*
X154125376Y-90086625D01*
X154031129Y-89977858D01*
X154031128Y-89977857D01*
X153910053Y-89900047D01*
X153771961Y-89859500D01*
X153628039Y-89859500D01*
X153489947Y-89900047D01*
X153368870Y-89977858D01*
X153274623Y-90086625D01*
X153214834Y-90217542D01*
X153194353Y-90359999D01*
X153214835Y-90502460D01*
X153216982Y-90507161D01*
X153224135Y-90527231D01*
X153263613Y-90677857D01*
X153345449Y-90990105D01*
X153349500Y-91021538D01*
X153349500Y-99608462D01*
X153345449Y-99639894D01*
X153281408Y-99884246D01*
X153224135Y-100102769D01*
X153216983Y-100122837D01*
X153214835Y-100127540D01*
X153194353Y-100270000D01*
X151970500Y-100270000D01*
X151970500Y-92486545D01*
X151979939Y-92439093D01*
X152006818Y-92398865D01*
X152080060Y-92325621D01*
X152105150Y-92306258D01*
X152495459Y-92078053D01*
X152501505Y-92075445D01*
X152510048Y-92069954D01*
X152510053Y-92069953D01*
X152631128Y-91992143D01*
X152725377Y-91883373D01*
X152785165Y-91752457D01*
X152805647Y-91610000D01*
X152785165Y-91467543D01*
X152773564Y-91442141D01*
X152725376Y-91336625D01*
X152631129Y-91227858D01*
X152631128Y-91227857D01*
X152510053Y-91150047D01*
X152371961Y-91109500D01*
X152228039Y-91109500D01*
X152089947Y-91150047D01*
X151968870Y-91227858D01*
X151874623Y-91336625D01*
X151858836Y-91371193D01*
X151840435Y-91400018D01*
X151603746Y-91804841D01*
X151584381Y-91829935D01*
X151406955Y-92007361D01*
X151387104Y-92023483D01*
X151379332Y-92028561D01*
X151361500Y-92051471D01*
X151351765Y-92062496D01*
X151340441Y-92078357D01*
X151337392Y-92082445D01*
X151320954Y-92103566D01*
X151302891Y-92126773D01*
X151286871Y-92180582D01*
X151285309Y-92185458D01*
X151267074Y-92238577D01*
X151269394Y-92294668D01*
X151269500Y-92299792D01*
X151269500Y-121258462D01*
X151265449Y-121289894D01*
X151194789Y-121559500D01*
X151144135Y-121752769D01*
X151136983Y-121772837D01*
X151134835Y-121777540D01*
X151114353Y-121920000D01*
X138080797Y-121920000D01*
X138098872Y-121870047D01*
X138176610Y-121655207D01*
X138176897Y-121653394D01*
X138186581Y-121621252D01*
X138195165Y-121602457D01*
X138215647Y-121460000D01*
X138195165Y-121317543D01*
X138184575Y-121294355D01*
X138140287Y-121197379D01*
X138135377Y-121186627D01*
X138135376Y-121186626D01*
X138135376Y-121186625D01*
X138041129Y-121077858D01*
X138041128Y-121077857D01*
X137920053Y-121000047D01*
X137781961Y-120959500D01*
X137638039Y-120959500D01*
X137499947Y-121000047D01*
X137378870Y-121077858D01*
X137284623Y-121186625D01*
X137224834Y-121317542D01*
X137204353Y-121459999D01*
X116967500Y-121459999D01*
X116967500Y-118030000D01*
X134014353Y-118030000D01*
X134034834Y-118172457D01*
X134094623Y-118303374D01*
X134169685Y-118390000D01*
X134188872Y-118412143D01*
X134309947Y-118489953D01*
X134448039Y-118530500D01*
X134591961Y-118530500D01*
X134730053Y-118489953D01*
X134851128Y-118412143D01*
X134945377Y-118303373D01*
X135005165Y-118172457D01*
X135015583Y-118100000D01*
X140404353Y-118100000D01*
X140424834Y-118242457D01*
X140484623Y-118373374D01*
X140573358Y-118475780D01*
X140578872Y-118482143D01*
X140699947Y-118559953D01*
X140838039Y-118600500D01*
X140981961Y-118600500D01*
X141120053Y-118559953D01*
X141241128Y-118482143D01*
X141335377Y-118373373D01*
X141395165Y-118242457D01*
X141398702Y-118217852D01*
X141417123Y-118168460D01*
X141454399Y-118131183D01*
X141503792Y-118112760D01*
X141556372Y-118116520D01*
X141638039Y-118140500D01*
X141781959Y-118140500D01*
X141781961Y-118140500D01*
X141862248Y-118116926D01*
X141932113Y-118116926D01*
X141990891Y-118154700D01*
X142019917Y-118218255D01*
X142024834Y-118252457D01*
X142084623Y-118383374D01*
X142176974Y-118489953D01*
X142178872Y-118492143D01*
X142299947Y-118569953D01*
X142438039Y-118610500D01*
X142581961Y-118610500D01*
X142720053Y-118569953D01*
X142841128Y-118492143D01*
X142935377Y-118383373D01*
X142995165Y-118252457D01*
X143000082Y-118218256D01*
X143018504Y-118168864D01*
X143055780Y-118131588D01*
X143105173Y-118113165D01*
X143157751Y-118116925D01*
X143238039Y-118140500D01*
X143381961Y-118140500D01*
X143520053Y-118099953D01*
X143641128Y-118022143D01*
X143735377Y-117913373D01*
X143795165Y-117782457D01*
X143815647Y-117640000D01*
X143795165Y-117497543D01*
X143780481Y-117465392D01*
X143777943Y-117459425D01*
X143759301Y-117412175D01*
X143746103Y-117388953D01*
X143741121Y-117379205D01*
X143734593Y-117364911D01*
X143723616Y-117349384D01*
X143559567Y-117060719D01*
X143538292Y-117023283D01*
X143522100Y-116962017D01*
X143522100Y-95561598D01*
X143529499Y-95519407D01*
X143608889Y-95300000D01*
X143686610Y-95085207D01*
X143686897Y-95083394D01*
X143696581Y-95051252D01*
X143700519Y-95042629D01*
X143705165Y-95032457D01*
X143725647Y-94890000D01*
X143705165Y-94747543D01*
X143645377Y-94616627D01*
X143645376Y-94616626D01*
X143645376Y-94616625D01*
X143551129Y-94507858D01*
X143551128Y-94507857D01*
X143430053Y-94430047D01*
X143291961Y-94389500D01*
X143148039Y-94389500D01*
X143009947Y-94430047D01*
X142888870Y-94507858D01*
X142794623Y-94616625D01*
X142734834Y-94747542D01*
X142714353Y-94890000D01*
X142734834Y-95032457D01*
X142743418Y-95051252D01*
X142753100Y-95083380D01*
X142753389Y-95085210D01*
X142910501Y-95519407D01*
X142917900Y-95561598D01*
X142917900Y-96420107D01*
X142900542Y-96483381D01*
X142853327Y-96528939D01*
X142789474Y-96544028D01*
X142726861Y-96524422D01*
X142720053Y-96520047D01*
X142581961Y-96479500D01*
X142438039Y-96479500D01*
X142299947Y-96520047D01*
X142178870Y-96597858D01*
X142084623Y-96706625D01*
X142024834Y-96837542D01*
X142004353Y-96980000D01*
X142024834Y-97122457D01*
X142033418Y-97141252D01*
X142043100Y-97173380D01*
X142043389Y-97175210D01*
X142200501Y-97609407D01*
X142207900Y-97651598D01*
X142207900Y-98468649D01*
X142193570Y-98526516D01*
X142153891Y-98571008D01*
X142098035Y-98591841D01*
X142038912Y-98584200D01*
X141990187Y-98549852D01*
X141971128Y-98527857D01*
X141878998Y-98468649D01*
X141850053Y-98450047D01*
X141711961Y-98409500D01*
X141568039Y-98409500D01*
X141429947Y-98450047D01*
X141308870Y-98527858D01*
X141214623Y-98636625D01*
X141154834Y-98767542D01*
X141134353Y-98910000D01*
X141154834Y-99052457D01*
X141163418Y-99071252D01*
X141173100Y-99103380D01*
X141173389Y-99105210D01*
X141330501Y-99539407D01*
X141337900Y-99581598D01*
X141337900Y-100240107D01*
X141320542Y-100303381D01*
X141273327Y-100348939D01*
X141209474Y-100364028D01*
X141146861Y-100344422D01*
X141140053Y-100340047D01*
X141001961Y-100299500D01*
X140858039Y-100299500D01*
X140719947Y-100340047D01*
X140598870Y-100417858D01*
X140504623Y-100526625D01*
X140444834Y-100657542D01*
X140424353Y-100800000D01*
X140444834Y-100942456D01*
X140450791Y-100955499D01*
X140456995Y-100977274D01*
X140457053Y-100977256D01*
X140601888Y-101425284D01*
X140607900Y-101463426D01*
X140607900Y-117428402D01*
X140600501Y-117470593D01*
X140443387Y-117904794D01*
X140443099Y-117906620D01*
X140433419Y-117938746D01*
X140424834Y-117957543D01*
X140404353Y-118100000D01*
X135015583Y-118100000D01*
X135025647Y-118030000D01*
X135005165Y-117887543D01*
X134996581Y-117868746D01*
X134986897Y-117836608D01*
X134986610Y-117834792D01*
X134986608Y-117834787D01*
X134986608Y-117834785D01*
X134829499Y-117400593D01*
X134822100Y-117358402D01*
X134822100Y-115986496D01*
X134831539Y-115939043D01*
X134858419Y-115898815D01*
X135120620Y-115636614D01*
X135908728Y-114848504D01*
X135943786Y-114823907D01*
X136361911Y-114627975D01*
X136361913Y-114627973D01*
X136368728Y-114624780D01*
X136378008Y-114621266D01*
X136380049Y-114619954D01*
X136380053Y-114619953D01*
X136501128Y-114542143D01*
X136595377Y-114433373D01*
X136655165Y-114302457D01*
X136675647Y-114160000D01*
X136656394Y-114026091D01*
X136655165Y-114017542D01*
X136595376Y-113886625D01*
X136501129Y-113777858D01*
X136501128Y-113777857D01*
X136380053Y-113700047D01*
X136241961Y-113659500D01*
X136098039Y-113659500D01*
X135959947Y-113700047D01*
X135838870Y-113777858D01*
X135744622Y-113886626D01*
X135721714Y-113936787D01*
X135709228Y-113958174D01*
X135702023Y-113968087D01*
X135506088Y-114386213D01*
X135481486Y-114421278D01*
X134355527Y-115547237D01*
X134341638Y-115557231D01*
X134303370Y-115599208D01*
X134299420Y-115603344D01*
X134285916Y-115616848D01*
X134276829Y-115628320D01*
X134258701Y-115648207D01*
X134256157Y-115654775D01*
X134242831Y-115680056D01*
X134238853Y-115685862D01*
X134232694Y-115712047D01*
X134227617Y-115728442D01*
X134217900Y-115753527D01*
X134217900Y-115760566D01*
X134214606Y-115788956D01*
X134212995Y-115795805D01*
X134216711Y-115822446D01*
X134217900Y-115839576D01*
X134217900Y-117358402D01*
X134210501Y-117400593D01*
X134053387Y-117834794D01*
X134053099Y-117836620D01*
X134043419Y-117868746D01*
X134034834Y-117887543D01*
X134014353Y-118030000D01*
X116967500Y-118030000D01*
X116967500Y-85330000D01*
X156894353Y-85330000D01*
X156914834Y-85472457D01*
X156974623Y-85603374D01*
X157064846Y-85707497D01*
X157068872Y-85712143D01*
X157189947Y-85789953D01*
X157241507Y-85805092D01*
X157300283Y-85842864D01*
X157329309Y-85906419D01*
X157319367Y-85975577D01*
X157273613Y-86028382D01*
X157258871Y-86037856D01*
X157164623Y-86146625D01*
X157104834Y-86277542D01*
X157084353Y-86419999D01*
X157104834Y-86562457D01*
X157164623Y-86693374D01*
X157220985Y-86758419D01*
X157258872Y-86802143D01*
X157379947Y-86879953D01*
X157518039Y-86920500D01*
X157661959Y-86920500D01*
X157661961Y-86920500D01*
X157760585Y-86891540D01*
X157776134Y-86888045D01*
X157776148Y-86888042D01*
X157785207Y-86886610D01*
X158219406Y-86729499D01*
X158261598Y-86722100D01*
X164201904Y-86722100D01*
X164249357Y-86731539D01*
X164289585Y-86758419D01*
X167259981Y-89728815D01*
X167286861Y-89769043D01*
X167296300Y-89816496D01*
X167296300Y-110647281D01*
X167286870Y-110694711D01*
X167260015Y-110734928D01*
X167050746Y-110944359D01*
X167042178Y-110957185D01*
X167032786Y-110969501D01*
X166974623Y-111036626D01*
X166914834Y-111167542D01*
X166894353Y-111310000D01*
X166914834Y-111452457D01*
X166974623Y-111583374D01*
X167068870Y-111692141D01*
X167068872Y-111692143D01*
X167189947Y-111769953D01*
X167328039Y-111810500D01*
X167332740Y-111810500D01*
X167392167Y-111825668D01*
X167437055Y-111867460D01*
X167456424Y-111925653D01*
X167445535Y-111986011D01*
X167444834Y-111987544D01*
X167424353Y-112130000D01*
X167444834Y-112272457D01*
X167504623Y-112403374D01*
X167586744Y-112498147D01*
X167598872Y-112512143D01*
X167719947Y-112589953D01*
X167858039Y-112630500D01*
X168019789Y-112630500D01*
X168019789Y-112632118D01*
X168041495Y-112630562D01*
X168090895Y-112648980D01*
X168128178Y-112686258D01*
X168146604Y-112735655D01*
X168164834Y-112862457D01*
X168224623Y-112993374D01*
X168297127Y-113077048D01*
X168318872Y-113102143D01*
X168439947Y-113179953D01*
X168578039Y-113220500D01*
X168721961Y-113220500D01*
X168860053Y-113179953D01*
X168981128Y-113102143D01*
X169075377Y-112993373D01*
X169135165Y-112862457D01*
X169155647Y-112720000D01*
X169135165Y-112577543D01*
X169126581Y-112558746D01*
X169116897Y-112526608D01*
X169116610Y-112524792D01*
X169116608Y-112524787D01*
X169116608Y-112524785D01*
X168959499Y-112090593D01*
X168952100Y-112048402D01*
X168952100Y-106899999D01*
X171854353Y-106899999D01*
X171874834Y-107042457D01*
X171934622Y-107173371D01*
X171934623Y-107173373D01*
X172027793Y-107280898D01*
X172054585Y-107332866D01*
X172054585Y-107391334D01*
X172027794Y-107443302D01*
X171969030Y-107511119D01*
X171909242Y-107642034D01*
X171888761Y-107784492D01*
X171909242Y-107926949D01*
X171917826Y-107945744D01*
X171927508Y-107977872D01*
X171927797Y-107979702D01*
X172084909Y-108413899D01*
X172092308Y-108456090D01*
X172092308Y-111497661D01*
X172089552Y-111514551D01*
X172092176Y-111571302D01*
X172092308Y-111577028D01*
X172092308Y-111596121D01*
X172093995Y-111610658D01*
X172095238Y-111637535D01*
X172098083Y-111643979D01*
X172106534Y-111671268D01*
X172107828Y-111678189D01*
X172107828Y-111678190D01*
X172107829Y-111678191D01*
X172121987Y-111701059D01*
X172129991Y-111716242D01*
X172140859Y-111740855D01*
X172145831Y-111745827D01*
X172163578Y-111768231D01*
X172167285Y-111774218D01*
X172188752Y-111790429D01*
X172201707Y-111801703D01*
X172392995Y-111992991D01*
X172416961Y-112026719D01*
X172617439Y-112441578D01*
X172623893Y-112450266D01*
X172637148Y-112472698D01*
X172659046Y-112520647D01*
X172753292Y-112629413D01*
X172753294Y-112629415D01*
X172874369Y-112707225D01*
X173012461Y-112747772D01*
X173156383Y-112747772D01*
X173267495Y-112715146D01*
X173324446Y-112712094D01*
X173376740Y-112734857D01*
X173413313Y-112778620D01*
X173426429Y-112834124D01*
X173426429Y-115166527D01*
X173416990Y-115213980D01*
X173390110Y-115254208D01*
X172649935Y-115994381D01*
X172624841Y-116013746D01*
X172234498Y-116241968D01*
X172228468Y-116244571D01*
X172098869Y-116327858D01*
X172004623Y-116436625D01*
X171944834Y-116567542D01*
X171924353Y-116710000D01*
X171944834Y-116852457D01*
X172004623Y-116983374D01*
X172066768Y-117055093D01*
X172098872Y-117092143D01*
X172219947Y-117169953D01*
X172358039Y-117210500D01*
X172501961Y-117210500D01*
X172640053Y-117169953D01*
X172761128Y-117092143D01*
X172855377Y-116983373D01*
X172871162Y-116948808D01*
X172889543Y-116920014D01*
X172889696Y-116919750D01*
X172889701Y-116919746D01*
X173126260Y-116515146D01*
X173145616Y-116490064D01*
X173989975Y-115645705D01*
X174009832Y-115629581D01*
X174017598Y-115624508D01*
X174035425Y-115601602D01*
X174045161Y-115590578D01*
X174045304Y-115590378D01*
X174056488Y-115574711D01*
X174059536Y-115570623D01*
X174089446Y-115532197D01*
X174089446Y-115532196D01*
X174094034Y-115526302D01*
X174096166Y-115519139D01*
X174096168Y-115519137D01*
X174110071Y-115472434D01*
X174111603Y-115467652D01*
X174127429Y-115421559D01*
X174127429Y-115421557D01*
X174129854Y-115414494D01*
X174129545Y-115407027D01*
X174129546Y-115407025D01*
X174127534Y-115358402D01*
X174127429Y-115353279D01*
X174127429Y-109529615D01*
X174136868Y-109482162D01*
X174163748Y-109441934D01*
X174516286Y-109089396D01*
X175590062Y-108015618D01*
X175615149Y-107996259D01*
X176005459Y-107768053D01*
X176011505Y-107765445D01*
X176020048Y-107759954D01*
X176020053Y-107759953D01*
X176141128Y-107682143D01*
X176235377Y-107573373D01*
X176295165Y-107442457D01*
X176315647Y-107300000D01*
X176297441Y-107173371D01*
X176295165Y-107157542D01*
X176235376Y-107026625D01*
X176141129Y-106917858D01*
X176141128Y-106917857D01*
X176020053Y-106840047D01*
X176020050Y-106840046D01*
X176011529Y-106834570D01*
X176005491Y-106831963D01*
X175615155Y-106603744D01*
X175590061Y-106584379D01*
X173872638Y-104866956D01*
X173856509Y-104847094D01*
X173851437Y-104839330D01*
X173828533Y-104821504D01*
X173817508Y-104811768D01*
X173801653Y-104800448D01*
X173797544Y-104797384D01*
X173753229Y-104762892D01*
X173699409Y-104746869D01*
X173694531Y-104745306D01*
X173641421Y-104727074D01*
X173585332Y-104729394D01*
X173580208Y-104729500D01*
X173151539Y-104729500D01*
X173120100Y-104725448D01*
X172971901Y-104686605D01*
X172915658Y-104654338D01*
X172883391Y-104598094D01*
X172880851Y-104588402D01*
X172844550Y-104449895D01*
X172840500Y-104418463D01*
X172840500Y-102449999D01*
X174434353Y-102449999D01*
X174454834Y-102592457D01*
X174514623Y-102723374D01*
X174608870Y-102832141D01*
X174608872Y-102832143D01*
X174729947Y-102909953D01*
X174868039Y-102950500D01*
X175011961Y-102950500D01*
X175150053Y-102909953D01*
X175271128Y-102832143D01*
X175365377Y-102723373D01*
X175388289Y-102673200D01*
X175400779Y-102651811D01*
X175407973Y-102641914D01*
X175407973Y-102641913D01*
X175407975Y-102641911D01*
X175603909Y-102223782D01*
X175628504Y-102188728D01*
X176387233Y-101429999D01*
X177874353Y-101429999D01*
X177894834Y-101572457D01*
X177954623Y-101703374D01*
X178026296Y-101786089D01*
X178048872Y-101812143D01*
X178169947Y-101889953D01*
X178308039Y-101930500D01*
X178451961Y-101930500D01*
X178590053Y-101889953D01*
X178711128Y-101812143D01*
X178733704Y-101786089D01*
X178805375Y-101703376D01*
X178805375Y-101703374D01*
X178805377Y-101703373D01*
X178829276Y-101651038D01*
X178834574Y-101640743D01*
X178835166Y-101639714D01*
X178838476Y-101633959D01*
X178846674Y-101613318D01*
X178849097Y-101607639D01*
X178865165Y-101572457D01*
X178869407Y-101542945D01*
X178871521Y-101531863D01*
X178916486Y-101343428D01*
X178945462Y-101288677D01*
X178956300Y-101276790D01*
X178958842Y-101270225D01*
X178972175Y-101244933D01*
X178976144Y-101239139D01*
X178976143Y-101239139D01*
X178976145Y-101239138D01*
X178982303Y-101212954D01*
X178987377Y-101196566D01*
X178997100Y-101171472D01*
X178997100Y-101164434D01*
X179000394Y-101136044D01*
X179000622Y-101135070D01*
X179002005Y-101129194D01*
X178998289Y-101102554D01*
X178997100Y-101085424D01*
X178997100Y-100979578D01*
X178997536Y-100969189D01*
X178998205Y-100961231D01*
X178997374Y-100948757D01*
X178997100Y-100940514D01*
X178997100Y-98901598D01*
X179004499Y-98859407D01*
X179161609Y-98425209D01*
X179161610Y-98425207D01*
X179161897Y-98423394D01*
X179171581Y-98391252D01*
X179180165Y-98372457D01*
X179200647Y-98230000D01*
X179180165Y-98087543D01*
X179143628Y-98007540D01*
X179120376Y-97956625D01*
X179026129Y-97847858D01*
X179026128Y-97847857D01*
X178905053Y-97770047D01*
X178766961Y-97729500D01*
X178623039Y-97729500D01*
X178484947Y-97770047D01*
X178363870Y-97847858D01*
X178269623Y-97956625D01*
X178209834Y-98087542D01*
X178189353Y-98229999D01*
X178209834Y-98372457D01*
X178218418Y-98391252D01*
X178228100Y-98423380D01*
X178228389Y-98425210D01*
X178385501Y-98859407D01*
X178392900Y-98901598D01*
X178392900Y-100768741D01*
X178376489Y-100830390D01*
X178331600Y-100875721D01*
X178184506Y-100961931D01*
X178178610Y-100964479D01*
X178048870Y-101047858D01*
X177954623Y-101156625D01*
X177894834Y-101287542D01*
X177874353Y-101429999D01*
X176387233Y-101429999D01*
X177589465Y-100227767D01*
X177603356Y-100217774D01*
X177610207Y-100210258D01*
X177610210Y-100210257D01*
X177641650Y-100175767D01*
X177645587Y-100171646D01*
X177658411Y-100158823D01*
X177658413Y-100158819D01*
X177659082Y-100158151D01*
X177668186Y-100146659D01*
X177686300Y-100126790D01*
X177688841Y-100120227D01*
X177702172Y-100094938D01*
X177706146Y-100089138D01*
X177712304Y-100062951D01*
X177717380Y-100046561D01*
X177727100Y-100021472D01*
X177727100Y-100014434D01*
X177730394Y-99986044D01*
X177730622Y-99985070D01*
X177732005Y-99979194D01*
X177728289Y-99952554D01*
X177727100Y-99935424D01*
X177727100Y-98901598D01*
X177734499Y-98859407D01*
X177891609Y-98425209D01*
X177891610Y-98425207D01*
X177891897Y-98423394D01*
X177901581Y-98391252D01*
X177910165Y-98372457D01*
X177930647Y-98230000D01*
X177910165Y-98087543D01*
X177873628Y-98007540D01*
X177850376Y-97956625D01*
X177756129Y-97847858D01*
X177756128Y-97847857D01*
X177635053Y-97770047D01*
X177496961Y-97729500D01*
X177353039Y-97729500D01*
X177214947Y-97770047D01*
X177093870Y-97847858D01*
X176999623Y-97956625D01*
X176939834Y-98087542D01*
X176919353Y-98229999D01*
X176939834Y-98372457D01*
X176948418Y-98391252D01*
X176958100Y-98423380D01*
X176958389Y-98425210D01*
X177115501Y-98859407D01*
X177122900Y-98901598D01*
X177122900Y-99788504D01*
X177113461Y-99835957D01*
X177086581Y-99876185D01*
X175201277Y-101761487D01*
X175166212Y-101786089D01*
X174741260Y-101985222D01*
X174731996Y-101988729D01*
X174608870Y-102067858D01*
X174514623Y-102176625D01*
X174454834Y-102307542D01*
X174434353Y-102449999D01*
X172840500Y-102449999D01*
X172840500Y-99753300D01*
X172849718Y-99706385D01*
X172876001Y-99666445D01*
X172915441Y-99639418D01*
X173086635Y-99565670D01*
X173087054Y-99566643D01*
X173096986Y-99561923D01*
X173100050Y-99559953D01*
X173100053Y-99559953D01*
X173221128Y-99482143D01*
X173315377Y-99373373D01*
X173375165Y-99242457D01*
X173395647Y-99100000D01*
X173375165Y-98957543D01*
X173350487Y-98903507D01*
X173315376Y-98826625D01*
X173221129Y-98717858D01*
X173221128Y-98717857D01*
X173100053Y-98640047D01*
X172961961Y-98599500D01*
X172818039Y-98599500D01*
X172679947Y-98640047D01*
X172558870Y-98717858D01*
X172464624Y-98826624D01*
X172443630Y-98872594D01*
X172429659Y-98895981D01*
X172423955Y-98903505D01*
X172276394Y-99200492D01*
X172259099Y-99219955D01*
X172262036Y-99222241D01*
X172231499Y-99261472D01*
X172221769Y-99272490D01*
X172210441Y-99288357D01*
X172207392Y-99292445D01*
X172190954Y-99313566D01*
X172172891Y-99336773D01*
X172156871Y-99390582D01*
X172155309Y-99395458D01*
X172137074Y-99448577D01*
X172139394Y-99504668D01*
X172139500Y-99509792D01*
X172139500Y-104418462D01*
X172135449Y-104449894D01*
X172057807Y-104746138D01*
X172014135Y-104912769D01*
X172006983Y-104932837D01*
X172004835Y-104937540D01*
X171984353Y-105080000D01*
X172004834Y-105222457D01*
X172064623Y-105353374D01*
X172139632Y-105439939D01*
X172158872Y-105462143D01*
X172279947Y-105539953D01*
X172418039Y-105580500D01*
X172561959Y-105580500D01*
X172561961Y-105580500D01*
X172637491Y-105558321D01*
X172662839Y-105553672D01*
X172666744Y-105553370D01*
X173120104Y-105434550D01*
X173151537Y-105430500D01*
X173393456Y-105430500D01*
X173440909Y-105439939D01*
X173481137Y-105466819D01*
X175094378Y-107080060D01*
X175113743Y-107105154D01*
X175191071Y-107237412D01*
X175208025Y-107299999D01*
X175191071Y-107362586D01*
X175113744Y-107494843D01*
X175094379Y-107519937D01*
X173563884Y-109050432D01*
X173544033Y-109066554D01*
X173518946Y-109082947D01*
X173518195Y-109081798D01*
X173495906Y-109099146D01*
X173435857Y-109109164D01*
X173378277Y-109089396D01*
X173337045Y-109044605D01*
X173322100Y-108985588D01*
X173322100Y-107629509D01*
X173324855Y-107612618D01*
X173324385Y-107602461D01*
X173324386Y-107602460D01*
X173322232Y-107555868D01*
X173322100Y-107550142D01*
X173322100Y-107531049D01*
X173320411Y-107516500D01*
X173319170Y-107489636D01*
X173316325Y-107483192D01*
X173307872Y-107455895D01*
X173307693Y-107454940D01*
X173306579Y-107448979D01*
X173292420Y-107426110D01*
X173284414Y-107410922D01*
X173273549Y-107386315D01*
X173268575Y-107381341D01*
X173250829Y-107358937D01*
X173247123Y-107352952D01*
X173247122Y-107352951D01*
X173225651Y-107336737D01*
X173212703Y-107325469D01*
X173048508Y-107161274D01*
X173023906Y-107126209D01*
X173014040Y-107105154D01*
X172827975Y-106708088D01*
X172820771Y-106698176D01*
X172808286Y-106676790D01*
X172785377Y-106626626D01*
X172691129Y-106517858D01*
X172691128Y-106517857D01*
X172570053Y-106440047D01*
X172431961Y-106399500D01*
X172288039Y-106399500D01*
X172149947Y-106440047D01*
X172028870Y-106517858D01*
X171934623Y-106626625D01*
X171874834Y-106757542D01*
X171854353Y-106899999D01*
X168952100Y-106899999D01*
X168952100Y-91060000D01*
X174024353Y-91060000D01*
X174044834Y-91202457D01*
X174104623Y-91333374D01*
X174198870Y-91442141D01*
X174198872Y-91442143D01*
X174319947Y-91519953D01*
X174319948Y-91519953D01*
X174321753Y-91521113D01*
X174330101Y-91524219D01*
X174496816Y-91600007D01*
X174535144Y-91627217D01*
X174560591Y-91666737D01*
X174569500Y-91712890D01*
X174569500Y-94638462D01*
X174565449Y-94669894D01*
X174504678Y-94901769D01*
X174444135Y-95132769D01*
X174436983Y-95152837D01*
X174434835Y-95157540D01*
X174414353Y-95300000D01*
X174434834Y-95442457D01*
X174494623Y-95573374D01*
X174552691Y-95640388D01*
X174588872Y-95682143D01*
X174709947Y-95759953D01*
X174848039Y-95800500D01*
X174991961Y-95800500D01*
X175130053Y-95759953D01*
X175251128Y-95682143D01*
X175345377Y-95573373D01*
X175405165Y-95442457D01*
X175425647Y-95300000D01*
X175405165Y-95157543D01*
X175403015Y-95152835D01*
X175395861Y-95132761D01*
X175393370Y-95123255D01*
X175274550Y-94669895D01*
X175270500Y-94638463D01*
X175270500Y-91499207D01*
X175273139Y-91473761D01*
X175273173Y-91473594D01*
X175275042Y-91464685D01*
X175271452Y-91435884D01*
X175270540Y-91421205D01*
X175270500Y-91420965D01*
X175270500Y-91420960D01*
X175267331Y-91401972D01*
X175266594Y-91396915D01*
X175260573Y-91348607D01*
X175260572Y-91348605D01*
X175259648Y-91341191D01*
X175256092Y-91334620D01*
X175256092Y-91334619D01*
X175232925Y-91291811D01*
X175230581Y-91287256D01*
X175205917Y-91236804D01*
X175165485Y-91199584D01*
X175137463Y-91161563D01*
X175131992Y-91150047D01*
X174997539Y-90867026D01*
X174997538Y-90867025D01*
X174997536Y-90867020D01*
X174990661Y-90857653D01*
X174977834Y-90835801D01*
X174955377Y-90786627D01*
X174955376Y-90786626D01*
X174955375Y-90786623D01*
X174861129Y-90677858D01*
X174861128Y-90677857D01*
X174740053Y-90600047D01*
X174601961Y-90559500D01*
X174458039Y-90559500D01*
X174319947Y-90600047D01*
X174198870Y-90677858D01*
X174104623Y-90786625D01*
X174044834Y-90917542D01*
X174024353Y-91060000D01*
X168952100Y-91060000D01*
X168952100Y-90136496D01*
X168961539Y-90089043D01*
X168988419Y-90048815D01*
X169723368Y-89313866D01*
X171948728Y-87088504D01*
X171983786Y-87063907D01*
X172401911Y-86867975D01*
X172401913Y-86867973D01*
X172408728Y-86864780D01*
X172418008Y-86861266D01*
X172420049Y-86859954D01*
X172420053Y-86859953D01*
X172541128Y-86782143D01*
X172635377Y-86673373D01*
X172695165Y-86542457D01*
X172715647Y-86400000D01*
X172695165Y-86257543D01*
X172686281Y-86238091D01*
X172664318Y-86190000D01*
X184734531Y-86190000D01*
X184754364Y-86416689D01*
X184813261Y-86636497D01*
X184909432Y-86842735D01*
X185039953Y-87029140D01*
X185200859Y-87190046D01*
X185387264Y-87320567D01*
X185387265Y-87320567D01*
X185387266Y-87320568D01*
X185593504Y-87416739D01*
X185813308Y-87475635D01*
X185898262Y-87483067D01*
X185983214Y-87490500D01*
X185983216Y-87490500D01*
X186096784Y-87490500D01*
X186096786Y-87490500D01*
X186164747Y-87484553D01*
X186266692Y-87475635D01*
X186486496Y-87416739D01*
X186692734Y-87320568D01*
X186879139Y-87190047D01*
X187040047Y-87029139D01*
X187170568Y-86842734D01*
X187266739Y-86636496D01*
X187325635Y-86416692D01*
X187345468Y-86190000D01*
X187325635Y-85963308D01*
X187266739Y-85743504D01*
X187170568Y-85537266D01*
X187040047Y-85350861D01*
X187040046Y-85350859D01*
X186879140Y-85189953D01*
X186692735Y-85059432D01*
X186486497Y-84963261D01*
X186266689Y-84904364D01*
X186096786Y-84889500D01*
X186096784Y-84889500D01*
X185983216Y-84889500D01*
X185983214Y-84889500D01*
X185813310Y-84904364D01*
X185593502Y-84963261D01*
X185387264Y-85059432D01*
X185200859Y-85189953D01*
X185039953Y-85350859D01*
X184909432Y-85537264D01*
X184813261Y-85743502D01*
X184754364Y-85963310D01*
X184734531Y-86190000D01*
X172664318Y-86190000D01*
X172638147Y-86132693D01*
X172635377Y-86126627D01*
X172635376Y-86126626D01*
X172635376Y-86126625D01*
X172541129Y-86017858D01*
X172541128Y-86017857D01*
X172420053Y-85940047D01*
X172281961Y-85899500D01*
X172138039Y-85899500D01*
X171999947Y-85940047D01*
X171878870Y-86017858D01*
X171784622Y-86126626D01*
X171761714Y-86176787D01*
X171749228Y-86198174D01*
X171742023Y-86208087D01*
X171546088Y-86626214D01*
X171521486Y-86661279D01*
X168515381Y-89667384D01*
X168466018Y-89697634D01*
X168408302Y-89702176D01*
X168354815Y-89680021D01*
X168317215Y-89635998D01*
X168303700Y-89579703D01*
X168303700Y-87141108D01*
X168306455Y-87124217D01*
X168305985Y-87114060D01*
X168305986Y-87114059D01*
X168303832Y-87067467D01*
X168303700Y-87061741D01*
X168303700Y-87042649D01*
X168302011Y-87028100D01*
X168300770Y-87001236D01*
X168297925Y-86994792D01*
X168289472Y-86967493D01*
X168288179Y-86960580D01*
X168288179Y-86960579D01*
X168274019Y-86937710D01*
X168266011Y-86922518D01*
X168265120Y-86920500D01*
X168255148Y-86897914D01*
X168250175Y-86892941D01*
X168232429Y-86870537D01*
X168228723Y-86864552D01*
X168227268Y-86863453D01*
X168207251Y-86848337D01*
X168194303Y-86837069D01*
X168048508Y-86691274D01*
X168023906Y-86656209D01*
X168014669Y-86636497D01*
X167827975Y-86238088D01*
X167820771Y-86228176D01*
X167808286Y-86206790D01*
X167785377Y-86156626D01*
X167691129Y-86047858D01*
X167691128Y-86047857D01*
X167570053Y-85970047D01*
X167570051Y-85970046D01*
X167570049Y-85970045D01*
X167569585Y-85969909D01*
X167510807Y-85932134D01*
X167481784Y-85868578D01*
X167491729Y-85799419D01*
X167537480Y-85746620D01*
X167591128Y-85712143D01*
X167685377Y-85603373D01*
X167745165Y-85472457D01*
X167765647Y-85330000D01*
X168954353Y-85330000D01*
X168974834Y-85472457D01*
X169034623Y-85603374D01*
X169124846Y-85707497D01*
X169128872Y-85712143D01*
X169249947Y-85789953D01*
X169388039Y-85830500D01*
X169531961Y-85830500D01*
X169670053Y-85789953D01*
X169791128Y-85712143D01*
X169885377Y-85603373D01*
X169945165Y-85472457D01*
X169965647Y-85330000D01*
X176614353Y-85330000D01*
X176634834Y-85472457D01*
X176694623Y-85603374D01*
X176784846Y-85707497D01*
X176788872Y-85712143D01*
X176909947Y-85789953D01*
X177048039Y-85830500D01*
X177191961Y-85830500D01*
X177330053Y-85789953D01*
X177451128Y-85712143D01*
X177545377Y-85603373D01*
X177605165Y-85472457D01*
X177625647Y-85330000D01*
X178814353Y-85330000D01*
X178834834Y-85472457D01*
X178894623Y-85603374D01*
X178984846Y-85707497D01*
X178988872Y-85712143D01*
X179109947Y-85789953D01*
X179248039Y-85830500D01*
X179391961Y-85830500D01*
X179530053Y-85789953D01*
X179651128Y-85712143D01*
X179745377Y-85603373D01*
X179805165Y-85472457D01*
X179825647Y-85330000D01*
X179805165Y-85187543D01*
X179745377Y-85056627D01*
X179745376Y-85056626D01*
X179745376Y-85056625D01*
X179651129Y-84947858D01*
X179651128Y-84947857D01*
X179530053Y-84870047D01*
X179391961Y-84829500D01*
X179248039Y-84829500D01*
X179109947Y-84870047D01*
X178988870Y-84947858D01*
X178894623Y-85056625D01*
X178834834Y-85187542D01*
X178814353Y-85330000D01*
X177625647Y-85330000D01*
X177605165Y-85187543D01*
X177545377Y-85056627D01*
X177545376Y-85056626D01*
X177545376Y-85056625D01*
X177451129Y-84947858D01*
X177451128Y-84947857D01*
X177330053Y-84870047D01*
X177191961Y-84829500D01*
X177048039Y-84829500D01*
X176909947Y-84870047D01*
X176788870Y-84947858D01*
X176694623Y-85056625D01*
X176634834Y-85187542D01*
X176614353Y-85330000D01*
X169965647Y-85330000D01*
X169945165Y-85187543D01*
X169885377Y-85056627D01*
X169885376Y-85056626D01*
X169885376Y-85056625D01*
X169791129Y-84947858D01*
X169791128Y-84947857D01*
X169670053Y-84870047D01*
X169531961Y-84829500D01*
X169388039Y-84829500D01*
X169249947Y-84870047D01*
X169128870Y-84947858D01*
X169034623Y-85056625D01*
X168974834Y-85187542D01*
X168954353Y-85330000D01*
X167765647Y-85330000D01*
X167745165Y-85187543D01*
X167685377Y-85056627D01*
X167685376Y-85056626D01*
X167685376Y-85056625D01*
X167591129Y-84947858D01*
X167591128Y-84947857D01*
X167470053Y-84870047D01*
X167331961Y-84829500D01*
X167188039Y-84829500D01*
X167049947Y-84870047D01*
X166928870Y-84947858D01*
X166834623Y-85056625D01*
X166774834Y-85187542D01*
X166754353Y-85330000D01*
X166774834Y-85472457D01*
X166834623Y-85603374D01*
X166924846Y-85707497D01*
X166928872Y-85712143D01*
X167049947Y-85789953D01*
X167050413Y-85790089D01*
X167099322Y-85817709D01*
X167131028Y-85864077D01*
X167139022Y-85919677D01*
X167121664Y-85973099D01*
X167082516Y-86013382D01*
X167028870Y-86047857D01*
X166934623Y-86156625D01*
X166874834Y-86287542D01*
X166854353Y-86430000D01*
X166874834Y-86572457D01*
X166934623Y-86703374D01*
X167028869Y-86812141D01*
X167028871Y-86812142D01*
X167028872Y-86812143D01*
X167149947Y-86889953D01*
X167149950Y-86889953D01*
X167151995Y-86891268D01*
X167161269Y-86894779D01*
X167168085Y-86897973D01*
X167168088Y-86897975D01*
X167586210Y-87093906D01*
X167621274Y-87118508D01*
X167663181Y-87160415D01*
X167690061Y-87200643D01*
X167699500Y-87248096D01*
X167699500Y-89014504D01*
X167685985Y-89070799D01*
X167648385Y-89114822D01*
X167594898Y-89136977D01*
X167537182Y-89132435D01*
X167487819Y-89102185D01*
X164641168Y-86255534D01*
X164631171Y-86241639D01*
X164589193Y-86203372D01*
X164585049Y-86199415D01*
X164571553Y-86185919D01*
X164560066Y-86176819D01*
X164540191Y-86158700D01*
X164533628Y-86156158D01*
X164508339Y-86142828D01*
X164502538Y-86138854D01*
X164502537Y-86138853D01*
X164502536Y-86138853D01*
X164476349Y-86132693D01*
X164459951Y-86127615D01*
X164434872Y-86117900D01*
X164427834Y-86117900D01*
X164399444Y-86114606D01*
X164392594Y-86112995D01*
X164365954Y-86116711D01*
X164348824Y-86117900D01*
X158261598Y-86117900D01*
X158219406Y-86110501D01*
X158090751Y-86063947D01*
X158090747Y-86063945D01*
X158090747Y-86063946D01*
X158083950Y-86061486D01*
X158083949Y-86061486D01*
X157785206Y-85953389D01*
X157785205Y-85953388D01*
X157785203Y-85953388D01*
X157776119Y-85951951D01*
X157760558Y-85948450D01*
X157748487Y-85944905D01*
X157689711Y-85907129D01*
X157660689Y-85843572D01*
X157670636Y-85774414D01*
X157716389Y-85721614D01*
X157731128Y-85712143D01*
X157825377Y-85603373D01*
X157885165Y-85472457D01*
X157905647Y-85330000D01*
X159094353Y-85330000D01*
X159114834Y-85472457D01*
X159174623Y-85603374D01*
X159264846Y-85707497D01*
X159268872Y-85712143D01*
X159389947Y-85789953D01*
X159528039Y-85830500D01*
X159671961Y-85830500D01*
X159810053Y-85789953D01*
X159931128Y-85712143D01*
X160025377Y-85603373D01*
X160085165Y-85472457D01*
X160105647Y-85330000D01*
X160085165Y-85187543D01*
X160025377Y-85056627D01*
X160025376Y-85056626D01*
X160025376Y-85056625D01*
X159931129Y-84947858D01*
X159931128Y-84947857D01*
X159810053Y-84870047D01*
X159671961Y-84829500D01*
X159528039Y-84829500D01*
X159389947Y-84870047D01*
X159268870Y-84947858D01*
X159174623Y-85056625D01*
X159114834Y-85187542D01*
X159094353Y-85330000D01*
X157905647Y-85330000D01*
X157885165Y-85187543D01*
X157825377Y-85056627D01*
X157825376Y-85056626D01*
X157825376Y-85056625D01*
X157731129Y-84947858D01*
X157731128Y-84947857D01*
X157610053Y-84870047D01*
X157471961Y-84829500D01*
X157328039Y-84829500D01*
X157189947Y-84870047D01*
X157068870Y-84947858D01*
X156974623Y-85056625D01*
X156914834Y-85187542D01*
X156894353Y-85330000D01*
X116967500Y-85330000D01*
X116967500Y-83704054D01*
X116984116Y-83642049D01*
X117029510Y-83596661D01*
X117091516Y-83580054D01*
X153461198Y-83585077D01*
G37*
%TD.AperFunction*%
%TD*%
%TA.AperFunction,Conductor*%
%TO.N,/Key&LED/KEY2*%
G36*
X167641892Y-86325286D02*
G01*
X167852622Y-86774987D01*
X167853552Y-86781973D01*
X167850301Y-86788225D01*
X167718225Y-86920301D01*
X167711973Y-86923552D01*
X167704987Y-86922622D01*
X167255286Y-86711892D01*
X167249349Y-86705545D01*
X167249428Y-86696854D01*
X167357436Y-86433815D01*
X167359986Y-86429986D01*
X167363815Y-86427436D01*
X167626855Y-86319427D01*
X167635545Y-86319349D01*
X167641892Y-86325286D01*
G37*
%TD.AperFunction*%
%TD*%
%TA.AperFunction,Conductor*%
%TO.N,/MCU/LCD_LED*%
G36*
X158300043Y-127924169D02*
G01*
X158304310Y-127929897D01*
X158463612Y-128394830D01*
X158463215Y-128403419D01*
X158457055Y-128409418D01*
X158194511Y-128519115D01*
X158190000Y-128520019D01*
X158185489Y-128519115D01*
X157923321Y-128409575D01*
X157917075Y-128403380D01*
X157916910Y-128394586D01*
X158095517Y-127929493D01*
X158099813Y-127924046D01*
X158106439Y-127921989D01*
X158293242Y-127921989D01*
X158300043Y-127924169D01*
G37*
%TD.AperFunction*%
%TD*%
%TA.AperFunction,Conductor*%
%TO.N,/TFT/T_XM*%
G36*
X141740571Y-117055620D02*
G01*
X141744879Y-117060217D01*
X141981279Y-117513901D01*
X141982573Y-117520143D01*
X141980403Y-117526137D01*
X141975414Y-117530104D01*
X141714511Y-117639115D01*
X141710000Y-117640019D01*
X141705489Y-117639115D01*
X141441886Y-117528976D01*
X141436005Y-117523555D01*
X141434980Y-117515623D01*
X141536352Y-117063067D01*
X141540456Y-117056491D01*
X141547769Y-117053924D01*
X141734503Y-117053924D01*
X141740571Y-117055620D01*
G37*
%TD.AperFunction*%
%TD*%
%TA.AperFunction,Conductor*%
%TO.N,+5V*%
G36*
X180498119Y-110612437D02*
G01*
X180502289Y-110618734D01*
X180624584Y-111085354D01*
X180623753Y-111093507D01*
X180617777Y-111099116D01*
X180354511Y-111209115D01*
X180350000Y-111210019D01*
X180345489Y-111209115D01*
X180082222Y-111099116D01*
X180076246Y-111093507D01*
X180075415Y-111085354D01*
X180197711Y-110618734D01*
X180201881Y-110612437D01*
X180209029Y-110610000D01*
X180490971Y-110610000D01*
X180498119Y-110612437D01*
G37*
%TD.AperFunction*%
%TD*%
%TA.AperFunction,Conductor*%
%TO.N,VCC*%
G36*
X153704507Y-90360883D02*
G01*
X153941497Y-90459902D01*
X153967777Y-90470883D01*
X153973753Y-90476492D01*
X153974584Y-90484645D01*
X153852289Y-90951266D01*
X153848119Y-90957563D01*
X153840971Y-90960000D01*
X153559029Y-90960000D01*
X153551881Y-90957563D01*
X153547711Y-90951266D01*
X153425415Y-90484645D01*
X153426246Y-90476492D01*
X153432221Y-90470883D01*
X153695492Y-90360883D01*
X153700000Y-90359980D01*
X153704507Y-90360883D01*
G37*
%TD.AperFunction*%
%TD*%
%TA.AperFunction,Conductor*%
%TO.N,/MCU/CAN_RX*%
G36*
X166077132Y-101709131D02*
G01*
X166081426Y-101713538D01*
X166082891Y-101719514D01*
X166070292Y-102208638D01*
X166066776Y-102216702D01*
X166058635Y-102220037D01*
X165774885Y-102220983D01*
X165770374Y-102220095D01*
X165766553Y-102217537D01*
X165566395Y-102016435D01*
X165563348Y-102011059D01*
X165563463Y-102004881D01*
X165566708Y-101999625D01*
X165876629Y-101710655D01*
X165884608Y-101707513D01*
X166071195Y-101707513D01*
X166077132Y-101709131D01*
G37*
%TD.AperFunction*%
%TD*%
%TA.AperFunction,Conductor*%
%TO.N,VCC*%
G36*
X174811920Y-90955207D02*
G01*
X175062056Y-91481736D01*
X175062885Y-91489401D01*
X175058767Y-91495917D01*
X175051488Y-91498457D01*
X174772534Y-91498457D01*
X174767692Y-91497408D01*
X174764412Y-91495917D01*
X174425477Y-91341838D01*
X174419438Y-91335487D01*
X174419504Y-91326723D01*
X174528142Y-91063501D01*
X174530688Y-91059689D01*
X174534505Y-91057150D01*
X174796910Y-90949404D01*
X174805570Y-90949315D01*
X174811920Y-90955207D01*
G37*
%TD.AperFunction*%
%TD*%
%TA.AperFunction,Conductor*%
%TO.N,/Key&LED/KEY2*%
G36*
X168101128Y-111546821D02*
G01*
X168105226Y-111553420D01*
X168205056Y-112005646D01*
X168204015Y-112013559D01*
X168198142Y-112018964D01*
X167934511Y-112129115D01*
X167930000Y-112130019D01*
X167925489Y-112129115D01*
X167664620Y-112020118D01*
X167659624Y-112016141D01*
X167657459Y-112010134D01*
X167658770Y-112003887D01*
X167896713Y-111550504D01*
X167901020Y-111545929D01*
X167907073Y-111544242D01*
X168093801Y-111544242D01*
X168101128Y-111546821D01*
G37*
%TD.AperFunction*%
%TD*%
%TA.AperFunction,Conductor*%
%TO.N,/TFT/T_XP*%
G36*
X143224507Y-94890883D02*
G01*
X143486880Y-95000508D01*
X143493081Y-95006598D01*
X143493371Y-95015285D01*
X143324393Y-95482281D01*
X143320111Y-95487878D01*
X143313391Y-95490000D01*
X143126609Y-95490000D01*
X143119889Y-95487878D01*
X143115607Y-95482281D01*
X142946628Y-95015285D01*
X142946918Y-95006598D01*
X142953118Y-95000508D01*
X143215492Y-94890883D01*
X143220000Y-94889980D01*
X143224507Y-94890883D01*
G37*
%TD.AperFunction*%
%TD*%
%TA.AperFunction,Conductor*%
%TO.N,/MCU/MCU_TXD*%
G36*
X172732966Y-111761137D02*
G01*
X172738244Y-111764618D01*
X172795801Y-111831043D01*
X172895190Y-111894916D01*
X172916876Y-111908853D01*
X173054968Y-111949400D01*
X173150896Y-111949400D01*
X173155715Y-111950439D01*
X173188931Y-111965454D01*
X173194985Y-111971794D01*
X173194935Y-111980559D01*
X173086985Y-112243456D01*
X173084435Y-112247285D01*
X173080606Y-112249835D01*
X172817444Y-112357894D01*
X172808818Y-112357998D01*
X172802467Y-112352163D01*
X172587962Y-111908277D01*
X172586961Y-111901235D01*
X172590222Y-111894916D01*
X172721132Y-111764006D01*
X172726645Y-111760911D01*
X172732966Y-111761137D01*
G37*
%TD.AperFunction*%
%TD*%
%TA.AperFunction,Conductor*%
%TO.N,VCC*%
G36*
X173081266Y-104927711D02*
G01*
X173087563Y-104931881D01*
X173090000Y-104939029D01*
X173090000Y-105220971D01*
X173087563Y-105228119D01*
X173081266Y-105232289D01*
X172614645Y-105354584D01*
X172606492Y-105353753D01*
X172600883Y-105347777D01*
X172589902Y-105321497D01*
X172490883Y-105084507D01*
X172489980Y-105080000D01*
X172490883Y-105075492D01*
X172600883Y-104812221D01*
X172606492Y-104806246D01*
X172614645Y-104805415D01*
X173081266Y-104927711D01*
G37*
%TD.AperFunction*%
%TD*%
%TA.AperFunction,Conductor*%
%TO.N,LCD_3V3*%
G36*
X156518119Y-97552437D02*
G01*
X156522289Y-97558734D01*
X156644584Y-98025354D01*
X156643753Y-98033507D01*
X156637777Y-98039116D01*
X156374511Y-98149115D01*
X156370000Y-98150019D01*
X156365489Y-98149115D01*
X156102222Y-98039116D01*
X156096246Y-98033507D01*
X156095415Y-98025354D01*
X156217711Y-97558734D01*
X156221881Y-97552437D01*
X156229029Y-97550000D01*
X156510971Y-97550000D01*
X156518119Y-97552437D01*
G37*
%TD.AperFunction*%
%TD*%
%TA.AperFunction,Conductor*%
%TO.N,/TFT/LED-*%
G36*
X137714507Y-121460883D02*
G01*
X137976880Y-121570508D01*
X137983081Y-121576598D01*
X137983371Y-121585285D01*
X137814393Y-122052281D01*
X137810111Y-122057878D01*
X137803391Y-122060000D01*
X137616609Y-122060000D01*
X137609889Y-122057878D01*
X137605607Y-122052281D01*
X137436628Y-121585285D01*
X137436918Y-121576598D01*
X137443118Y-121570508D01*
X137705492Y-121460883D01*
X137710000Y-121459980D01*
X137714507Y-121460883D01*
G37*
%TD.AperFunction*%
%TD*%
%TA.AperFunction,Conductor*%
%TO.N,/MCU/TOUCH_CS*%
G36*
X163265012Y-114197377D02*
G01*
X163714713Y-114408107D01*
X163720650Y-114414454D01*
X163720571Y-114423145D01*
X163612563Y-114686184D01*
X163610013Y-114690013D01*
X163606184Y-114692563D01*
X163343145Y-114800571D01*
X163334454Y-114800650D01*
X163328107Y-114794713D01*
X163117377Y-114345012D01*
X163116447Y-114338026D01*
X163119696Y-114331776D01*
X163251776Y-114199696D01*
X163258026Y-114196447D01*
X163265012Y-114197377D01*
G37*
%TD.AperFunction*%
%TD*%
%TA.AperFunction,Conductor*%
%TO.N,/TFT/T_YP*%
G36*
X142610111Y-117512122D02*
G01*
X142614393Y-117517719D01*
X142783371Y-117984714D01*
X142783081Y-117993401D01*
X142776880Y-117999491D01*
X142514511Y-118109115D01*
X142510000Y-118110019D01*
X142505489Y-118109115D01*
X142243119Y-117999491D01*
X142236918Y-117993401D01*
X142236628Y-117984714D01*
X142405607Y-117517719D01*
X142409889Y-117512122D01*
X142416609Y-117510000D01*
X142603391Y-117510000D01*
X142610111Y-117512122D01*
G37*
%TD.AperFunction*%
%TD*%
%TA.AperFunction,Conductor*%
%TO.N,/Key&LED/KEY3*%
G36*
X168750111Y-112122122D02*
G01*
X168754393Y-112127719D01*
X168923371Y-112594714D01*
X168923081Y-112603401D01*
X168916880Y-112609491D01*
X168654511Y-112719115D01*
X168650000Y-112720019D01*
X168645489Y-112719115D01*
X168383119Y-112609491D01*
X168376918Y-112603401D01*
X168376628Y-112594714D01*
X168545607Y-112127719D01*
X168549889Y-112122122D01*
X168556609Y-112120000D01*
X168743391Y-112120000D01*
X168750111Y-112122122D01*
G37*
%TD.AperFunction*%
%TD*%
%TA.AperFunction,Conductor*%
%TO.N,/MCU/TOUCH_INT*%
G36*
X164398307Y-96650883D02*
G01*
X164660790Y-96760554D01*
X164666965Y-96766587D01*
X164667321Y-96775214D01*
X164504342Y-97240932D01*
X164500069Y-97246609D01*
X164493299Y-97248767D01*
X164306504Y-97248767D01*
X164299842Y-97246685D01*
X164295551Y-97241181D01*
X164120602Y-96775366D01*
X164120815Y-96766611D01*
X164127043Y-96760456D01*
X164389292Y-96650883D01*
X164393800Y-96649980D01*
X164398307Y-96650883D01*
G37*
%TD.AperFunction*%
%TD*%
%TA.AperFunction,Conductor*%
%TO.N,/Key&LED/KEY1*%
G36*
X167696073Y-110792120D02*
G01*
X167699500Y-110800393D01*
X167699500Y-111298341D01*
X167696087Y-111306600D01*
X167687840Y-111310040D01*
X167576735Y-111310410D01*
X167404885Y-111310983D01*
X167400374Y-111310095D01*
X167396553Y-111307537D01*
X167395620Y-111306600D01*
X167196097Y-111106136D01*
X167192691Y-111097872D01*
X167196113Y-111089615D01*
X167493372Y-110792123D01*
X167497169Y-110789584D01*
X167501649Y-110788693D01*
X167687800Y-110788693D01*
X167696073Y-110792120D01*
G37*
%TD.AperFunction*%
%TD*%
%TA.AperFunction,Conductor*%
%TO.N,LCD_3V3*%
G36*
X156317673Y-92761694D02*
G01*
X156321244Y-92766826D01*
X156514536Y-93317736D01*
X156514678Y-93325052D01*
X156510446Y-93331022D01*
X156503496Y-93333310D01*
X156223385Y-93333310D01*
X156217138Y-93331503D01*
X156206921Y-93325052D01*
X155933518Y-93152419D01*
X155928617Y-93146075D01*
X155928951Y-93138063D01*
X156038142Y-92873501D01*
X156040688Y-92869689D01*
X156044505Y-92867150D01*
X156305761Y-92759876D01*
X156311968Y-92759134D01*
X156317673Y-92761694D01*
G37*
%TD.AperFunction*%
%TD*%
%TA.AperFunction,Conductor*%
%TO.N,/TFT/T_YM*%
G36*
X141010111Y-117502122D02*
G01*
X141014393Y-117507719D01*
X141183371Y-117974714D01*
X141183081Y-117983401D01*
X141176880Y-117989491D01*
X140914511Y-118099115D01*
X140910000Y-118100019D01*
X140905489Y-118099115D01*
X140643119Y-117989491D01*
X140636918Y-117983401D01*
X140636628Y-117974714D01*
X140805607Y-117507719D01*
X140809889Y-117502122D01*
X140816609Y-117500000D01*
X141003391Y-117500000D01*
X141010111Y-117502122D01*
G37*
%TD.AperFunction*%
%TD*%
%TA.AperFunction,Conductor*%
%TO.N,/MCU/TXD*%
G36*
X178939393Y-120845513D02*
G01*
X178942834Y-120853761D01*
X178943775Y-121136214D01*
X178942887Y-121140725D01*
X178940329Y-121144546D01*
X178738549Y-121345379D01*
X178730559Y-121348783D01*
X178722424Y-121345743D01*
X178501148Y-121144546D01*
X178413753Y-121065080D01*
X178410925Y-121061158D01*
X178409925Y-121056425D01*
X178409925Y-120869726D01*
X178413219Y-120861588D01*
X178421243Y-120858032D01*
X178911806Y-120842105D01*
X178912185Y-120842100D01*
X178931134Y-120842100D01*
X178939393Y-120845513D01*
G37*
%TD.AperFunction*%
%TD*%
%TA.AperFunction,Conductor*%
%TO.N,/MCU/SWCLK*%
G36*
X155640111Y-104662122D02*
G01*
X155644393Y-104667719D01*
X155813371Y-105134714D01*
X155813081Y-105143401D01*
X155806880Y-105149491D01*
X155544510Y-105259115D01*
X155539999Y-105260019D01*
X155535488Y-105259115D01*
X155452886Y-105224602D01*
X155273119Y-105149491D01*
X155266918Y-105143401D01*
X155266628Y-105134714D01*
X155435607Y-104667719D01*
X155439889Y-104662122D01*
X155446609Y-104660000D01*
X155633391Y-104660000D01*
X155640111Y-104662122D01*
G37*
%TD.AperFunction*%
%TD*%
%TA.AperFunction,Conductor*%
%TO.N,VCC*%
G36*
X172638119Y-104482437D02*
G01*
X172642289Y-104488734D01*
X172764584Y-104955354D01*
X172763753Y-104963507D01*
X172757777Y-104969116D01*
X172494511Y-105079115D01*
X172490000Y-105080019D01*
X172485489Y-105079115D01*
X172222222Y-104969116D01*
X172216246Y-104963507D01*
X172215415Y-104955354D01*
X172337711Y-104488734D01*
X172341881Y-104482437D01*
X172349029Y-104480000D01*
X172630971Y-104480000D01*
X172638119Y-104482437D01*
G37*
%TD.AperFunction*%
%TD*%
%TA.AperFunction,Conductor*%
%TO.N,/MCU/MCU_RXD*%
G36*
X173120757Y-110871669D02*
G01*
X173125019Y-110875784D01*
X173397010Y-111322463D01*
X173398713Y-111328864D01*
X173396667Y-111335164D01*
X173391528Y-111339344D01*
X173129111Y-111448988D01*
X173124561Y-111449892D01*
X172840577Y-111448945D01*
X172834223Y-111447044D01*
X172829923Y-111441994D01*
X172829059Y-111435421D01*
X172916840Y-110880042D01*
X172920797Y-110872973D01*
X172928397Y-110870169D01*
X173115026Y-110870169D01*
X173120757Y-110871669D01*
G37*
%TD.AperFunction*%
%TD*%
%TA.AperFunction,Conductor*%
%TO.N,LCD_3V3*%
G36*
X151768119Y-121322437D02*
G01*
X151772289Y-121328734D01*
X151894584Y-121795354D01*
X151893753Y-121803507D01*
X151887777Y-121809116D01*
X151624511Y-121919115D01*
X151620000Y-121920019D01*
X151615489Y-121919115D01*
X151352222Y-121809116D01*
X151346246Y-121803507D01*
X151345415Y-121795354D01*
X151467711Y-121328734D01*
X151471881Y-121322437D01*
X151479029Y-121320000D01*
X151760971Y-121320000D01*
X151768119Y-121322437D01*
G37*
%TD.AperFunction*%
%TD*%
%TA.AperFunction,Conductor*%
%TO.N,VCC*%
G36*
X175499593Y-106774225D02*
G01*
X175916023Y-107017701D01*
X175921202Y-107024053D01*
X175920941Y-107032245D01*
X175812563Y-107296184D01*
X175810013Y-107300013D01*
X175806184Y-107302563D01*
X175542245Y-107410941D01*
X175534053Y-107411202D01*
X175527701Y-107406023D01*
X175284225Y-106989593D01*
X175282722Y-106982196D01*
X175286052Y-106975419D01*
X175485419Y-106776052D01*
X175492196Y-106772722D01*
X175499593Y-106774225D01*
G37*
%TD.AperFunction*%
%TD*%
%TA.AperFunction,Conductor*%
%TO.N,+5V*%
G36*
X180597370Y-117896936D02*
G01*
X180601214Y-117904313D01*
X180668470Y-118476978D01*
X180667413Y-118483375D01*
X180663112Y-118488226D01*
X180656889Y-118490043D01*
X180370039Y-118490999D01*
X180369961Y-118490999D01*
X180082262Y-118490040D01*
X180076260Y-118488360D01*
X180071972Y-118483836D01*
X180070616Y-118477752D01*
X180099441Y-117905090D01*
X180103063Y-117897199D01*
X180111126Y-117893978D01*
X180589594Y-117893978D01*
X180597370Y-117896936D01*
G37*
%TD.AperFunction*%
%TD*%
%TA.AperFunction,Conductor*%
%TO.N,VCC*%
G36*
X171615955Y-121950581D02*
G01*
X171877815Y-122058103D01*
X171881663Y-122060671D01*
X172083504Y-122263463D01*
X172086562Y-122268883D01*
X172086410Y-122275104D01*
X172083090Y-122280367D01*
X171783348Y-122553397D01*
X171775469Y-122556447D01*
X171494285Y-122556447D01*
X171487778Y-122554471D01*
X171483470Y-122549210D01*
X171482814Y-122542442D01*
X171579630Y-122060671D01*
X171600042Y-121959097D01*
X171603241Y-121953130D01*
X171609213Y-121949933D01*
X171615955Y-121950581D01*
G37*
%TD.AperFunction*%
%TD*%
%TA.AperFunction,Conductor*%
%TO.N,/TFT/T_XP*%
G36*
X143320676Y-117059489D02*
G01*
X143324964Y-117063821D01*
X143580637Y-117513710D01*
X143582152Y-117520042D01*
X143580048Y-117526204D01*
X143574976Y-117530287D01*
X143312182Y-117640088D01*
X143307632Y-117640992D01*
X143024031Y-117640046D01*
X143017588Y-117638086D01*
X143013292Y-117632899D01*
X143012568Y-117626207D01*
X143116620Y-117067459D01*
X143120644Y-117060603D01*
X143128122Y-117057902D01*
X143314792Y-117057902D01*
X143320676Y-117059489D01*
G37*
%TD.AperFunction*%
%TD*%
%TA.AperFunction,Conductor*%
%TO.N,/MCU/TOUCH_MOSI*%
G36*
X166505012Y-113897377D02*
G01*
X166954713Y-114108107D01*
X166960650Y-114114454D01*
X166960571Y-114123145D01*
X166852563Y-114386184D01*
X166850013Y-114390013D01*
X166846184Y-114392563D01*
X166583145Y-114500571D01*
X166574454Y-114500650D01*
X166568107Y-114494713D01*
X166357377Y-114045012D01*
X166356447Y-114038026D01*
X166359696Y-114031776D01*
X166491776Y-113899696D01*
X166498026Y-113896447D01*
X166505012Y-113897377D01*
G37*
%TD.AperFunction*%
%TD*%
%TA.AperFunction,Conductor*%
%TO.N,/MCU/MCU_TXD*%
G36*
X172398915Y-107785375D02*
G01*
X172661288Y-107895000D01*
X172667489Y-107901090D01*
X172667779Y-107909777D01*
X172498801Y-108376773D01*
X172494519Y-108382370D01*
X172487799Y-108384492D01*
X172301017Y-108384492D01*
X172294297Y-108382370D01*
X172290015Y-108376773D01*
X172121036Y-107909777D01*
X172121326Y-107901090D01*
X172127526Y-107895000D01*
X172389900Y-107785375D01*
X172394408Y-107784472D01*
X172398915Y-107785375D01*
G37*
%TD.AperFunction*%
%TD*%
%TA.AperFunction,Conductor*%
%TO.N,/TFT/T_XM*%
G36*
X141644508Y-98910883D02*
G01*
X141906880Y-99020508D01*
X141913081Y-99026598D01*
X141913371Y-99035285D01*
X141744393Y-99502281D01*
X141740111Y-99507878D01*
X141733391Y-99510000D01*
X141546609Y-99510000D01*
X141539889Y-99507878D01*
X141535607Y-99502281D01*
X141366628Y-99035285D01*
X141366918Y-99026598D01*
X141373118Y-99020508D01*
X141635493Y-98910882D01*
X141639999Y-98909980D01*
X141644508Y-98910883D01*
G37*
%TD.AperFunction*%
%TD*%
%TA.AperFunction,Conductor*%
%TO.N,/TFT/T_YP*%
G36*
X142514508Y-96980883D02*
G01*
X142776880Y-97090508D01*
X142783081Y-97096598D01*
X142783371Y-97105285D01*
X142614393Y-97572281D01*
X142610111Y-97577878D01*
X142603391Y-97580000D01*
X142416609Y-97580000D01*
X142409889Y-97577878D01*
X142405607Y-97572281D01*
X142236628Y-97105285D01*
X142236918Y-97096598D01*
X142243118Y-97090508D01*
X142505493Y-96980882D01*
X142509999Y-96979980D01*
X142514508Y-96980883D01*
G37*
%TD.AperFunction*%
%TD*%
%TA.AperFunction,Conductor*%
%TO.N,+5V*%
G36*
X180617156Y-128573090D02*
G01*
X180620894Y-128580728D01*
X180668947Y-129157370D01*
X180667734Y-129163610D01*
X180663438Y-129168295D01*
X180657326Y-129170042D01*
X180370039Y-129170999D01*
X180369961Y-129170999D01*
X180082673Y-129170042D01*
X180076561Y-129168295D01*
X180072265Y-129163610D01*
X180071052Y-129157370D01*
X180119106Y-128580728D01*
X180122844Y-128573090D01*
X180130766Y-128570000D01*
X180609234Y-128570000D01*
X180617156Y-128573090D01*
G37*
%TD.AperFunction*%
%TD*%
%TA.AperFunction,Conductor*%
%TO.N,/MCU/TOUCH_MISO*%
G36*
X165525012Y-113927377D02*
G01*
X165974713Y-114138107D01*
X165980650Y-114144454D01*
X165980571Y-114153145D01*
X165872563Y-114416184D01*
X165870013Y-114420013D01*
X165866184Y-114422563D01*
X165603145Y-114530571D01*
X165594454Y-114530650D01*
X165588107Y-114524713D01*
X165377377Y-114075012D01*
X165376447Y-114068026D01*
X165379696Y-114061776D01*
X165511776Y-113929696D01*
X165518026Y-113926447D01*
X165525012Y-113927377D01*
G37*
%TD.AperFunction*%
%TD*%
%TA.AperFunction,Conductor*%
%TO.N,VCC*%
G36*
X153704507Y-100270883D02*
G01*
X153941497Y-100369902D01*
X153967777Y-100380883D01*
X153973753Y-100386492D01*
X153974584Y-100394645D01*
X153852289Y-100861266D01*
X153848119Y-100867563D01*
X153840971Y-100870000D01*
X153559029Y-100870000D01*
X153551881Y-100867563D01*
X153547711Y-100861266D01*
X153425415Y-100394645D01*
X153426246Y-100386492D01*
X153432221Y-100380883D01*
X153695492Y-100270883D01*
X153700000Y-100269980D01*
X153704507Y-100270883D01*
G37*
%TD.AperFunction*%
%TD*%
%TA.AperFunction,Conductor*%
%TO.N,/Key&LED/KEY1*%
G36*
X158014028Y-86254725D02*
G01*
X158182281Y-86315607D01*
X158187878Y-86319889D01*
X158190000Y-86326609D01*
X158190000Y-86513391D01*
X158187878Y-86520111D01*
X158182281Y-86524393D01*
X157715285Y-86693371D01*
X157706598Y-86693081D01*
X157700508Y-86686880D01*
X157590883Y-86424507D01*
X157589980Y-86420000D01*
X157590883Y-86415492D01*
X157700508Y-86153118D01*
X157706598Y-86146918D01*
X157715285Y-86146628D01*
X158014028Y-86254725D01*
G37*
%TD.AperFunction*%
%TD*%
%TA.AperFunction,Conductor*%
%TO.N,/MCU/MCU_RXD*%
G36*
X172641892Y-106795286D02*
G01*
X172852622Y-107244987D01*
X172853552Y-107251973D01*
X172850301Y-107258225D01*
X172720417Y-107388108D01*
X172713395Y-107391468D01*
X172705819Y-107389678D01*
X172703376Y-107388108D01*
X172658129Y-107359029D01*
X172604460Y-107324538D01*
X172485433Y-107289589D01*
X172483764Y-107288957D01*
X172255286Y-107181892D01*
X172249349Y-107175545D01*
X172249428Y-107166854D01*
X172357436Y-106903815D01*
X172359986Y-106899986D01*
X172363815Y-106897436D01*
X172626855Y-106789427D01*
X172635545Y-106789349D01*
X172641892Y-106795286D01*
G37*
%TD.AperFunction*%
%TD*%
%TA.AperFunction,Conductor*%
%TO.N,/MCU/TOUCH_INT*%
G36*
X167703401Y-113436918D02*
G01*
X167709491Y-113443119D01*
X167819115Y-113705489D01*
X167820019Y-113710000D01*
X167819115Y-113714511D01*
X167709491Y-113976880D01*
X167703401Y-113983081D01*
X167694714Y-113983371D01*
X167227719Y-113814393D01*
X167222122Y-113810111D01*
X167220000Y-113803391D01*
X167220000Y-113616609D01*
X167222122Y-113609889D01*
X167227719Y-113605607D01*
X167280460Y-113586522D01*
X167694715Y-113436628D01*
X167703401Y-113436918D01*
G37*
%TD.AperFunction*%
%TD*%
%TA.AperFunction,Conductor*%
%TO.N,VCC*%
G36*
X172471266Y-121907711D02*
G01*
X172477563Y-121911881D01*
X172480000Y-121919029D01*
X172480000Y-122200971D01*
X172477563Y-122208119D01*
X172471266Y-122212289D01*
X172004645Y-122334584D01*
X171996492Y-122333753D01*
X171990883Y-122327777D01*
X171979902Y-122301497D01*
X171880883Y-122064507D01*
X171879980Y-122060000D01*
X171880883Y-122055492D01*
X171990883Y-121792221D01*
X171996492Y-121786246D01*
X172004645Y-121785415D01*
X172471266Y-121907711D01*
G37*
%TD.AperFunction*%
%TD*%
%TA.AperFunction,Conductor*%
%TO.N,/MCU/TOUCH_CS*%
G36*
X161794507Y-94025883D02*
G01*
X162056880Y-94135508D01*
X162063081Y-94141598D01*
X162063371Y-94150285D01*
X161894393Y-94617281D01*
X161890111Y-94622878D01*
X161883391Y-94625000D01*
X161696609Y-94625000D01*
X161689889Y-94622878D01*
X161685607Y-94617281D01*
X161516628Y-94150285D01*
X161516918Y-94141598D01*
X161523118Y-94135508D01*
X161785492Y-94025883D01*
X161790000Y-94024980D01*
X161794507Y-94025883D01*
G37*
%TD.AperFunction*%
%TD*%
%TA.AperFunction,Conductor*%
%TO.N,/MCU/CAN_TX*%
G36*
X165298306Y-100787940D02*
G01*
X165302537Y-100793916D01*
X165444052Y-101255054D01*
X165443459Y-101263456D01*
X165437378Y-101269283D01*
X165174510Y-101379115D01*
X165169999Y-101380019D01*
X165165488Y-101379115D01*
X165034711Y-101324473D01*
X164903700Y-101269734D01*
X164898892Y-101266012D01*
X164896600Y-101260380D01*
X164897443Y-101254361D01*
X165093771Y-100792769D01*
X165098084Y-100787590D01*
X165104538Y-100785649D01*
X165291352Y-100785649D01*
X165298306Y-100787940D01*
G37*
%TD.AperFunction*%
%TD*%
%TA.AperFunction,Conductor*%
%TO.N,LCD_3V3*%
G36*
X152032243Y-91499057D02*
G01*
X152215011Y-91574105D01*
X152296184Y-91607436D01*
X152300013Y-91609986D01*
X152302563Y-91613815D01*
X152410941Y-91877754D01*
X152411202Y-91885946D01*
X152406023Y-91892298D01*
X151989596Y-92135773D01*
X151982196Y-92137277D01*
X151975418Y-92133946D01*
X151776053Y-91934581D01*
X151772722Y-91927803D01*
X151774225Y-91920407D01*
X152017702Y-91503974D01*
X152024053Y-91498797D01*
X152032243Y-91499057D01*
G37*
%TD.AperFunction*%
%TD*%
%TA.AperFunction,Conductor*%
%TO.N,VCC*%
G36*
X172754581Y-116186053D02*
G01*
X172953946Y-116385418D01*
X172957277Y-116392196D01*
X172955773Y-116399596D01*
X172712298Y-116816023D01*
X172705946Y-116821202D01*
X172697754Y-116820941D01*
X172433815Y-116712563D01*
X172429986Y-116710013D01*
X172427436Y-116706184D01*
X172319058Y-116442245D01*
X172318797Y-116434053D01*
X172323974Y-116427702D01*
X172740407Y-116184225D01*
X172747803Y-116182722D01*
X172754581Y-116186053D01*
G37*
%TD.AperFunction*%
%TD*%
%TA.AperFunction,Conductor*%
%TO.N,LCD_3V3*%
G36*
X159313792Y-126101163D02*
G01*
X159494100Y-126176118D01*
X159576757Y-126210479D01*
X159582996Y-126216618D01*
X159583230Y-126225366D01*
X159452310Y-126576901D01*
X159449619Y-126581091D01*
X159252351Y-126778359D01*
X159245416Y-126781709D01*
X159237901Y-126780023D01*
X159233063Y-126774030D01*
X159163982Y-126581091D01*
X159036580Y-126225261D01*
X159036891Y-126216594D01*
X159043082Y-126210523D01*
X159304798Y-126101170D01*
X159309293Y-126100268D01*
X159313792Y-126101163D01*
G37*
%TD.AperFunction*%
%TD*%
%TA.AperFunction,Conductor*%
%TO.N,+5V*%
G36*
X180637328Y-111209957D02*
G01*
X180643438Y-111211704D01*
X180647734Y-111216389D01*
X180648947Y-111222629D01*
X180600894Y-111799272D01*
X180597156Y-111806910D01*
X180589234Y-111810000D01*
X180110766Y-111810000D01*
X180102844Y-111806910D01*
X180099106Y-111799272D01*
X180051052Y-111222629D01*
X180052265Y-111216389D01*
X180056561Y-111211704D01*
X180062670Y-111209957D01*
X180350000Y-111209000D01*
X180637328Y-111209957D01*
G37*
%TD.AperFunction*%
%TD*%
%TA.AperFunction,Conductor*%
%TO.N,/MCU/LCD_A0*%
G36*
X134620111Y-117432122D02*
G01*
X134624393Y-117437719D01*
X134793371Y-117904714D01*
X134793081Y-117913401D01*
X134786880Y-117919491D01*
X134524511Y-118029115D01*
X134520000Y-118030019D01*
X134515489Y-118029115D01*
X134253119Y-117919491D01*
X134246918Y-117913401D01*
X134246628Y-117904714D01*
X134415607Y-117437719D01*
X134419889Y-117432122D01*
X134426609Y-117430000D01*
X134613391Y-117430000D01*
X134620111Y-117432122D01*
G37*
%TD.AperFunction*%
%TD*%
%TA.AperFunction,Conductor*%
%TO.N,/TFT/T_YM*%
G36*
X140934507Y-100800883D02*
G01*
X141196473Y-100910338D01*
X141202763Y-100916637D01*
X141202801Y-100925539D01*
X141074055Y-101242340D01*
X141014893Y-101387921D01*
X141014565Y-101388727D01*
X141010259Y-101394028D01*
X141003726Y-101396022D01*
X140816914Y-101396022D01*
X140810030Y-101393782D01*
X140805781Y-101387921D01*
X140656147Y-100925047D01*
X140656651Y-100916560D01*
X140662767Y-100910655D01*
X140925492Y-100800883D01*
X140930000Y-100799980D01*
X140934507Y-100800883D01*
G37*
%TD.AperFunction*%
%TD*%
%TA.AperFunction,Conductor*%
%TO.N,/MCU/TOUCH_CLK*%
G36*
X164345012Y-114007377D02*
G01*
X164794713Y-114218107D01*
X164800650Y-114224454D01*
X164800571Y-114233145D01*
X164692563Y-114496184D01*
X164690013Y-114500013D01*
X164686184Y-114502563D01*
X164423145Y-114610571D01*
X164414454Y-114610650D01*
X164408107Y-114604713D01*
X164197377Y-114155012D01*
X164196447Y-114148026D01*
X164199696Y-114141776D01*
X164331776Y-114009696D01*
X164338026Y-114006447D01*
X164345012Y-114007377D01*
G37*
%TD.AperFunction*%
%TD*%
%TA.AperFunction,Conductor*%
%TO.N,+5V*%
G36*
X180439407Y-99848364D02*
G01*
X180447249Y-99851417D01*
X180451013Y-99858945D01*
X180498768Y-100355819D01*
X180497607Y-100362129D01*
X180493293Y-100366879D01*
X180487122Y-100368638D01*
X180205407Y-100368638D01*
X180200499Y-100367559D01*
X180196496Y-100364520D01*
X180189093Y-100355819D01*
X179944847Y-100068735D01*
X179942067Y-100060696D01*
X179945465Y-100052899D01*
X180146556Y-99850859D01*
X180150374Y-99848304D01*
X180154883Y-99847416D01*
X180439407Y-99848364D01*
G37*
%TD.AperFunction*%
%TD*%
%TA.AperFunction,Conductor*%
%TO.N,/MCU/LCD_A0*%
G36*
X135903145Y-114049428D02*
G01*
X136166184Y-114157436D01*
X136170013Y-114159986D01*
X136172563Y-114163815D01*
X136280571Y-114426854D01*
X136280650Y-114435545D01*
X136274713Y-114441892D01*
X135825012Y-114652622D01*
X135818026Y-114653552D01*
X135811774Y-114650301D01*
X135679698Y-114518225D01*
X135676447Y-114511973D01*
X135677376Y-114504988D01*
X135888107Y-114055285D01*
X135894454Y-114049349D01*
X135903145Y-114049428D01*
G37*
%TD.AperFunction*%
%TD*%
%TA.AperFunction,Conductor*%
%TO.N,/Flash/SPI2_SCK*%
G36*
X177429508Y-98230883D02*
G01*
X177691880Y-98340508D01*
X177698081Y-98346598D01*
X177698371Y-98355285D01*
X177529393Y-98822281D01*
X177525111Y-98827878D01*
X177518391Y-98830000D01*
X177331609Y-98830000D01*
X177324889Y-98827878D01*
X177320607Y-98822281D01*
X177151628Y-98355285D01*
X177151918Y-98346598D01*
X177158118Y-98340508D01*
X177420493Y-98230882D01*
X177424999Y-98229980D01*
X177429508Y-98230883D01*
G37*
%TD.AperFunction*%
%TD*%
%TA.AperFunction,Conductor*%
%TO.N,VCC*%
G36*
X155679593Y-120614225D02*
G01*
X156096023Y-120857701D01*
X156101202Y-120864053D01*
X156100941Y-120872245D01*
X155992563Y-121136184D01*
X155990013Y-121140013D01*
X155986184Y-121142563D01*
X155722245Y-121250941D01*
X155714053Y-121251202D01*
X155707701Y-121246023D01*
X155464225Y-120829593D01*
X155462722Y-120822196D01*
X155466052Y-120815419D01*
X155665419Y-120616052D01*
X155672196Y-120612722D01*
X155679593Y-120614225D01*
G37*
%TD.AperFunction*%
%TD*%
%TA.AperFunction,Conductor*%
%TO.N,VCC*%
G36*
X171778119Y-128422437D02*
G01*
X171782289Y-128428734D01*
X171904584Y-128895354D01*
X171903753Y-128903507D01*
X171897777Y-128909116D01*
X171634511Y-129019115D01*
X171630000Y-129020019D01*
X171625489Y-129019115D01*
X171362222Y-128909116D01*
X171356246Y-128903507D01*
X171355415Y-128895354D01*
X171477711Y-128428734D01*
X171481881Y-128422437D01*
X171489029Y-128420000D01*
X171770971Y-128420000D01*
X171778119Y-128422437D01*
G37*
%TD.AperFunction*%
%TD*%
%TA.AperFunction,Conductor*%
%TO.N,/MCU/RXD*%
G36*
X179373380Y-120257075D02*
G01*
X179379575Y-120263321D01*
X179489115Y-120525489D01*
X179490019Y-120530000D01*
X179489115Y-120534511D01*
X179379418Y-120797055D01*
X179373419Y-120803215D01*
X179364830Y-120803612D01*
X179293549Y-120779188D01*
X179288499Y-120775782D01*
X179273920Y-120758957D01*
X179152844Y-120681146D01*
X179014753Y-120640600D01*
X178952436Y-120640600D01*
X178950158Y-120640376D01*
X178931135Y-120636600D01*
X178931134Y-120636600D01*
X178912185Y-120636600D01*
X178909474Y-120636618D01*
X178909437Y-120636618D01*
X178909095Y-120636623D01*
X178905170Y-120636711D01*
X178904408Y-120636736D01*
X178904071Y-120636747D01*
X178898062Y-120635312D01*
X178893621Y-120631015D01*
X178891989Y-120625054D01*
X178891989Y-120446439D01*
X178894046Y-120439813D01*
X178899493Y-120435517D01*
X179364586Y-120256910D01*
X179373380Y-120257075D01*
G37*
%TD.AperFunction*%
%TD*%
%TA.AperFunction,Conductor*%
%TO.N,/Flash/SPI2_MOSI*%
G36*
X178699508Y-98230883D02*
G01*
X178961880Y-98340508D01*
X178968081Y-98346598D01*
X178968371Y-98355285D01*
X178799393Y-98822281D01*
X178795111Y-98827878D01*
X178788391Y-98830000D01*
X178601609Y-98830000D01*
X178594889Y-98827878D01*
X178590607Y-98822281D01*
X178421628Y-98355285D01*
X178421918Y-98346598D01*
X178428118Y-98340508D01*
X178690493Y-98230882D01*
X178694999Y-98229980D01*
X178699508Y-98230883D01*
G37*
%TD.AperFunction*%
%TD*%
%TA.AperFunction,Conductor*%
%TO.N,/Flash/SPI2_MOSI*%
G36*
X178788403Y-100962532D02*
G01*
X178792699Y-100967974D01*
X178793160Y-100974893D01*
X178660338Y-101531503D01*
X178657028Y-101537258D01*
X178651119Y-101540286D01*
X178644514Y-101539610D01*
X178384510Y-101432852D01*
X178380688Y-101430310D01*
X178378141Y-101426496D01*
X178269077Y-101162244D01*
X178268804Y-101154050D01*
X178273975Y-101147689D01*
X178590659Y-100962083D01*
X178596576Y-100960477D01*
X178781780Y-100960477D01*
X178788403Y-100962532D01*
G37*
%TD.AperFunction*%
%TD*%
%TA.AperFunction,Conductor*%
%TO.N,/Key&LED/KEY3*%
G36*
X171943145Y-86289428D02*
G01*
X172206184Y-86397436D01*
X172210013Y-86399986D01*
X172212563Y-86403815D01*
X172320571Y-86666854D01*
X172320650Y-86675545D01*
X172314713Y-86681892D01*
X171865012Y-86892622D01*
X171858026Y-86893552D01*
X171851774Y-86890301D01*
X171719698Y-86758225D01*
X171716447Y-86751973D01*
X171717376Y-86744988D01*
X171928107Y-86295285D01*
X171934454Y-86289349D01*
X171943145Y-86289428D01*
G37*
%TD.AperFunction*%
%TD*%
%TA.AperFunction,Conductor*%
%TO.N,VCC*%
G36*
X176301477Y-122049678D02*
G01*
X176307241Y-122052983D01*
X176310277Y-122058896D01*
X176309602Y-122065507D01*
X176201897Y-122327814D01*
X176199328Y-122331663D01*
X175996939Y-122533103D01*
X175991347Y-122536203D01*
X175984961Y-122535902D01*
X175979687Y-122532288D01*
X175714539Y-122213251D01*
X175711837Y-122205773D01*
X175711837Y-121924795D01*
X175713888Y-121918178D01*
X175719322Y-121913881D01*
X175726232Y-121913410D01*
X176301477Y-122049678D01*
G37*
%TD.AperFunction*%
%TD*%
%TA.AperFunction,Conductor*%
%TO.N,VCC*%
G36*
X153848119Y-99672437D02*
G01*
X153852289Y-99678734D01*
X153974584Y-100145354D01*
X153973753Y-100153507D01*
X153967777Y-100159116D01*
X153704511Y-100269115D01*
X153700000Y-100270019D01*
X153695489Y-100269115D01*
X153432222Y-100159116D01*
X153426246Y-100153507D01*
X153425415Y-100145354D01*
X153547711Y-99678734D01*
X153551881Y-99672437D01*
X153559029Y-99670000D01*
X153840971Y-99670000D01*
X153848119Y-99672437D01*
G37*
%TD.AperFunction*%
%TD*%
%TA.AperFunction,Conductor*%
%TO.N,/MCU/TOUCH_MOSI*%
G36*
X163472992Y-94570846D02*
G01*
X163683722Y-95020547D01*
X163684652Y-95027533D01*
X163681401Y-95033785D01*
X163549325Y-95165861D01*
X163543073Y-95169112D01*
X163536087Y-95168182D01*
X163086386Y-94957452D01*
X163080449Y-94951105D01*
X163080528Y-94942414D01*
X163188536Y-94679375D01*
X163191086Y-94675546D01*
X163194915Y-94672996D01*
X163457955Y-94564987D01*
X163466645Y-94564909D01*
X163472992Y-94570846D01*
G37*
%TD.AperFunction*%
%TD*%
%TA.AperFunction,Conductor*%
%TO.N,+5V*%
G36*
X180657328Y-118489957D02*
G01*
X180663438Y-118491704D01*
X180667734Y-118496389D01*
X180668947Y-118502629D01*
X180620894Y-119079272D01*
X180617156Y-119086910D01*
X180609234Y-119090000D01*
X180130766Y-119090000D01*
X180122844Y-119086910D01*
X180119106Y-119079272D01*
X180071052Y-118502629D01*
X180072265Y-118496389D01*
X180076561Y-118491704D01*
X180082670Y-118489957D01*
X180370000Y-118489000D01*
X180657328Y-118489957D01*
G37*
%TD.AperFunction*%
%TD*%
%TA.AperFunction,Conductor*%
%TO.N,/MCU/TOUCH_CLK*%
G36*
X162592513Y-94074783D02*
G01*
X162791999Y-94158132D01*
X162854921Y-94184423D01*
X162861114Y-94190495D01*
X162861425Y-94199163D01*
X162805681Y-94354860D01*
X162803509Y-94358578D01*
X162780699Y-94384903D01*
X162765723Y-94402187D01*
X162765722Y-94402188D01*
X162765722Y-94402189D01*
X162705934Y-94533103D01*
X162687192Y-94663468D01*
X162683273Y-94670645D01*
X162675611Y-94673503D01*
X162496575Y-94673503D01*
X162489874Y-94671394D01*
X162485589Y-94665827D01*
X162314690Y-94199211D01*
X162314955Y-94190502D01*
X162321163Y-94184392D01*
X162583498Y-94074783D01*
X162588006Y-94073880D01*
X162592513Y-94074783D01*
G37*
%TD.AperFunction*%
%TD*%
%TA.AperFunction,Conductor*%
%TO.N,/Flash/SPI2_SCK*%
G36*
X175298225Y-101959698D02*
G01*
X175430301Y-102091774D01*
X175433552Y-102098026D01*
X175432622Y-102105012D01*
X175221892Y-102554713D01*
X175215545Y-102560650D01*
X175206854Y-102560571D01*
X174943815Y-102452563D01*
X174939986Y-102450013D01*
X174937436Y-102446184D01*
X174829428Y-102183145D01*
X174829349Y-102174454D01*
X174835285Y-102168107D01*
X175284988Y-101957376D01*
X175291973Y-101956447D01*
X175298225Y-101959698D01*
G37*
%TD.AperFunction*%
%TD*%
%TA.AperFunction,Conductor*%
%TO.N,/MCU/LCD_LED*%
G36*
X158041892Y-114105286D02*
G01*
X158252622Y-114554987D01*
X158253552Y-114561973D01*
X158250301Y-114568225D01*
X158118225Y-114700301D01*
X158111973Y-114703552D01*
X158104987Y-114702622D01*
X157655286Y-114491892D01*
X157649349Y-114485545D01*
X157649428Y-114476854D01*
X157757436Y-114213815D01*
X157759986Y-114209986D01*
X157763815Y-114207436D01*
X158026855Y-114099427D01*
X158035545Y-114099349D01*
X158041892Y-114105286D01*
G37*
%TD.AperFunction*%
%TD*%
%TA.AperFunction,Conductor*%
%TO.N,VCC*%
G36*
X175542243Y-107189057D02*
G01*
X175725011Y-107264105D01*
X175806184Y-107297436D01*
X175810013Y-107299986D01*
X175812563Y-107303815D01*
X175920941Y-107567754D01*
X175921202Y-107575946D01*
X175916023Y-107582298D01*
X175499596Y-107825773D01*
X175492196Y-107827277D01*
X175485418Y-107823946D01*
X175286053Y-107624581D01*
X175282722Y-107617803D01*
X175284225Y-107610407D01*
X175527702Y-107193974D01*
X175534053Y-107188797D01*
X175542243Y-107189057D01*
G37*
%TD.AperFunction*%
%TD*%
%TA.AperFunction,Conductor*%
%TO.N,/MCU/RXD*%
G36*
X170894507Y-118230883D02*
G01*
X171156880Y-118340508D01*
X171163081Y-118346598D01*
X171163371Y-118355285D01*
X170994393Y-118822281D01*
X170990111Y-118827878D01*
X170983391Y-118830000D01*
X170796609Y-118830000D01*
X170789889Y-118827878D01*
X170785607Y-118822281D01*
X170616628Y-118355285D01*
X170616918Y-118346598D01*
X170623118Y-118340508D01*
X170885492Y-118230883D01*
X170890000Y-118229980D01*
X170894507Y-118230883D01*
G37*
%TD.AperFunction*%
%TD*%
%TA.AperFunction,Conductor*%
%TO.N,/MCU/TXD*%
G36*
X169896106Y-119118750D02*
G01*
X170398387Y-119381636D01*
X170403424Y-119386765D01*
X170404510Y-119393873D01*
X170401234Y-119400274D01*
X170270696Y-119530812D01*
X170266290Y-119533582D01*
X169895234Y-119663512D01*
X169886596Y-119663152D01*
X169880563Y-119656960D01*
X169828123Y-119530812D01*
X169771163Y-119393792D01*
X169770268Y-119389293D01*
X169771170Y-119384798D01*
X169879888Y-119124602D01*
X169883859Y-119119612D01*
X169889861Y-119117446D01*
X169896106Y-119118750D01*
G37*
%TD.AperFunction*%
%TD*%
%TA.AperFunction,Conductor*%
%TO.N,/MCU/TOUCH_MISO*%
G36*
X163195607Y-95975883D02*
G01*
X163458136Y-96085573D01*
X163464301Y-96091582D01*
X163464686Y-96100182D01*
X163304319Y-96565343D01*
X163300050Y-96571056D01*
X163293258Y-96573230D01*
X163106458Y-96573230D01*
X163099821Y-96571166D01*
X163095527Y-96565701D01*
X163095390Y-96565343D01*
X162917978Y-96100397D01*
X162918157Y-96091616D01*
X162924396Y-96085434D01*
X163186592Y-95975883D01*
X163191100Y-95974980D01*
X163195607Y-95975883D01*
G37*
%TD.AperFunction*%
%TD*%
%TA.AperFunction,Conductor*%
%TO.N,/MCU/CAN_RX*%
G36*
X166039507Y-95995883D02*
G01*
X166240542Y-96079880D01*
X166300771Y-96105045D01*
X166305690Y-96108915D01*
X166307911Y-96114766D01*
X166306798Y-96120925D01*
X166086392Y-96577762D01*
X166082075Y-96582587D01*
X166075854Y-96584378D01*
X165889070Y-96584378D01*
X165881902Y-96581925D01*
X165877739Y-96575595D01*
X165760698Y-96120925D01*
X165760360Y-96119610D01*
X165761215Y-96111486D01*
X165767178Y-96105901D01*
X166030492Y-95995883D01*
X166035000Y-95994980D01*
X166039507Y-95995883D01*
G37*
%TD.AperFunction*%
%TD*%
%TA.AperFunction,Conductor*%
%TO.N,LCD_3V3*%
G36*
X161789593Y-128914225D02*
G01*
X162206023Y-129157701D01*
X162211202Y-129164053D01*
X162210941Y-129172245D01*
X162102563Y-129436184D01*
X162100013Y-129440013D01*
X162096184Y-129442563D01*
X161832245Y-129550941D01*
X161824053Y-129551202D01*
X161817701Y-129546023D01*
X161574225Y-129129593D01*
X161572722Y-129122196D01*
X161576052Y-129115419D01*
X161775419Y-128916052D01*
X161782196Y-128912722D01*
X161789593Y-128914225D01*
G37*
%TD.AperFunction*%
%TD*%
%TA.AperFunction,Conductor*%
%TO.N,VCC*%
G36*
X175068119Y-94702437D02*
G01*
X175072289Y-94708734D01*
X175194584Y-95175354D01*
X175193753Y-95183507D01*
X175187777Y-95189116D01*
X174924511Y-95299115D01*
X174920000Y-95300019D01*
X174915489Y-95299115D01*
X174652222Y-95189116D01*
X174646246Y-95183507D01*
X174645415Y-95175354D01*
X174767711Y-94708734D01*
X174771881Y-94702437D01*
X174779029Y-94700000D01*
X175060971Y-94700000D01*
X175068119Y-94702437D01*
G37*
%TD.AperFunction*%
%TD*%
%TA.AperFunction,Conductor*%
%TO.N,VCC*%
G36*
X172622911Y-98989332D02*
G01*
X172885491Y-99097148D01*
X172889311Y-99099689D01*
X172891860Y-99103506D01*
X173000409Y-99366513D01*
X173000432Y-99375385D01*
X172994223Y-99381722D01*
X172642217Y-99533360D01*
X172637588Y-99534315D01*
X172358878Y-99534315D01*
X172351546Y-99531732D01*
X172347450Y-99525125D01*
X172348400Y-99517409D01*
X172423374Y-99366513D01*
X172607990Y-98994947D01*
X172614345Y-98989205D01*
X172622911Y-98989332D01*
G37*
%TD.AperFunction*%
%TD*%
%TA.AperFunction,Conductor*%
%TO.N,/TFT/LED-*%
G36*
X140485012Y-128087377D02*
G01*
X140934713Y-128298107D01*
X140940650Y-128304454D01*
X140940571Y-128313145D01*
X140832563Y-128576184D01*
X140830013Y-128580013D01*
X140826184Y-128582563D01*
X140563145Y-128690571D01*
X140554454Y-128690650D01*
X140548107Y-128684713D01*
X140337377Y-128235012D01*
X140336447Y-128228026D01*
X140339696Y-128221776D01*
X140471776Y-128089696D01*
X140478026Y-128086447D01*
X140485012Y-128087377D01*
G37*
%TD.AperFunction*%
%TD*%
%TA.AperFunction,Conductor*%
%TO.N,/MCU/CAN_TX*%
G36*
X165204507Y-92890883D02*
G01*
X165466849Y-93000495D01*
X165473057Y-93006602D01*
X165473327Y-93015306D01*
X165302808Y-93481997D01*
X165298524Y-93487570D01*
X165291819Y-93489682D01*
X165105033Y-93489682D01*
X165098300Y-93487551D01*
X165094020Y-93481933D01*
X165052286Y-93365612D01*
X164926589Y-93015265D01*
X164926896Y-93006596D01*
X164933090Y-93000520D01*
X165195492Y-92890883D01*
X165200000Y-92889980D01*
X165204507Y-92890883D01*
G37*
%TD.AperFunction*%
%TD*%
%TA.AperFunction,Conductor*%
%TO.N,/MCU/SWCLK*%
G36*
X158533145Y-100189428D02*
G01*
X158796184Y-100297436D01*
X158800013Y-100299986D01*
X158802563Y-100303815D01*
X158910571Y-100566854D01*
X158910650Y-100575545D01*
X158904713Y-100581892D01*
X158455012Y-100792622D01*
X158448026Y-100793552D01*
X158441774Y-100790301D01*
X158309698Y-100658225D01*
X158306447Y-100651973D01*
X158307376Y-100644988D01*
X158518107Y-100195285D01*
X158524454Y-100189349D01*
X158533145Y-100189428D01*
G37*
%TD.AperFunction*%
%TD*%
M02*
