%TF.GenerationSoftware,KiCad,Pcbnew,(6.0.6)*%
%TF.CreationDate,2022-11-24T20:23:29+08:00*%
%TF.ProjectId,Debugger-PCB,44656275-6767-4657-922d-5043422e6b69,rev?*%
%TF.SameCoordinates,Original*%
%TF.FileFunction,Legend,Bot*%
%TF.FilePolarity,Positive*%
%FSLAX46Y46*%
G04 Gerber Fmt 4.6, Leading zero omitted, Abs format (unit mm)*
G04 Created by KiCad (PCBNEW (6.0.6)) date 2022-11-24 20:23:29*
%MOMM*%
%LPD*%
G01*
G04 APERTURE LIST*
%ADD10C,0.150000*%
%ADD11C,0.120000*%
G04 APERTURE END LIST*
D10*
%TO.C,R12*%
X141642857Y-116902380D02*
X141976190Y-116426190D01*
X142214285Y-116902380D02*
X142214285Y-115902380D01*
X141833333Y-115902380D01*
X141738095Y-115950000D01*
X141690476Y-115997619D01*
X141642857Y-116092857D01*
X141642857Y-116235714D01*
X141690476Y-116330952D01*
X141738095Y-116378571D01*
X141833333Y-116426190D01*
X142214285Y-116426190D01*
X140690476Y-116902380D02*
X141261904Y-116902380D01*
X140976190Y-116902380D02*
X140976190Y-115902380D01*
X141071428Y-116045238D01*
X141166666Y-116140476D01*
X141261904Y-116188095D01*
X140309523Y-115997619D02*
X140261904Y-115950000D01*
X140166666Y-115902380D01*
X139928571Y-115902380D01*
X139833333Y-115950000D01*
X139785714Y-115997619D01*
X139738095Y-116092857D01*
X139738095Y-116188095D01*
X139785714Y-116330952D01*
X140357142Y-116902380D01*
X139738095Y-116902380D01*
%TO.C,Q1*%
X149220238Y-115447619D02*
X149315476Y-115400000D01*
X149410714Y-115304761D01*
X149553571Y-115161904D01*
X149648809Y-115114285D01*
X149744047Y-115114285D01*
X149696428Y-115352380D02*
X149791666Y-115304761D01*
X149886904Y-115209523D01*
X149934523Y-115019047D01*
X149934523Y-114685714D01*
X149886904Y-114495238D01*
X149791666Y-114400000D01*
X149696428Y-114352380D01*
X149505952Y-114352380D01*
X149410714Y-114400000D01*
X149315476Y-114495238D01*
X149267857Y-114685714D01*
X149267857Y-115019047D01*
X149315476Y-115209523D01*
X149410714Y-115304761D01*
X149505952Y-115352380D01*
X149696428Y-115352380D01*
X148315476Y-115352380D02*
X148886904Y-115352380D01*
X148601190Y-115352380D02*
X148601190Y-114352380D01*
X148696428Y-114495238D01*
X148791666Y-114590476D01*
X148886904Y-114638095D01*
%TO.C,R12*%
X139825000Y-118900000D02*
X142175000Y-118900000D01*
X139825000Y-117500000D02*
X142175000Y-117500000D01*
D11*
%TO.C,Q1*%
X149125000Y-115740000D02*
X148475000Y-115740000D01*
X149125000Y-118860000D02*
X148475000Y-118860000D01*
X149125000Y-115740000D02*
X150800000Y-115740000D01*
X149125000Y-118860000D02*
X149775000Y-118860000D01*
%TD*%
M02*
